SplineFontDB: 3.2
FontName: EdoSZ
FullName: Edo SZ
FamilyName: Edo SZ
Weight: Book
Copyright: 2008 Vic Fieger
Version: updated January 2008
ItalicAngle: 0
UnderlinePosition: -292
UnderlineWidth: 150
Ascent: 1638
Descent: 410
InvalidEm: 0
sfntRevision: 0x00010000
LayerCount: 2
Layer: 0 1 "Hinten" 1
Layer: 1 1 "Vorne" 0
XUID: [1021 71 -363041667 3850]
StyleMap: 0x0040
FSType: 8
OS2Version: 1
OS2_WeightWidthSlopeOnly: 0
OS2_UseTypoMetrics: 0
CreationTime: 1143234554
ModificationTime: 1732725235
PfmFamily: 17
TTFWeight: 400
TTFWidth: 5
LineGap: 67
VLineGap: 0
Panose: 2 0 0 0 0 0 0 0 0 0
OS2TypoAscent: 1491
OS2TypoAOffset: 0
OS2TypoDescent: -431
OS2TypoDOffset: 0
OS2TypoLinegap: 307
OS2WinAscent: 1854
OS2WinAOffset: 0
OS2WinDescent: 434
OS2WinDOffset: 0
HheadAscent: 1854
HheadAOffset: 0
HheadDescent: -434
HheadDOffset: 0
OS2SubXSize: 1434
OS2SubYSize: 1331
OS2SubXOff: 0
OS2SubYOff: 283
OS2SupXSize: 1434
OS2SupYSize: 1331
OS2SupXOff: 0
OS2SupYOff: 977
OS2StrikeYSize: 102
OS2StrikeYPos: 530
OS2Vendor: 'HL  '
OS2CodePages: 6000019f.dff70000
OS2UnicodeRanges: a00002af.500078fb.00000000.00000000
DEI: 91125
ShortTable: maxp 16
  1
  0
  245
  228
  16
  228
  16
  2
  16
  47
  66
  0
  1036
  0
  2
  1
EndShort
LangName: 1033 "" "" "Regular" "Edo SZ" "" "updated January 2008" "" "2008 Vic Fieger" "" "" "This font was created using Font Creator 5.0 from High-Logic.com"
GaspTable: 1 65535 2 0
Encoding: UnicodeBmp
UnicodeInterp: none
NameList: AGL For New Fonts
DisplaySize: -72
AntiAlias: 1
FitToEm: 0
WinInfo: 0 25 10
BeginChars: 65540 147

StartChar: .notdef
Encoding: 65536 -1 0
Width: 1536
GlyphClass: 1
Flags: W
LayerCount: 2
Fore
SplineSet
256 0 m 1,0,-1
 256 1280 l 1,1,-1
 1280 1280 l 1,2,-1
 1280 0 l 1,3,-1
 256 0 l 1,0,-1
288 32 m 1,4,-1
 1248 32 l 1,5,-1
 1248 1248 l 1,6,-1
 288 1248 l 1,7,-1
 288 32 l 1,4,-1
EndSplineSet
Validated: 1
EndChar

StartChar: exclam
Encoding: 33 33 4
Width: 552
GlyphClass: 1
Flags: W
LayerCount: 2
Fore
SplineSet
249 1495 m 1,0,-1
 472 1414 l 1,1,-1
 472 1394 l 1,2,3
 380 1006 380 1006 380 765 c 2,4,-1
 380 744 l 2,5,6
 380 623 380 623 453 400 c 1,7,-1
 435 339 l 1,8,9
 389 339 389 339 380 419 c 1,10,-1
 361 419 l 1,11,-1
 361 379 l 1,12,-1
 286 379 l 1,13,-1
 249 481 l 1,14,-1
 231 460 l 1,15,-1
 212 460 l 1,16,17
 82 563 82 563 82 805 c 2,18,-1
 82 845 l 1,19,-1
 119 1252 l 1,20,-1
 136 1250 l 1,21,-1
 156 1130 l 1,22,-1
 119 1130 l 1,23,-1
 119 1089 l 1,24,-1
 156 1048 l 1,25,-1
 175 1048 l 1,26,-1
 212 1292 l 1,27,-1
 193 1272 l 1,28,-1
 175 1272 l 1,29,-1
 175 1332 l 1,30,-1
 212 1373 l 1,31,-1
 212 1312 l 1,32,-1
 231 1312 l 1,33,-1
 231 1394 l 1,34,-1
 193 1433 l 1,35,-1
 249 1495 l 1,0,-1
138 1332 m 1,36,-1
 156 1332 l 1,37,-1
 175 1252 l 1,38,-1
 141 1255 l 1,39,-1
 138 1332 l 1,36,-1
138 1028 m 1,40,-1
 138 947 l 1,41,-1
 156 947 l 1,42,-1
 156 1028 l 1,43,-1
 138 1028 l 1,40,-1
101 968 m 1,44,-1
 101 866 l 1,45,-1
 119 765 l 1,46,-1
 138 765 l 1,47,-1
 138 826 l 1,48,-1
 119 968 l 1,49,-1
 101 968 l 1,44,-1
138 684 m 1,50,51
 193 501 193 501 231 501 c 1,52,-1
 138 684 l 1,50,51
320 246 m 1,53,-1
 320 229 l 1,54,-1
 303 212 l 1,55,-1
 303 195 l 1,56,-1
 320 212 l 1,57,-1
 354 212 l 1,58,-1
 405 110 l 1,59,-1
 422 59 l 1,60,-1
 371 8 l 1,61,-1
 405 8 l 1,62,-1
 439 -26 l 1,63,-1
 439 -60 l 1,64,-1
 184 -111 l 1,65,-1
 167 -94 l 1,66,-1
 167 -60 l 1,67,68
 235 -60 235 -60 235 -26 c 2,69,-1
 235 -9 l 1,70,-1
 133 -9 l 1,71,-1
 133 93 l 1,72,-1
 150 110 l 1,73,-1
 150 127 l 1,74,-1
 133 127 l 1,75,-1
 82 110 l 1,76,-1
 82 127 l 1,77,78
 133 246 133 246 320 246 c 1,53,-1
EndSplineSet
Validated: 1
EndChar

StartChar: quotedbl
Encoding: 34 34 5
Width: 577
GlyphClass: 1
Flags: W
LayerCount: 2
Fore
SplineSet
64 1080 m 1,0,-1
 103 1326 l 1,1,-1
 103 1407 l 1,2,-1
 76 1447 l 1,3,-1
 117 1509 l 1,4,-1
 280 1428 l 1,5,-1
 280 1407 l 1,6,7
 233 1137 233 1137 219 937 c 1,8,-1
 217 938 l 1,9,10
 220 916 220 916 225 893 c 1,11,-1
 215 832 l 1,12,13
 191 832 191 832 186 913 c 1,14,-1
 176 913 l 1,15,-1
 176 873 l 1,16,-1
 136 873 l 1,17,-1
 117 974 l 1,18,-1
 107 954 l 1,19,-1
 97 954 l 1,20,21
 62 1007 62 1007 45 1097 c 1,22,-1
 64 1080 l 1,0,-1
311 1300 m 1,23,-1
 354 1311 l 1,24,-1
 354 1392 l 1,25,-1
 327 1424 l 1,26,-1
 368 1498 l 1,27,-1
 531 1466 l 1,28,-1
 531 1446 l 1,29,30
 465 1176 465 1176 465 1029 c 0,31,32
 465 988 465 988 470 957 c 1,33,-1
 468 957 l 1,34,35
 471 936 471 936 476 915 c 1,36,-1
 466 850 l 5,37,38
 440 853 440 853 437 922 c 1,39,-1
 427 919 l 1,40,-1
 427 879 l 1,41,-1
 387 868 l 1,42,-1
 359 901 l 1,43,-1
 349 877 l 1,44,-1
 339 874 l 1,45,46
 304 917 304 917 296 1064 c 1,47,-1
 311 1300 l 1,23,-1
EndSplineSet
Validated: 1
EndChar

StartChar: percent
Encoding: 37 37 6
Width: 1103
GlyphClass: 1
Flags: W
LayerCount: 2
Fore
SplineSet
508 1186 m 1,1,2
 530 1161 530 1161 530 1141 c 1,3,-1
 528 1141 l 1,4,-1
 529 1139 l 1,5,-1
 530 1137 l 1,6,-1
 528 1130 l 1,7,-1
 530 1123 l 1,8,-1
 481 1044 l 2,9,10
 457 1005 457 1005 402 969 c 0,11,12
 355 938 355 938 335 938 c 2,13,-1
 328 938 l 1,14,-1
 310 947 l 1,15,-1
 230 968 l 1,16,17
 164 979 164 979 122 1032 c 1,18,19
 106 1074 106 1074 73 1101 c 2,20,-1
 70 1125 l 1,21,-1
 70 1145 l 2,22,23
 70 1186 70 1186 125 1255 c 1,24,25
 221 1330 221 1330 276 1344 c 1,26,-1
 322 1362 l 1,27,-1
 345 1357 l 1,28,-1
 394 1364 l 1,29,30
 397 1360 397 1360 399 1337 c 2,31,-1
 404 1321 l 2,32,33
 408 1308 408 1308 397 1309 c 2,34,-1
 368 1311 l 1,35,-1
 381 1306 l 1,36,-1
 369 1307 l 1,37,-1
 366 1302 l 1,38,-1
 369 1296 l 1,39,40
 376 1295 376 1295 388 1293 c 1,41,-1
 383 1298 l 1,42,43
 413 1298 413 1298 446 1286 c 1,44,-1
 373 1225 l 1,45,46
 265 1188 265 1188 250 1169 c 1,47,48
 176 1166 176 1166 164 1115 c 1,49,50
 169 1096 169 1096 174 1077 c 1,51,-1
 209 1061 l 1,52,-1
 283 1075 l 1,53,-1
 293 1075 l 1,54,-1
 310 1073 l 1,55,56
 372 1109 372 1109 389 1141 c 1,57,58
 410 1165 410 1165 434 1209 c 1,59,-1
 434 1211 l 1,60,-1
 483 1240 l 1,61,0
 497 1212 497 1212 508 1186 c 1,1,2
393 553 m 1,62,-1
 242 336 l 1,63,-1
 260 322 l 1,64,-1
 365 477 l 1,65,-1
 393 553 l 1,62,-1
260 531 m 1,66,67
 170 395 170 395 164 363 c 1,68,69
 164 349 164 349 173 342 c 1,70,-1
 260 531 l 1,66,67
520 886 m 1,71,-1
 512 895 l 1,72,-1
 451 782 l 1,73,-1
 454 742 l 1,74,-1
 520 886 l 1,71,-1
598 984 m 1,75,-1
 562 880 l 1,76,-1
 728 1121 l 1,77,-1
 773 1267 l 1,78,-1
 840 1281 l 1,79,-1
 795 1218 l 1,80,-1
 814 1203 l 1,81,-1
 874 1288 l 1,82,-1
 864 1358 l 1,83,-1
 965 1380 l 1,84,-1
 1061 1210 l 1,85,-1
 1047 1190 l 1,86,87
 668 765 668 765 493 515 c 1,88,-1
 477 494 l 1,89,90
 389 368 389 368 149 -1 c 1,91,-1
 87 -51 l 1,92,93
 65 -34 65 -34 65 -5 c 0,94,95
 65 27 65 27 91 74 c 1,96,-1
 72 88 l 1,97,-1
 76 114 l 1,98,-1
 152 244 l 1,99,-1
 176 307 l 1,100,-1
 81 166 l 1,101,-1
 62 181 l 1,102,103
 111 362 111 362 111 413 c 1,104,105
 157 507 157 507 292 699 c 2,106,-1
 321 740 l 1,107,-1
 655 1134 l 1,108,-1
 674 1120 l 1,109,-1
 603 980 l 1,110,-1
 598 984 l 1,75,-1
808 -46 m 2,111,112
 798 -48 798 -48 789 -48 c 0,113,114
 761 -48 761 -48 745 -24 c 2,115,-1
 735 -7 l 2,116,117
 732 4 732 4 738 8 c 2,118,-1
 765 13 l 1,119,-1
 792 33 l 1,120,-1
 791 35 l 1,121,-1
 785 39 l 1,122,-1
 766 26 l 1,123,124
 757 25 757 25 756 28 c 1,125,-1
 751 24 l 1,126,127
 712 14 712 14 706 38 c 1,128,-1
 700 43 l 2,129,130
 699 47 699 47 705 49 c 2,131,-1
 707 51 l 1,132,-1
 706 56 l 1,133,134
 674 94 674 94 650 132 c 1,135,136
 623 156 623 156 617 178 c 1,137,-1
 619 179 l 1,138,-1
 616 181 l 1,139,-1
 616 192 l 1,140,-1
 611 200 l 1,141,-1
 631 302 l 2,142,143
 636 341 636 341 679 407 c 0,144,145
 712 454 712 454 730 459 c 2,146,-1
 736 461 l 1,147,-1
 756 454 l 1,148,-1
 805 485 l 1,149,150
 812 487 812 487 821 487 c 0,151,152
 861 487 861 487 922 438 c 0,153,154
 1006 370 1006 370 1016 334 c 2,155,-1
 1026 307 l 1,156,-1
 1032 284 l 2,157,158
 1036 270 1036 270 1036 252 c 0,159,160
 1035 206 1035 206 1016 144 c 1,161,162
 953 35 953 35 908 5 c 1,163,-1
 872 -26 l 1,164,-1
 849 -26 l 1,165,-1
 808 -46 l 2,111,112
919 359 m 1,166,-1
 911 362 l 1,167,-1
 833 318 l 1,168,-1
 824 316 l 1,169,-1
 808 314 l 1,170,171
 763 258 763 258 758 217 c 1,172,173
 746 185 746 185 738 128 c 1,174,-1
 741 116 l 1,175,176
 756 92 756 92 759 94 c 0,177,178
 890 194 890 194 896 214 c 1,179,180
 922 255 922 255 922 328 c 0,181,182
 922 330 922 330 921 332 c 0,183,184
 921 340 921 340 919 359 c 1,166,-1
EndSplineSet
Validated: 1
EndChar

StartChar: ampersand
Encoding: 38 38 7
Width: 1480
GlyphClass: 1
Flags: W
LayerCount: 2
Fore
SplineSet
746 1338 m 2,0,-1
 989 1344 l 1,1,2
 1072 1297 1072 1297 1072 1225 c 0,3,4
 1072 1217 1072 1217 1072 1209 c 2,5,-1
 1071 1182 l 2,6,7
 1066 1047 1066 1047 773 763 c 1,8,9
 918 525 918 525 1022 426 c 1,10,-1
 1034 426 l 1,11,12
 1169 557 1169 557 1270 706 c 1,13,14
 1294 707 1294 707 1293 666 c 1,15,-1
 1280 624 l 1,16,-1
 1293 624 l 1,17,-1
 1366 681 l 1,18,-1
 1378 668 l 1,19,-1
 1390 668 l 1,20,-1
 1439 683 l 1,21,-1
 1451 669 l 1,22,-1
 1451 628 l 1,23,24
 1370 463 1370 463 1154 306 c 1,25,-1
 1153 292 l 1,26,-1
 1320 90 l 1,27,-1
 1319 63 l 1,28,29
 1201 -35 1201 -35 1050 -39 c 1,30,31
 1041 -38 1041 -38 1042 -38 c 128,-1,32
 1043 -38 1043 -38 1044 -36.5 c 128,-1,33
 1045 -35 1045 -35 1045 -32 c 0,34,35
 1045 -32 1045 -32 1044.5 -30.5 c 128,-1,36
 1044 -29 1044 -29 1042 -27 c 0,37,38
 1032 -11 1032 -11 904 96 c 1,39,-1
 895 94 l 1,40,-1
 990 -13 l 1,41,-1
 990 -27 l 1,42,-1
 965 -55 l 1,43,-1
 846 66 l 1,44,-1
 674 -7 l 1,45,-1
 577 4 l 1,46,-1
 480 -11 l 1,47,-1
 480 -25 l 1,48,49
 485 -25 485 -25 490 -25 c 128,-1,50
 495 -25 495 -25 500 -25 c 0,51,52
 552 -23 552 -23 552 -45 c 0,53,54
 552 -45 552 -45 552 -50 c 1,55,-1
 430 -122 l 1,56,-1
 405 -122 l 1,57,58
 397 -122 397 -122 390 -122 c 0,59,60
 107 -122 107 -122 33 129 c 1,61,-1
 34 184 l 1,62,63
 45 338 45 338 481 729 c 1,64,65
 434 828 434 828 400 1015 c 1,66,-1
 427 1125 l 1,67,-1
 415 1166 l 1,68,69
 625 1335 625 1335 746 1338 c 2,0,-1
1012 1249 m 1,70,-1
 1011 1235 l 1,71,-1
 1022 1167 l 1,72,-1
 1010 1125 l 1,73,-1
 1034 1153 l 1,74,-1
 1035 1181 l 1,75,-1
 1024 1249 l 1,76,-1
 1012 1249 l 1,70,-1
668 1049 m 1,77,-1
 690 926 l 1,78,79
 786 996 786 996 815 1121 c 1,80,-1
 793 1230 l 1,81,82
 670 1150 670 1150 668 1049 c 1,77,-1
937 1165 m 1,83,84
 937 1119 937 1119 726 872 c 1,85,-1
 726 858 l 1,86,-1
 738 858 l 1,87,88
 924 1047 924 1047 949 1124 c 1,89,-1
 950 1165 l 1,90,-1
 937 1165 l 1,83,84
631 993 m 1,91,-1
 630 952 l 1,92,-1
 641 897 l 1,93,-1
 653 898 l 1,94,-1
 654 911 l 1,95,-1
 643 993 l 1,96,-1
 631 993 l 1,91,-1
563 566 m 1,97,98
 672 320 672 320 799 202 c 1,99,-1
 812 202 l 1,100,-1
 812 211 l 2,101,102
 812 214 812 214 812 216 c 0,103,104
 812 259 812 259 575 567 c 1,105,-1
 563 566 l 1,97,98
301 190 m 1,106,107
 360 58 360 58 520 58 c 0,108,109
 525 58 525 58 530 58 c 1,110,-1
 652 116 l 1,111,-1
 688 103 l 1,112,-1
 835 161 l 1,113,-1
 836 189 l 1,114,-1
 824 188 l 1,115,-1
 787 160 l 1,116,-1
 774 160 l 1,117,118
 648 303 648 303 538 525 c 1,119,-1
 526 524 l 1,120,121
 353 402 353 402 301 190 c 1,106,107
253 230 m 1,122,-1
 252 161 l 1,123,124
 269 107 269 107 288 107 c 1,125,-1
 266 230 l 1,126,-1
 253 230 l 1,122,-1
1164 210 m 1,127,-1
 1164 196 l 1,128,-1
 1235 116 l 1,129,-1
 1236 129 l 1,130,-1
 1164 210 l 1,127,-1
EndSplineSet
Validated: 1
EndChar

StartChar: quotesingle
Encoding: 39 39 8
Width: 472
GlyphClass: 1
Flags: W
LayerCount: 2
Fore
SplineSet
80 1266 m 1,0,-1
 94 1261 l 1,1,-1
 117 1144 l 1,2,-1
 80 1144 l 1,3,-1
 80 1104 l 1,4,-1
 66 1113 l 1,5,-1
 80 1266 l 1,0,-1
99 1346 m 1,6,-1
 117 1346 l 1,7,-1
 136 1266 l 1,8,-1
 106 1273 l 1,9,-1
 99 1346 l 1,6,-1
99 1042 m 1,10,-1
 117 1042 l 1,11,-1
 117 961 l 1,12,-1
 99 961 l 1,13,-1
 99 1042 l 1,10,-1
138 1080 m 1,14,-1
 173 1305 l 1,15,-1
 154 1286 l 1,16,-1
 136 1286 l 1,17,-1
 136 1346 l 1,18,-1
 173 1387 l 1,19,-1
 173 1326 l 1,20,-1
 192 1326 l 1,21,-1
 192 1407 l 1,22,-1
 154 1447 l 1,23,-1
 211 1509 l 1,24,-1
 433 1428 l 1,25,-1
 433 1407 l 1,26,27
 369 1137 369 1137 349 937 c 1,28,-1
 347 938 l 1,29,30
 352 916 352 916 358 893 c 1,31,-1
 344 832 l 1,32,33
 311 832 311 832 304 913 c 1,34,-1
 290 913 l 1,35,-1
 290 873 l 1,36,-1
 237 873 l 1,37,-1
 211 974 l 1,38,-1
 197 954 l 1,39,-1
 183 954 l 1,40,41
 135 1007 135 1007 112 1097 c 1,42,-1
 138 1080 l 1,14,-1
179 1043 m 1,43,-1
 162 1053 l 1,44,45
 182 994 182 994 197 994 c 1,46,-1
 179 1043 l 1,43,-1
EndSplineSet
Validated: 1
EndChar

StartChar: parenleft
Encoding: 40 40 9
Width: 1002
GlyphClass: 1
Flags: W
LayerCount: 2
Fore
SplineSet
915 1460 m 1,0,-1
 839 1363 l 1,1,-1
 749 1269 l 1,2,-1
 683 1165 l 1,3,4
 566 842 566 842 566 491 c 0,5,6
 567 353 567 353 584 213 c 1,7,8
 675 -139 675 -139 717 -188 c 1,9,10
 785 -202 785 -202 794 -280 c 1,11,-1
 760 -347 l 1,12,-1
 754 -347 l 2,13,14
 720 -347 720 -347 692 -307 c 0,15,16
 487 -17 487 -17 487 63 c 0,17,18
 487 71 487 71 489 77 c 1,19,-1
 448 334 l 1,20,-1
 474 -16 l 1,21,-1
 460 -7 l 1,22,23
 402 174 402 174 402 435 c 0,24,25
 402 481 402 481 404 529 c 0,26,27
 411 729 411 729 449 971 c 1,28,29
 489 1146 489 1146 631 1334 c 1,30,31
 738 1537 738 1537 796 1537 c 0,32,33
 804 1537 804 1537 812 1533 c 1,34,-1
 737 1422 l 1,35,-1
 722 1379 l 1,36,-1
 737 1370 l 1,37,38
 873 1565 873 1565 928 1565 c 2,39,-1
 933 1565 l 1,40,-1
 949 1556 l 1,41,-1
 880 1467 l 1,42,-1
 874 1445 l 1,43,-1
 915 1460 l 1,0,-1
EndSplineSet
Validated: 1
EndChar

StartChar: parenright
Encoding: 41 41 10
Width: 999
GlyphClass: 1
Flags: W
LayerCount: 2
Fore
SplineSet
565 413 m 1,0,-1
 597 405 l 1,1,-1
 596 253 l 1,2,-1
 464 -21 l 1,3,-1
 432 -14 l 1,4,-1
 440 22 l 1,5,-1
 565 413 l 1,0,-1
290 1411 m 1,6,-1
 289 1574 l 1,7,8
 323 1446 323 1446 397 1432 c 1,9,-1
 410 1464 l 1,10,-1
 506 1181 l 1,11,-1
 505 1074 l 1,12,-1
 533 1006 l 1,13,14
 538 934 538 934 538 872 c 0,15,16
 538 866 538 866 538 858 c 128,-1,17
 538 850 538 850 539 848 c 0,18,19
 540 845 540 845 538 840 c 0,20,21
 538 840 538 840 538 831 c 0,22,23
 538 535 538 535 340 -118 c 1,24,25
 297 -129 297 -129 297 -171 c 0,26,27
 297 -177 297 -177 298 -184 c 1,28,-1
 277 -166 l 1,29,-1
 261 -172 l 1,30,-1
 169 -257 l 1,31,-1
 193 -301 l 1,32,-1
 197 -326 l 1,33,-1
 139 -336 l 1,34,-1
 100 -254 l 1,35,36
 395 358 395 358 395 816 c 0,37,38
 395 1063 395 1063 309 1264 c 1,39,-1
 185 1541 l 1,40,-1
 235 1569 l 1,41,-1
 290 1411 l 1,6,-1
EndSplineSet
Validated: 1
EndChar

StartChar: plus
Encoding: 43 43 11
Width: 1199
GlyphClass: 1
Flags: W
LayerCount: 2
Fore
SplineSet
261 583 m 1,0,-1
 261 596 l 1,1,-1
 208 596 l 1,2,-1
 208 583 l 1,3,-1
 261 583 l 1,0,-1
666 732 m 2,5,-1
 666 730 l 1,6,-1
 675 731 l 1,7,-1
 887 758 l 1,8,-1
 900 745 l 1,9,-1
 914 745 l 1,10,-1
 993 758 l 1,11,-1
 1033 731 l 1,12,-1
 1020 663 l 1,13,-1
 1033 650 l 1,14,15
 1033 582 1033 582 874 582 c 1,16,-1
 662 574 l 1,17,18
 607 362 607 362 553 178 c 1,19,-1
 541 184 l 2,20,21
 517 195 517 195 534 232 c 1,22,-1
 521 237 l 2,23,24
 518 238 518 238 515 238 c 0,25,26
 514.25 238.102272727 514.25 238.102272727 513.465134298 238.102272727 c 0,27,28
 491.227272727 238.102272727 491.227272727 238.102272727 441 156 c 1,29,-1
 398 191 l 1,30,31
 485 465 485 465 507 568 c 1,32,-1
 492 568 l 1,33,-1
 381 185 l 1,34,-1
 345 202 l 1,35,-1
 350 214 l 1,36,-1
 368 221 l 1,37,-1
 390 270 l 1,38,-1
 378 275 l 1,39,-1
 361 269 l 1,40,-1
 400 355 l 1,41,-1
 418 361 l 1,42,-1
 393 373 l 1,43,-1
 399 385 l 1,44,-1
 423 374 l 1,45,-1
 434 398 l 1,46,-1
 410 410 l 1,47,-1
 421 435 l 1,48,-1
 439 441 l 1,49,-1
 414 452 l 1,50,-1
 420 465 l 1,51,-1
 471 545 l 1,52,-1
 447 557 l 1,53,-1
 465 563 l 1,54,-1
 466 567 l 1,55,-1
 158 555 l 1,56,-1
 118 569 l 1,57,-1
 118 596 l 1,58,-1
 158 596 l 1,59,-1
 131 636 l 1,60,61
 160 704 160 704 343 704 c 1,62,-1
 436 717 l 1,63,-1
 480 720 l 1,64,65
 499 837 499 837 521 975 c 1,66,-1
 481 1151 l 1,67,-1
 494 1151 l 2,68,69
 524 1151 524 1151 547 1016 c 1,70,-1
 534 881 l 1,71,-1
 534 867 l 1,72,-1
 547 867 l 1,73,-1
 547 894 l 1,74,75
 587 894 587 894 587 921 c 2,76,-1
 587 935 l 1,77,-1
 560 1151 l 1,78,-1
 560 1165 l 1,79,-1
 587 1165 l 1,80,-1
 640 1124 l 1,81,-1
 653 1138 l 1,82,-1
 666 1138 l 1,83,84
 719 1021 719 1021 719 935 c 1,85,-1
 706 948 l 1,86,-1
 693 948 l 1,87,-1
 719 854 l 1,88,-1
 680 840 l 1,89,-1
 680 799 l 1,90,-1
 692 801 l 1,91,-1
 681 755 l 1,92,4
 666 748 666 748 666 732 c 2,5,-1
EndSplineSet
Validated: 1
EndChar

StartChar: comma
Encoding: 44 44 12
Width: 703
GlyphClass: 1
Flags: W
LayerCount: 2
Fore
SplineSet
385 375 m 1,0,-1
 430 375 l 1,1,2
 476 355 476 355 476 274 c 2,3,-1
 476 269 l 2,4,5
 476 225 476 225 462 163 c 1,6,-1
 467 122 l 1,7,8
 384 -163 384 -163 339 -163 c 1,9,10
 339 -210 339 -210 298 -232 c 1,11,-1
 280 -232 l 1,12,13
 229 -222 229 -222 229 -186 c 0,14,15
 236 -75 236 -75 284 -75 c 1,16,-1
 289 -71 l 1,17,-1
 289 -66 l 1,18,-1
 261 -25 l 1,19,-1
 270 30 l 1,20,-1
 220 12 l 1,21,22
 143 24 143 24 143 35 c 2,23,-1
 138 49 l 1,24,25
 138 173 138 173 193 173 c 1,26,-1
 197 177 l 1,27,-1
 197 182 l 1,28,-1
 165 223 l 1,29,30
 173 347 173 347 220 347 c 1,31,-1
 385 375 l 1,0,-1
316 205 m 1,32,-1
 321 205 l 1,33,-1
 366 214 l 1,34,-1
 366 228 l 1,35,-1
 362 228 l 2,36,37
 339 228 339 228 316 205 c 1,32,-1
EndSplineSet
Validated: 1
EndChar

StartChar: hyphen
Encoding: 45 45 13
AltUni2: 0000ad.ffffffff.0 0000ad.ffffffff.0
Width: 999
GlyphClass: 1
Flags: W
LayerCount: 2
Fore
SplineSet
554 815 m 1,0,-1
 583 811 l 1,1,-1
 644 821 l 1,2,-1
 647 837 l 1,3,-1
 618 842 l 1,4,-1
 557 832 l 1,5,-1
 554 815 l 1,0,-1
568 640 m 1,6,-1
 597 637 l 1,7,-1
 592 690 l 1,8,-1
 563 693 l 1,9,-1
 568 640 l 1,6,-1
207 896 m 1,10,-1
 207 907 l 1,11,-1
 263 921 l 1,12,-1
 304 899 l 1,13,-1
 393 905 l 1,14,-1
 405 886 l 1,15,-1
 407 903 l 1,16,-1
 419 884 l 1,17,-1
 595 879 l 1,18,-1
 682 868 l 1,19,-1
 664 853 l 1,20,-1
 661 836 l 1,21,-1
 887 860 l 1,22,-1
 881 826 l 1,23,24
 837 832 837 832 831 798 c 1,25,-1
 846 796 l 1,26,-1
 892 807 l 1,27,-1
 889 790 l 1,28,-1
 872 775 l 1,29,-1
 869 758 l 1,30,31
 907 753 907 753 907 726 c 0,32,33
 907 723 907 723 906 718 c 1,34,-1
 646 665 l 1,35,-1
 643 648 l 1,36,-1
 700 641 l 1,37,-1
 698 624 l 1,38,-1
 519 612 l 1,39,-1
 557 659 l 1,40,-1
 542 661 l 1,41,42
 534.928571429 661.160714286 534.928571429 661.160714286 528.167091837 661.160714286 c 0,43,44
 408.714285714 661.160714286 408.714285714 661.160714286 386 611 c 1,45,-1
 383 594 l 1,46,-1
 325 602 l 1,47,-1
 314 621 l 1,48,-1
 310 604 l 1,49,-1
 322 585 l 1,50,-1
 264 593 l 1,51,-1
 268 610 l 1,52,-1
 285 624 l 1,53,-1
 287 641 l 1,54,-1
 270 626 l 1,55,-1
 215 633 l 1,56,-1
 214 645 l 1,57,-1
 100 684 l 1,58,-1
 106 708 l 1,59,-1
 196 708 l 1,60,-1
 201 732 l 1,61,62
 167.076923077 740.884615385 167.076923077 740.884615385 167.076923077 771.949704142 c 0,63,64
 167.076923077 779.346153846 167.076923077 779.346153846 169 788 c 1,65,-1
 57 819 l 1,66,-1
 62 842 l 2,67,68
 73 891 73 891 207 896 c 1,10,-1
EndSplineSet
Validated: 1
EndChar

StartChar: period
Encoding: 46 46 14
Width: 627
GlyphClass: 1
Flags: W
LayerCount: 2
Fore
SplineSet
385 368 m 1,0,-1
 451 303 l 1,1,-1
 449 284 l 1,2,-1
 486 248 l 1,3,-1
 485 229 l 1,4,-1
 446 229 l 1,5,-1
 445 210 l 1,6,-1
 484 210 l 1,7,-1
 482 193 l 1,8,9
 370 164 370 164 368 128 c 1,10,-1
 407 128 l 1,11,12
 397 -20 397 -20 145 -20 c 1,13,-1
 87 -1 l 1,14,-1
 87 79 l 1,15,16
 116.807692308 66.9807692308 116.807692308 66.9807692308 135.982988166 66.9807692308 c 0,17,18
 156.692307692 66.9807692308 156.692307692 66.9807692308 165 81 c 1,19,-1
 76 128 l 1,20,-1
 136 247 l 1,21,-1
 86 295 l 1,22,23
 91 371 91 371 300 371 c 0,24,25
 340 371 340 371 385 368 c 1,0,-1
EndSplineSet
Validated: 1
EndChar

StartChar: slash
Encoding: 47 47 15
Width: 1002
GlyphClass: 1
Flags: W
LayerCount: 2
Fore
SplineSet
704 893 m 1,0,-1
 669 771 l 1,1,-1
 686 766 l 1,2,-1
 721 888 l 1,3,-1
 704 893 l 1,0,-1
647 758 m 1,4,-1
 591 624 l 1,5,-1
 581 589 l 1,6,-1
 598 584 l 1,7,-1
 654 719 l 1,8,-1
 664 753 l 1,9,-1
 647 758 l 1,4,-1
559 577 m 1,10,-1
 539 507 l 1,11,-1
 556 502 l 1,12,-1
 576 572 l 1,13,-1
 559 577 l 1,10,-1
517 495 m 1,14,-1
 475 413 l 1,15,-1
 470 396 l 1,16,-1
 487 391 l 1,17,-1
 524 455 l 1,18,-1
 534 490 l 1,19,-1
 517 495 l 1,14,-1
434 331 m 1,20,-1
 414 262 l 1,21,-1
 431 257 l 1,22,-1
 451 326 l 1,23,-1
 434 331 l 1,20,-1
348 428 m 1,24,-1
 298 330 l 1,25,-1
 293 313 l 1,26,-1
 310 308 l 1,27,-1
 354 388 l 1,28,-1
 365 422 l 1,29,-1
 348 428 l 1,24,-1
274 271 m 1,30,-1
 252 202 l 1,31,-1
 269 196 l 1,32,-1
 291 265 l 1,33,-1
 274 271 l 1,30,-1
287 86 m 1,34,-1
 243 6 l 1,35,-1
 226 -46 l 1,36,-1
 243 -51 l 1,37,-1
 298 64 l 1,38,-1
 304 81 l 1,39,-1
 287 86 l 1,34,-1
1026 1392 m 1,40,41
 601 489 601 489 160 -258 c 1,42,-1
 143 -253 l 1,43,-1
 132 -229 l 1,44,-1
 154 -217 l 1,45,-1
 220 -63 l 1,46,-1
 203 -56 l 1,47,-1
 55 -269 l 1,48,-1
 48 -194 l 1,49,50
 42.8055555556 -192.319444444 42.8055555556 -192.319444444 37.6811342593 -192.319444444 c 0,51,52
 9.26388888889 -192.319444444 9.26388888889 -192.319444444 -17 -244 c 1,53,-1
 -34 -239 l 1,54,-1
 9 -144 l 1,55,-1
 -7 -137 l 2,56,57
 -30 -130 -30 -130 -30 -104 c 0,58,59
 -30 -91 -30 -91 -25 -74 c 1,60,61
 23 1 23 1 86 115 c 1,62,63
 273 401 273 401 409 694 c 1,64,-1
 431 735 l 1,65,-1
 453 775 l 1,66,-1
 562 998 l 1,67,-1
 617 1116 l 1,68,-1
 655 1221 l 1,69,-1
 743 1368 l 1,70,-1
 732 1390 l 1,71,-1
 771 1511 l 1,72,-1
 782 1489 l 1,73,-1
 799 1483 l 1,74,-1
 821 1551 l 1,75,-1
 809 1575 l 1,76,-1
 816 1592 l 1,77,-1
 866 1575 l 1,78,-1
 437 666 l 1,79,80
 437.400220507 665.866593164 437.400220507 665.866593164 437.85545111 665.866593164 c 0,81,82
 474.936052922 665.866593164 474.936052922 665.866593164 877 1551 c 1,83,-1
 888 1551 l 1,84,85
 886 1533 886 1533 883 1514 c 1,86,-1
 901 1442 l 1,87,-1
 919 1442 l 1,88,-1
 936 1460 l 1,89,-1
 938 1460 l 1,90,91
 937.590909091 1452.09090909 937.590909091 1452.09090909 937.590909091 1445.07438017 c 0,92,93
 937.590909091 1400.63636364 937.590909091 1400.63636364 954 1392 c 1,94,-1
 954 1351 l 1,95,-1
 990 1373 l 1,96,-1
 1005 1427 l 1,97,98
 1013 1429 1013 1429 1023 1426 c 2,99,-1
 1025 1425 l 1,100,101
 1025 1407 1025 1407 1026 1392 c 1,40,41
EndSplineSet
Validated: 1
EndChar

StartChar: zero
Encoding: 48 48 16
Width: 1032
GlyphClass: 1
Flags: W
LayerCount: 2
Fore
SplineSet
698 1323 m 1,0,1
 811 1278 811 1278 885 1170 c 1,2,-1
 868 1153 l 1,3,4
 895 1034 895 1034 953 1034 c 1,5,-1
 970 1051 l 1,6,-1
 1021 847 l 1,7,-1
 1004 779 l 1,8,-1
 1021 728 l 1,9,10
 989 424 989 424 664 48 c 1,11,12
 613 48 613 48 613 14 c 1,13,-1
 596 31 l 1,14,-1
 579 31 l 1,15,-1
 477 -3 l 1,16,-1
 375 14 l 1,17,-1
 358 14 l 1,18,-1
 358 -3 l 1,19,-1
 494 -37 l 1,20,-1
 494 -54 l 1,21,-1
 375 -54 l 1,22,-1
 222 65 l 1,23,-1
 222 48 l 1,24,-1
 256 -37 l 1,25,-1
 239 -37 l 1,26,27
 187 -22 187 -22 120 167 c 1,28,-1
 103 167 l 1,29,-1
 103 133 l 1,30,-1
 137 31 l 1,31,32
 73 31 73 31 18 456 c 1,33,34
 157 1119 157 1119 256 1119 c 1,35,36
 256 1169 256 1169 324 1204 c 1,37,-1
 341 1204 l 1,38,39
 205 1037 205 1037 205 983 c 1,40,-1
 324 1136 l 1,41,42
 324 1187 324 1187 698 1323 c 1,0,1
290 422 m 2,43,-1
 290 337 l 1,44,-1
 307 167 l 1,45,46
 749 576 749 576 749 915 c 2,47,-1
 749 1034 l 1,48,-1
 766 1017 l 1,49,-1
 817 1034 l 1,50,-1
 817 1051 l 1,51,-1
 800 1068 l 1,52,-1
 800 1085 l 1,53,54
 726 1085 726 1085 426 881 c 1,55,56
 290 584 290 584 290 422 c 2,43,-1
783 983 m 1,57,-1
 766 796 l 1,58,-1
 766 779 l 1,59,-1
 783 779 l 1,60,-1
 817 915 l 1,61,-1
 800 983 l 1,62,-1
 783 983 l 1,57,-1
188 966 m 1,63,-1
 86 677 l 1,64,-1
 103 626 l 1,65,-1
 86 643 l 1,66,-1
 69 643 l 1,67,-1
 69 626 l 1,68,-1
 86 541 l 1,69,-1
 103 541 l 1,70,-1
 103 592 l 1,71,-1
 86 609 l 1,72,73
 130 609 130 609 171 830 c 1,74,75
 205 830 205 830 205 915 c 2,76,-1
 205 966 l 1,77,-1
 188 966 l 1,63,-1
477 48 m 1,78,-1
 477 31 l 1,79,-1
 494 31 l 1,80,-1
 562 48 l 1,81,-1
 562 65 l 1,82,-1
 528 65 l 1,83,-1
 477 48 l 1,78,-1
EndSplineSet
Validated: 1
EndChar

StartChar: one
Encoding: 49 49 17
Width: 464
GlyphClass: 1
Flags: W
LayerCount: 2
Fore
SplineSet
271 1293 m 1,0,-1
 375 1293 l 1,1,2
 461 1289 461 1289 461 1037 c 2,3,-1
 461 1022 l 1,4,5
 394 957 394 957 383 392 c 1,6,-1
 302 32 l 1,7,-1
 302 -39 l 1,8,9
 234.985507246 -39 234.985507246 -39 234.985507246 -74.9353077085 c 0,10,11
 234.985507246 -75.4637681159 234.985507246 -75.4637681159 235 -76 c 1,12,13
 146 -76 146 -76 80 50 c 1,14,-1
 46 50 l 1,15,-1
 208 824 l 1,16,-1
 208 842 l 1,17,18
 173 873 173 873 154 914 c 1,19,20
 154 946 154 946 69 969 c 1,21,-1
 32 1167 l 1,22,-1
 49 1167 l 1,23,24
 190 1264 190 1264 271 1293 c 1,0,-1
210 663 m 1,25,-1
 211 590 l 1,26,-1
 228 590 l 1,27,-1
 227 663 l 1,28,-1
 210 663 l 1,25,-1
194 536 m 1,29,-1
 178 446 l 1,30,-1
 178 428 l 1,31,-1
 195 428 l 1,32,-1
 211 518 l 1,33,-1
 211 536 l 1,34,-1
 194 536 l 1,29,-1
EndSplineSet
Validated: 1
EndChar

StartChar: two
Encoding: 50 50 18
Width: 978
GlyphClass: 1
Flags: W
LayerCount: 2
Fore
SplineSet
372 1336 m 1,0,-1
 389 1336 l 1,1,-1
 353 1300 l 1,2,-1
 336 1300 l 1,3,-1
 372 1336 l 1,0,-1
587 1336 m 1,4,5
 592 1337 592 1337 587 1334 c 0,6,7
 583 1331 583 1331 583 1329 c 0,8,9
 587 1310 587 1310 715 1282 c 1,10,-1
 716 1300 l 1,11,12
 921 1203 921 1203 970 912 c 0,13,14
 970 911 970 911 970 909 c 0,15,16
 970 893 970 893 969 880 c 2,17,-1
 962 788 l 1,18,19
 897 618 897 618 651 331 c 1,20,-1
 718 331 l 1,21,-1
 717 314 l 1,22,-1
 616 295 l 1,23,-1
 614 258 l 1,24,-1
 630 258 l 1,25,-1
 714 277 l 1,26,-1
 729 258 l 1,27,-1
 730 277 l 1,28,-1
 746 258 l 1,29,-1
 795 258 l 1,30,-1
 813 277 l 1,31,32
 916 253 916 253 956 185 c 1,33,-1
 1005 185 l 1,34,35
 969 -15 969 -15 860 -15 c 0,36,37
 555 -15 555 -15 274 -125 c 1,38,-1
 276 -106 l 1,39,-1
 258 -125 l 1,40,41
 105 -125 105 -125 0 -33 c 1,42,-1
 -50 -33 l 1,43,-1
 -48 -15 l 1,44,45
 39 65 39 65 44 131 c 1,46,-1
 201 258 l 1,47,-1
 185 258 l 1,48,-1
 10 112 l 1,49,-1
 -23 112 l 1,50,-1
 -21 149 l 1,51,52
 176 244 176 244 312 441 c 1,53,-1
 297 460 l 1,54,-1
 313 460 l 1,55,-1
 328 441 l 1,56,-1
 464 496 l 1,57,-1
 449 514 l 1,58,-1
 450 533 l 1,59,60
 570 533 570 533 669 843 c 1,61,-1
 636 843 l 1,62,63
 631 773 631 773 565 738 c 1,64,-1
 564 751 l 1,65,66
 661 905 661 905 661 971 c 0,67,68
 661 972 661 972 661 972 c 0,69,70
 661 1008 661 1008 567 1044 c 1,71,72
 432 1007 432 1007 345 934 c 1,73,-1
 312 934 l 1,74,-1
 247 953 l 1,75,-1
 180 934 l 1,76,77
 116 939 116 939 103 1004 c 0,78,79
 103 1009 103 1009 103 1014 c 0,80,81
 103 1014 103 1014 103 1026 c 1,82,83
 282 1282 282 1282 401 1282 c 1,84,-1
 587 1336 l 1,4,5
234 1245 m 1,85,-1
 250 1245 l 1,86,87
 90 1073 90 1073 87 1026 c 1,88,-1
 54 1026 l 1,89,-1
 56 1062 l 1,90,-1
 234 1245 l 1,85,-1
563 734 m 1,91,-1
 562 719 l 1,92,-1
 508 660 l 1,93,-1
 509 678 l 1,94,-1
 563 734 l 1,91,-1
387 569 m 1,95,-1
 403 569 l 1,96,-1
 401 533 l 1,97,-1
 194 405 l 1,98,-1
 161 405 l 1,99,-1
 387 569 l 1,95,-1
EndSplineSet
Validated: 1
EndChar

StartChar: three
Encoding: 51 51 19
Width: 1074
GlyphClass: 1
Flags: W
LayerCount: 2
Fore
SplineSet
905 1291 m 1,0,1
 973 1265 973 1265 1000 1195 c 1,2,-1
 996 1137 l 1,3,-1
 825 868 l 1,4,-1
 804 810 l 1,5,6
 1053 676 1053 676 1053 500 c 0,7,8
 1053 491 1053 491 1052 482 c 2,9,-1
 1050 443 l 1,10,11
 1029 140 1029 140 783 20 c 1,12,-1
 773 116 l 1,13,-1
 756 116 l 2,14,15
 706 116 706 116 560 -18 c 1,16,-1
 526 -18 l 1,17,-1
 524 -37 l 1,18,-1
 592 -37 l 1,19,-1
 556 -75 l 1,20,-1
 506 -57 l 1,21,-1
 417 -115 l 1,22,-1
 203 -18 l 1,23,-1
 219 -37 l 1,24,-1
 216 -75 l 1,25,-1
 200 -75 l 1,26,27
 134 -32 134 -32 124 58 c 1,28,29
 66 82 66 82 34 232 c 1,30,-1
 120 251 l 1,31,-1
 119 232 l 1,32,-1
 137 251 l 1,33,-1
 154 251 l 1,34,35
 236 154 236 154 515 78 c 1,36,37
 519 124 519 124 711 212 c 1,38,-1
 730 232 l 1,39,-1
 733 270 l 1,40,-1
 679 232 l 1,41,-1
 662 232 l 1,42,-1
 663 251 l 1,43,44
 757 381 757 381 762 443 c 1,45,-1
 696 482 l 1,46,-1
 626 443 l 1,47,-1
 576 463 l 1,48,49
 555 405 555 405 470 405 c 2,50,-1
 436 405 l 2,51,52
 405 405 405 405 405 457 c 0,53,54
 406 470 406 470 408 482 c 1,55,-1
 294 559 l 1,56,57
 280 560 280 560 264 605 c 0,58,59
 263 607 263 607 264 617 c 1,60,61
 438 1021 438 1021 615 1021 c 1,62,-1
 619 1079 l 1,63,-1
 275 1021 l 1,64,-1
 258 1021 l 1,65,-1
 260 1040 l 1,66,-1
 293 1040 l 1,67,-1
 295 1060 l 1,68,69
 102 1064 102 1064 95 1114 c 0,70,71
 95 1115 95 1115 95 1116 c 128,-1,72
 95 1117 95 1117 95 1118 c 2,73,-1
 97 1137 l 1,74,-1
 117 1195 l 1,75,-1
 87 1233 l 1,76,-1
 88 1253 l 1,77,-1
 208 1271 l 1,78,-1
 241 1271 l 1,79,-1
 241 1253 l 1,80,81
 173 1253 173 1253 170 1214 c 1,82,83
 477 1291 477 1291 905 1291 c 1,0,1
461 1002 m 1,84,-1
 459 982 l 1,85,86
 339 849 339 849 286 694 c 1,87,-1
 269 694 l 1,88,-1
 254 713 l 1,89,-1
 255 732 l 1,90,91
 316 883 316 883 461 1002 c 1,84,-1
EndSplineSet
Validated: 1
EndChar

StartChar: four
Encoding: 52 52 20
Width: 1179
GlyphClass: 1
Flags: W
LayerCount: 2
Fore
SplineSet
868 1378 m 1,0,1
 945 1356 945 1356 949 1310 c 1,2,3
 715 1111 715 1111 586 953 c 1,4,-1
 585 936 l 1,5,6
 777 1127 777 1127 961 1242 c 1,7,-1
 974 1174 l 1,8,9
 873 1117 873 1117 758 987 c 1,10,-1
 755 936 l 1,11,-1
 808 970 l 1,12,-1
 876 970 l 1,13,-1
 924 919 l 1,14,-1
 921 868 l 1,15,-1
 903 851 l 1,16,-1
 902 834 l 1,17,-1
 917 817 l 1,18,-1
 934 817 l 1,19,-1
 956 885 l 1,20,-1
 990 885 l 1,21,-1
 1004 834 l 1,22,-1
 981 749 l 1,23,-1
 973 613 l 1,24,-1
 990 613 l 1,25,-1
 1075 630 l 1,26,-1
 1092 613 l 1,27,-1
 1109 630 l 1,28,-1
 1138 545 l 1,29,-1
 1172 545 l 1,30,-1
 1175 579 l 1,31,-1
 1226 579 l 1,32,-1
 1237 494 l 1,33,-1
 1199 426 l 1,34,-1
 1212 375 l 1,35,-1
 1076 375 l 1,36,-1
 1023 324 l 1,37,-1
 973 341 l 1,38,-1
 970 307 l 1,39,-1
 953 307 l 1,40,-1
 938 324 l 1,41,-1
 921 324 l 1,42,-1
 913 205 l 1,43,-1
 917 1 l 1,44,45
 883 1 883 1 879 -67 c 1,46,-1
 860 -84 l 1,47,-1
 843 -84 l 1,48,-1
 849 1 l 1,49,-1
 832 1 l 1,50,51
 823 -135 823 -135 789 -135 c 256,52,53
 755 -135 755 -135 749 35 c 1,54,-1
 732 35 l 1,55,-1
 723 -118 l 1,56,-1
 706 -118 l 2,57,58
 685 -118 685 -118 684 69 c 1,59,-1
 635 120 l 1,60,-1
 658 205 l 1,61,-1
 666 324 l 1,62,-1
 135 273 l 1,63,-1
 20 324 l 1,64,-1
 21 341 l 2,65,66
 26 426 26 426 60 426 c 1,67,68
 55 473 55 473 12 477 c 1,69,-1
 34 562 l 1,70,-1
 17 562 l 1,71,72
 134 761 134 761 290 898 c 1,73,-1
 293 885 l 1,74,-1
 89 630 l 1,75,-1
 89 613 l 1,76,-1
 106 613 l 1,77,78
 149 734 149 734 436 1004 c 1,79,-1
 435 987 l 1,80,-1
 325 851 l 1,81,-1
 342 851 l 1,82,83
 546 1095 546 1095 868 1378 c 1,0,1
695 1327 m 1,84,-1
 694 1310 l 1,85,-1
 585 1208 l 1,86,-1
 587 1225 l 1,87,-1
 695 1327 l 1,84,-1
513 1140 m 1,88,-1
 512 1123 l 1,89,-1
 385 1004 l 1,90,-1
 386 1021 l 1,91,-1
 513 1140 l 1,88,-1
367 987 m 1,92,-1
 366 970 l 1,93,-1
 297 907 l 1,94,-1
 295 919 l 1,95,-1
 367 987 l 1,92,-1
686 919 m 1,96,97
 684 874 684 874 485 698 c 1,98,-1
 412 613 l 1,99,-1
 429 613 l 1,100,101
 619 834 619 834 715 834 c 1,102,-1
 718 885 l 1,103,-1
 686 919 l 1,96,97
736 902 m 1,104,-1
 732 834 l 1,105,-1
 781 817 l 1,106,-1
 784 851 l 1,107,-1
 736 902 l 1,104,-1
479 596 m 1,108,-1
 478 579 l 1,109,-1
 529 579 l 1,110,-1
 700 596 l 1,111,-1
 712 783 l 1,112,113
 513 596 513 596 479 596 c 1,108,-1
728 766 m 1,114,-1
 721 664 l 1,115,-1
 738 664 l 1,116,-1
 745 766 l 1,117,-1
 728 766 l 1,114,-1
EndSplineSet
Validated: 1
EndChar

StartChar: five
Encoding: 53 53 21
Width: 924
GlyphClass: 1
Flags: W
LayerCount: 2
Fore
SplineSet
955 1331 m 1,0,-1
 909 1277 l 1,1,2
 909 1220 909 1220 994 1192 c 1,3,-1
 994 1175 l 1,4,-1
 892 1022 l 1,5,-1
 790 1039 l 1,6,7
 416 1039 416 1039 416 920 c 1,8,-1
 382 784 l 1,9,10
 824 716 824 716 824 546 c 0,11,12
 824 289 824 289 501 -31 c 1,13,-1
 195 -99 l 1,14,-1
 93 -65 l 1,15,-1
 93 -48 l 1,16,17
 202 -48 202 -48 212 2 c 1,18,19
 87 2 87 2 8 121 c 1,20,-1
 25 138 l 1,21,-1
 25 155 l 1,22,-1
 76 138 l 1,23,24
 204 138 204 138 484 393 c 1,25,-1
 501 461 l 1,26,-1
 518 461 l 1,27,-1
 518 427 l 1,28,-1
 535 427 l 1,29,-1
 569 512 l 1,30,-1
 569 529 l 1,31,-1
 552 529 l 1,32,-1
 552 495 l 1,33,-1
 535 495 l 1,34,-1
 501 529 l 1,35,-1
 501 546 l 1,36,37
 382 529 382 529 263 461 c 1,38,-1
 144 512 l 1,39,40
 144 546 144 546 76 546 c 1,41,-1
 76 597 l 1,42,-1
 110 597 l 1,43,-1
 110 563 l 1,44,-1
 127 580 l 1,45,-1
 144 580 l 1,46,-1
 76 699 l 1,47,48
 141 1005 141 1005 178 1005 c 1,49,-1
 178 988 l 1,50,-1
 110 733 l 1,51,52
 173 733 173 733 212 1005 c 1,53,-1
 161 1039 l 1,54,-1
 195 1107 l 1,55,-1
 151 1201 l 1,56,-1
 151 1235 l 1,57,-1
 168 1235 l 1,58,59
 331 1251 331 1251 331 1311 c 1,60,-1
 450 1294 l 1,61,-1
 955 1331 l 1,0,-1
433 1277 m 1,62,-1
 433 1260 l 1,63,-1
 552 1260 l 1,64,-1
 552 1277 l 1,65,-1
 433 1277 l 1,62,-1
586 495 m 1,66,-1
 535 376 l 1,67,-1
 552 376 l 1,68,-1
 603 478 l 1,69,-1
 603 495 l 1,70,-1
 586 495 l 1,66,-1
EndSplineSet
Validated: 1
EndChar

StartChar: six
Encoding: 54 54 22
Width: 1028
GlyphClass: 1
Flags: W
LayerCount: 2
Fore
SplineSet
629 1329 m 1,0,-1
 731 1329 l 2,1,2
 833 1329 833 1329 833 1227 c 1,3,-1
 816 1210 l 1,4,-1
 833 1210 l 1,5,-1
 884 1227 l 1,6,7
 884 1201 884 1201 748 1142 c 1,8,-1
 748 1125 l 1,9,-1
 901 1193 l 1,10,-1
 901 1176 l 1,11,-1
 612 989 l 1,12,-1
 442 734 l 1,13,-1
 459 734 l 1,14,-1
 527 751 l 1,15,16
 787 708 787 708 884 632 c 1,17,-1
 901 632 l 1,18,-1
 901 615 l 1,19,-1
 850 615 l 1,20,-1
 850 598 l 1,21,-1
 1003 530 l 1,22,23
 1003 268 1003 268 663 20 c 1,24,-1
 391 -31 l 1,25,26
 202 -31 202 -31 68 241 c 1,27,28
 68 292 68 292 17 292 c 1,29,-1
 34 377 l 1,30,-1
 34 581 l 1,31,32
 160 1012 160 1012 493 1244 c 1,33,-1
 629 1329 l 1,0,-1
629 1108 m 1,34,35
 343 833 343 833 306 683 c 1,36,-1
 306 666 l 1,37,-1
 323 666 l 1,38,39
 330 726 330 726 646 1108 c 1,40,-1
 629 1108 l 1,34,35
629 496 m 1,41,-1
 629 479 l 1,42,-1
 748 479 l 1,43,-1
 748 496 l 1,44,-1
 629 496 l 1,41,-1
289 326 m 1,45,46
 289 237 289 237 442 207 c 1,47,48
 650 207 650 207 765 411 c 1,49,-1
 765 428 l 1,50,-1
 697 411 l 1,51,-1
 612 445 l 1,52,-1
 612 428 l 1,53,-1
 595 445 l 1,54,-1
 578 445 l 2,55,56
 432 445 432 445 289 326 c 1,45,46
884 411 m 1,57,-1
 901 394 l 1,58,-1
 918 394 l 1,59,-1
 918 445 l 1,60,-1
 884 411 l 1,57,-1
816 309 m 1,61,-1
 782 241 l 1,62,-1
 799 241 l 1,63,-1
 833 292 l 1,64,-1
 833 309 l 1,65,-1
 816 309 l 1,61,-1
EndSplineSet
Validated: 1
EndChar

StartChar: seven
Encoding: 55 55 23
Width: 953
GlyphClass: 1
Flags: W
LayerCount: 2
Fore
SplineSet
865 1304 m 1,0,1
 972 1298 972 1298 995 1109 c 1,2,-1
 825 845 l 1,3,4
 758 684 758 684 714 647 c 1,5,-1
 731 647 l 1,6,-1
 599 415 l 1,7,-1
 616 414 l 1,8,-1
 485 183 l 1,9,-1
 468 184 l 1,10,-1
 470 201 l 1,11,-1
 570 451 l 1,12,-1
 572 468 l 1,13,-1
 555 469 l 1,14,15
 391 177 391 177 245 -229 c 1,16,-1
 175 -242 l 1,17,18
 104 -144 104 -144 99 -33 c 1,19,-1
 508 777 l 1,20,-1
 524 760 l 1,21,-1
 541 759 l 1,22,-1
 525 777 l 1,23,-1
 528 794 l 1,24,25
 587 856 587 856 598 943 c 2,26,-1
 604 994 l 1,27,-1
 534 981 l 1,28,-1
 519 998 l 1,29,-1
 86 954 l 1,30,-1
 56 990 l 1,31,-1
 59 1006 l 1,32,-1
 145 1019 l 1,33,-1
 161 1001 l 1,34,-1
 184 1051 l 1,35,-1
 167 1052 l 1,36,-1
 94 1021 l 1,37,38
 23 1046 23 1046 23 1122 c 0,39,40
 23 1139 23 1139 25 1145 c 0,41,42
 63 1258 63 1258 144 1274 c 1,43,-1
 865 1304 l 1,0,1
362 1246 m 1,44,-1
 360 1229 l 1,45,-1
 394 1226 l 1,46,-1
 566 1235 l 1,47,-1
 581 1217 l 1,48,-1
 701 1227 l 1,49,-1
 704 1244 l 1,50,-1
 551 1252 l 1,51,-1
 362 1246 l 1,44,-1
203 1066 m 1,52,-1
 201 1049 l 1,53,-1
 235 1048 l 1,54,-1
 545 1066 l 1,55,-1
 547 1082 l 1,56,-1
 428 1089 l 1,57,-1
 203 1066 l 1,52,-1
511 658 m 1,58,-1
 462 542 l 1,59,-1
 460 525 l 1,60,-1
 477 524 l 1,61,-1
 525 641 l 1,62,-1
 528 658 l 1,63,-1
 511 658 l 1,58,-1
440 509 m 1,64,-1
 392 392 l 1,65,-1
 375 393 l 1,66,-1
 379 427 l 1,67,-1
 362 428 l 1,68,-1
 358 394 l 1,69,-1
 372 376 l 1,70,-1
 354 361 l 1,71,-1
 371 359 l 1,72,-1
 232 78 l 1,73,-1
 230 61 l 1,74,-1
 247 60 l 1,75,-1
 456 491 l 1,76,-1
 457 508 l 1,77,-1
 440 509 l 1,64,-1
264 -212 m 1,78,-1
 281 -213 l 1,79,-1
 275 -264 l 1,80,-1
 236 -297 l 1,81,-1
 222 -279 l 1,82,-1
 224 -262 l 1,83,84
 256 -255 256 -255 264 -212 c 1,78,-1
EndSplineSet
Validated: 1
EndChar

StartChar: eight
Encoding: 56 56 24
Width: 995
GlyphClass: 1
Flags: W
LayerCount: 2
Fore
SplineSet
619 1332 m 1,0,1
 745 1298 745 1298 752 1259 c 1,2,-1
 564 1223 l 1,3,-1
 581 1204 l 1,4,-1
 581 1186 l 1,5,-1
 683 1223 l 1,6,-1
 717 1223 l 1,7,8
 780 1149 780 1149 852 1149 c 1,9,10
 854 1112 854 1112 917 1058 c 1,11,12
 920 950 920 950 996 838 c 1,13,-1
 995 801 l 1,14,15
 882 655 882 655 838 655 c 1,16,-1
 837 618 l 1,17,-1
 887 545 l 1,18,-1
 869 526 l 1,19,-1
 867 509 l 1,20,21
 942 435 942 435 947 326 c 2,22,-1
 948 306 l 1,23,24
 941 52 941 52 513 -59 c 1,25,-1
 513 -77 l 1,26,-1
 496 -59 l 1,27,-1
 428 -77 l 1,28,29
 124 -77 124 -77 10 197 c 1,30,-1
 13 306 l 1,31,-1
 31 325 l 1,32,-1
 0 453 l 1,33,-1
 159 673 l 1,34,-1
 159 691 l 1,35,-1
 125 691 l 1,36,-1
 127 728 l 1,37,-1
 143 709 l 1,38,-1
 160 709 l 1,39,-1
 161 747 l 1,40,-1
 111 764 l 1,41,-1
 131 911 l 1,42,-1
 115 929 l 1,43,-1
 115 948 l 1,44,45
 121 1172 121 1172 431 1314 c 1,46,-1
 601 1314 l 1,47,-1
 619 1332 l 1,0,1
292 1223 m 1,48,-1
 186 1076 l 1,49,-1
 203 1076 l 1,50,-1
 309 1223 l 1,51,-1
 292 1223 l 1,48,-1
402 874 m 1,52,-1
 419 856 l 1,53,-1
 402 856 l 1,54,55
 418 764 418 764 536 764 c 1,56,57
 740 783 740 783 742 874 c 1,58,59
 682 874 682 874 609 966 c 1,60,-1
 643 966 l 1,61,-1
 793 874 l 1,62,-1
 810 874 l 1,63,64
 706 1076 706 1076 594 1076 c 1,65,66
 429 988 429 988 402 874 c 1,52,-1
557 948 m 1,67,-1
 574 948 l 1,68,-1
 607 911 l 1,69,-1
 590 911 l 1,70,-1
 557 948 l 1,67,-1
876 801 m 1,71,-1
 927 764 l 1,72,-1
 946 856 l 1,73,-1
 929 856 l 1,74,-1
 876 801 l 1,71,-1
722 728 m 1,75,-1
 721 709 l 1,76,-1
 738 709 l 1,77,78
 858 728 858 728 859 764 c 2,79,-1
 859 783 l 1,80,-1
 825 783 l 1,81,-1
 722 728 l 1,75,-1
140 618 m 1,82,83
 35 494 35 494 34 453 c 2,84,-1
 33 435 l 1,85,-1
 50 435 l 1,86,-1
 157 618 l 1,87,-1
 140 618 l 1,82,83
285 288 m 1,88,89
 305 215 305 215 436 215 c 2,90,-1
 453 215 l 2,91,92
 572 215 572 215 661 380 c 1,93,-1
 661 398 l 1,94,-1
 628 435 l 1,95,-1
 458 435 l 1,96,-1
 441 417 l 1,97,-1
 424 435 l 1,98,-1
 407 435 l 1,99,100
 287 398 287 398 285 288 c 1,88,89
607 252 m 1,101,-1
 624 252 l 1,102,-1
 676 306 l 1,103,104
 608 279 608 279 607 252 c 1,101,-1
EndSplineSet
Validated: 1
EndChar

StartChar: nine
Encoding: 57 57 25
Width: 1020
GlyphClass: 1
Flags: W
LayerCount: 2
Fore
SplineSet
471 1341 m 0,0,1
 675 1341 675 1341 803 1205 c 1,2,-1
 802 1188 l 1,3,-1
 768 1188 l 1,4,-1
 928 984 l 1,5,-1
 999 712 l 1,6,7
 983 425 983 425 623 32 c 1,8,9
 372 -171 372 -171 306 -171 c 1,10,-1
 307 -154 l 1,11,-1
 219 -205 l 1,12,-1
 185 -205 l 1,13,-1
 153 -171 l 1,14,-1
 348 -18 l 1,15,-1
 124 -86 l 1,16,-1
 108 -69 l 1,17,-1
 109 -52 l 1,18,-1
 144 -18 l 1,19,-1
 128 -1 l 1,20,-1
 130 32 l 1,21,-1
 374 151 l 1,22,23
 420 151 420 151 519 321 c 1,24,25
 585 360 585 360 645 457 c 1,26,-1
 646 474 l 1,27,-1
 629 474 l 1,28,-1
 577 457 l 1,29,-1
 257 525 l 1,30,-1
 257 508 l 1,31,32
 104 533 104 533 -6 678 c 1,33,-1
 -5 695 l 1,34,-1
 13 712 l 1,35,-1
 13 729 l 1,36,37
 -35 729 -35 729 -35 760 c 2,38,-1
 -35 763 l 1,39,-1
 43 967 l 1,40,41
 223 1341 223 1341 471 1341 c 0,0,1
296 916 m 1,42,-1
 292 865 l 1,43,44
 305 661 305 661 554 661 c 2,45,-1
 571 661 l 2,46,47
 646 661 646 661 710 729 c 1,48,49
 671 967 671 967 553 967 c 2,50,-1
 502 967 l 1,51,-1
 296 916 l 1,42,-1
449 270 m 1,52,-1
 448 253 l 1,53,-1
 375 168 l 1,54,-1
 358 168 l 1,55,-1
 359 185 l 1,56,-1
 449 270 l 1,52,-1
257 185 m 1,57,-1
 273 168 l 1,58,-1
 272 151 l 1,59,-1
 81 66 l 1,60,61
 85 95 85 95 257 185 c 1,57,-1
EndSplineSet
Validated: 1
EndChar

StartChar: colon
Encoding: 58 58 26
Width: 627
GlyphClass: 1
Flags: W
LayerCount: 2
Fore
SplineSet
385 1062 m 1,0,-1
 451 997 l 1,1,-1
 407 978 l 1,2,-1
 444 942 l 1,3,-1
 443 923 l 1,4,-1
 404 923 l 1,5,-1
 403 904 l 1,6,-1
 442 904 l 1,7,-1
 440 887 l 1,8,9
 450 864 450 864 451 835 c 0,10,11
 451 812 451 812 443 793 c 1,12,-1
 390 776 l 1,13,14
 361 783 361 783 342 783 c 0,15,16
 301 782 301 782 301 754 c 0,17,18
 301 735 301 735 318 707 c 1,19,20
 262 651 262 651 214 651 c 0,21,22
 159 651 159 651 107 684 c 1,23,-1
 87 773 l 1,24,25
 76 800 76 800 76 823 c 0,26,27
 76 865 76 865 111 893 c 1,28,-1
 168 884 l 1,29,-1
 136 941 l 1,30,-1
 86 989 l 1,31,32
 91 1065 91 1065 300 1065 c 0,33,34
 340 1065 340 1065 385 1062 c 1,0,-1
385 368 m 1,35,-1
 451 303 l 1,36,-1
 449 284 l 1,37,-1
 486 248 l 1,38,-1
 485 229 l 1,39,-1
 446 229 l 1,40,-1
 445 210 l 1,41,-1
 484 210 l 1,42,-1
 482 193 l 1,43,44
 370 164 370 164 368 128 c 1,45,-1
 407 128 l 1,46,47
 397 -20 397 -20 145 -20 c 1,48,-1
 87 -1 l 1,49,-1
 87 79 l 1,50,51
 117 67 117 67 136 67 c 0,52,53
 157 67 157 67 165 81 c 1,54,-1
 76 128 l 1,55,-1
 136 247 l 1,56,-1
 86 295 l 1,57,58
 91 371 91 371 300 371 c 0,59,60
 340 371 340 371 385 368 c 1,35,-1
EndSplineSet
Validated: 1
EndChar

StartChar: semicolon
Encoding: 59 59 27
AltUni2: 00037e.ffffffff.0 00037e.ffffffff.0
Width: 702
GlyphClass: 1
Flags: W
LayerCount: 2
Fore
SplineSet
385 375 m 1,0,-1
 430 375 l 1,1,2
 476 355 476 355 476 274 c 2,3,-1
 476 269 l 2,4,5
 476 225 476 225 462 163 c 1,6,-1
 467 122 l 1,7,8
 384 -163 384 -163 339 -163 c 1,9,10
 339 -210 339 -210 298 -232 c 1,11,-1
 280 -232 l 1,12,13
 229 -222 229 -222 229 -186 c 0,14,15
 236 -75 236 -75 284 -75 c 1,16,-1
 289 -71 l 1,17,-1
 289 -66 l 1,18,-1
 261 -25 l 1,19,-1
 270 30 l 1,20,-1
 220 12 l 1,21,22
 143 24 143 24 143 35 c 2,23,-1
 138 49 l 1,24,25
 138 173 138 173 193 173 c 1,26,-1
 197 177 l 1,27,-1
 197 182 l 1,28,-1
 165 223 l 1,29,30
 173 347 173 347 220 347 c 1,31,-1
 385 375 l 1,0,-1
316 205 m 1,32,-1
 321 205 l 1,33,-1
 366 214 l 1,34,-1
 366 228 l 1,35,-1
 362 228 l 2,36,37
 339 228 339 228 316 205 c 1,32,-1
203 651 m 0,38,39
 165 651 165 651 107 684 c 1,40,-1
 87 773 l 1,41,42
 76 800 76 800 76 823 c 0,43,44
 76 865 76 865 111 893 c 1,45,-1
 168 884 l 1,46,-1
 136 941 l 1,47,-1
 86 989 l 1,48,49
 91 1065 91 1065 300 1065 c 0,50,51
 340 1065 340 1065 385 1062 c 1,52,-1
 451 997 l 1,53,-1
 407 978 l 1,54,-1
 444 942 l 1,55,-1
 443 923 l 1,56,-1
 404 923 l 1,57,-1
 403 904 l 1,58,-1
 442 904 l 1,59,-1
 440 887 l 1,60,61
 452 855 452 855 452 831 c 0,62,63
 452 809 452 809 443 793 c 1,64,-1
 390 776 l 1,65,66
 365 781 365 781 342 782 c 0,67,68
 299 782 299 782 301 754 c 0,69,70
 302 736 302 736 318 707 c 1,71,72
 276 651 276 651 203 651 c 0,38,39
EndSplineSet
Validated: 1
EndChar

StartChar: less
Encoding: 60 60 28
Width: 1003
GlyphClass: 1
Flags: W
LayerCount: 2
Fore
SplineSet
784 1228 m 0,0,1
 784 1203 784 1203 753 1154 c 1,2,-1
 768 1132 l 1,3,-1
 847 1184 l 1,4,-1
 847 1162 l 1,5,-1
 375 549 l 1,6,-1
 670 251 l 1,7,-1
 677 239 l 1,8,-1
 670 228 l 1,9,-1
 615 248 l 1,10,-1
 609 237 l 1,11,-1
 621 239 l 1,12,-1
 630 228 l 1,13,-1
 630 206 l 1,14,-1
 670 162 l 1,15,-1
 699 120 l 1,16,-1
 741 35 l 1,17,-1
 734 24 l 1,18,19
 565 252 565 252 519 252 c 0,20,21
 518 252 518 252 517 252 c 1,22,-1
 596 162 l 1,23,24
 660 70 660 70 680 22 c 1,25,-1
 646 -12 l 1,26,-1
 360 255 l 1,27,-1
 156 392 l 1,28,-1
 136 425 l 1,29,-1
 143 521 l 1,30,-1
 136 532 l 1,31,-1
 143 545 l 2,32,33
 152 562 152 562 152 578 c 128,-1,34
 152 594 152 594 145 613 c 1,35,-1
 166 647 l 1,36,-1
 218 643 l 1,37,-1
 553 1095 l 1,38,-1
 560 1086 l 1,39,-1
 533 1041 l 1,40,-1
 477 976 l 1,41,-1
 491 953 l 1,42,-1
 477 904 l 1,43,-1
 477 898 l 1,44,-1
 718 1252 l 1,45,46
 733 1229 733 1229 752 1263 c 1,47,-1
 766 1263 l 1,48,-1
 781 1241 l 2,49,50
 784 1237 784 1237 784 1228 c 0,0,1
EndSplineSet
Validated: 1
EndChar

StartChar: equal
Encoding: 61 61 29
Width: 1099
GlyphClass: 1
Flags: W
LayerCount: 2
Fore
SplineSet
626 783 m 4,0,1
 447 783 447 783 317 742 c 1,2,-1
 272 765 l 1,3,4
 244 758 244 758 216 748 c 1,5,-1
 139 750 l 1,6,7
 140 779 140 779 184 802 c 1,8,-1
 178 850 l 1,9,-1
 172 906 l 1,10,-1
 200 943 l 1,11,-1
 282 955 l 2,12,13
 353 965 353 965 444 995 c 1,14,-1
 425 970 l 1,15,-1
 740 965 l 1,16,-1
 842 979 l 1,17,-1
 863 1030 l 1,18,-1
 947 992 l 1,19,-1
 896 774 l 1,20,-1
 870 771 l 1,21,22
 746 783 746 783 626 783 c 4,0,1
656 553 m 1,23,-1
 690 603 l 1,24,-1
 791 617 l 1,25,-1
 823 613 l 1,26,-1
 923 578 l 1,27,-1
 909 380 l 1,28,-1
 883 377 l 1,29,30
 688 395 688 395 544 395 c 0,31,32
 358 394 358 394 260 366 c 1,33,-1
 260 368 l 1,34,35
 234 361 234 361 209 351 c 1,36,-1
 126 352 l 1,37,38
 120 366 120 366 120 379 c 0,39,40
 120 391 120 391 125 402 c 1,41,-1
 119 414 l 1,42,-1
 136 448 l 1,43,-1
 173 487 l 1,44,-1
 141 494 l 1,45,-1
 136 506 l 1,46,47
 184 554 184 554 492 601 c 1,48,-1
 656 553 l 1,23,-1
EndSplineSet
Validated: 1
EndChar

StartChar: greater
Encoding: 62 62 30
Width: 1003
GlyphClass: 1
Flags: W
LayerCount: 2
Fore
SplineSet
464 263 m 0,0,1
 419 263 419 263 249 35 c 1,2,3
 249 35 249 35 242 45 c 1,4,-1
 284 131 l 1,5,-1
 313 173 l 1,6,-1
 354 217 l 1,7,-1
 354 239 l 1,8,-1
 362 249 l 1,9,-1
 374 248 l 1,10,-1
 368 259 l 1,11,-1
 313 239 l 1,12,-1
 306 249 l 1,13,-1
 313 262 l 1,14,-1
 608 559 l 1,15,-1
 136 1173 l 1,16,-1
 136 1195 l 1,17,-1
 215 1143 l 1,18,-1
 230 1165 l 1,19,20
 199 1214 199 1214 199 1235 c 4,21,22
 199 1237 199 1237 199 1238 c 4,23,24
 199 1247 199 1247 203 1252 c 2,25,26
 203 1252 203 1252 218 1273 c 1,27,-1
 231 1273 l 1,28,29
 250 1239 250 1239 265 1263 c 1,30,31
 265 1263 265 1263 506 909 c 1,32,-1
 506 914 l 1,33,-1
 492 963 l 1,34,-1
 506 987 l 1,35,-1
 450 1052 l 1,36,-1
 423 1097 l 1,37,-1
 430 1106 l 1,38,-1
 766 653 l 1,39,-1
 817 657 l 1,40,-1
 838 623 l 1,41,42
 831 604 831 604 831 588 c 0,43,44
 831 570 831 570 840 555 c 2,45,46
 840 555 840 555 847 543 c 1,47,-1
 840 532 l 1,48,-1
 847 436 l 1,49,-1
 827 403 l 1,50,-1
 623 266 l 1,51,-1
 337 -1 l 1,52,-1
 303 33 l 1,53,54
 324 81 324 81 388 173 c 1,55,56
 388 173 388 173 466 263 c 1,57,58
 465 263 465 263 464 263 c 0,0,1
EndSplineSet
Validated: 1
EndChar

StartChar: question
Encoding: 63 63 31
Width: 1371
GlyphClass: 1
Flags: W
LayerCount: 2
Fore
SplineSet
902 1356 m 1,0,1
 1321 1339 1321 1339 1321 1256 c 2,2,-1
 1321 1254 l 1,3,-1
 1317 1203 l 1,4,-1
 1317 914 l 1,5,6
 1122 720 1122 720 772 591 c 1,7,-1
 771 574 l 1,8,-1
 787 557 l 1,9,10
 784 506 784 506 664 489 c 1,11,-1
 663 472 l 1,12,-1
 714 472 l 1,13,-1
 732 489 l 1,14,-1
 748 472 l 1,15,-1
 766 489 l 1,16,-1
 761 421 l 1,17,-1
 624 387 l 1,18,-1
 625 404 l 1,19,-1
 573 387 l 1,20,21
 440 418 440 418 440 454 c 0,22,23
 440 454 440 454 440 455 c 1,24,25
 494 495 494 495 501 625 c 1,26,-1
 574 693 l 1,27,-1
 557 693 l 1,28,-1
 504 659 l 1,29,-1
 506 710 l 1,30,31
 691 880 691 880 789 880 c 1,32,-1
 788 863 l 2,33,34
 786 835 786 835 682 795 c 1,35,-1
 557 710 l 1,36,-1
 591 710 l 1,37,38
 824 771 824 771 1101 982 c 1,39,-1
 1118 982 l 1,40,-1
 1119 1016 l 1,41,-1
 1102 1016 l 1,42,-1
 998 965 l 1,43,-1
 999 999 l 1,44,-1
 1033 999 l 1,45,-1
 1036 1033 l 1,46,-1
 866 1033 l 1,47,-1
 609 1016 l 1,48,49
 605 934 605 934 347 880 c 1,50,-1
 221 761 l 1,51,-1
 204 761 l 1,52,-1
 207 829 l 1,53,-1
 224 829 l 1,54,-1
 240 812 l 1,55,-1
 257 812 l 1,56,-1
 258 829 l 1,57,-1
 243 846 l 1,58,-1
 261 863 l 1,59,-1
 244 863 l 1,60,61
 156 823 156 823 153 761 c 1,62,63
 56 761 56 761 56 838 c 0,64,65
 56 842 56 842 56 846 c 1,66,-1
 92 880 l 1,67,68
 44 880 44 880 44 925 c 2,69,-1
 44 931 l 1,70,-1
 68 1050 l 1,71,-1
 52 1067 l 1,72,73
 93 1101 93 1101 172 1101 c 1,74,75
 185 1313 185 1313 885 1356 c 1,76,-1
 902 1356 l 1,0,1
330 1186 m 1,77,-1
 347 1186 l 1,78,79
 611 1288 611 1288 880 1288 c 0,80,81
 1138 1288 1138 1288 1268 1220 c 1,82,-1
 1270 1254 l 1,83,84
 1124 1305 1124 1305 933 1305 c 2,85,-1
 882 1305 l 2,86,87
 508 1305 508 1305 330 1186 c 1,77,-1
855 1135 m 1,88,-1
 854 1118 l 1,89,-1
 956 1118 l 1,90,-1
 957 1135 l 1,91,-1
 855 1135 l 1,88,-1
974 1135 m 1,92,-1
 973 1118 l 1,93,-1
 1041 1118 l 1,94,-1
 1042 1135 l 1,95,-1
 974 1135 l 1,92,-1
762 1016 m 2,96,-1
 779 1016 l 1,97,-1
 778 999 l 1,98,-1
 710 982 l 1,99,100
 711 1016 711 1016 762 1016 c 2,96,-1
760 676 m 1,101,-1
 759 659 l 1,102,-1
 810 659 l 1,103,104
 969 761 969 761 1020 761 c 1,105,-1
 1021 778 l 1,106,-1
 987 778 l 1,107,-1
 760 676 l 1,101,-1
410 523 m 1,108,-1
 427 523 l 1,109,-1
 388 438 l 1,110,-1
 337 438 l 1,111,-1
 341 489 l 1,112,-1
 410 523 l 1,108,-1
788 285 m 1,113,-1
 803 268 l 1,114,-1
 802 251 l 1,115,-1
 699 234 l 1,116,-1
 699 217 l 1,117,-1
 835 217 l 1,118,-1
 834 200 l 1,119,-1
 800 200 l 1,120,-1
 799 183 l 1,121,-1
 833 183 l 1,122,-1
 831 166 l 1,123,124
 670 29 670 29 669 -4 c 1,125,-1
 703 -4 l 1,126,127
 694 -140 694 -140 473 -140 c 1,128,-1
 423 -123 l 1,129,-1
 427 -72 l 1,130,131
 478 -72 478 -72 479 -38 c 1,132,-1
 414 -4 l 1,133,-1
 455 115 l 1,134,-1
 422 149 l 1,135,136
 427 233 427 233 788 285 c 1,113,-1
EndSplineSet
Validated: 1
EndChar

StartChar: at
Encoding: 64 64 32
Width: 815
GlyphClass: 1
Flags: W
LayerCount: 2
Fore
SplineSet
1093 1044 m 1,0,-1
 1165 1044 l 1,1,-1
 1165 996 l 2,2,3
 1165 930 1165 930 577 876 c 1,4,-1
 565 840 l 1,5,-1
 625 840 l 1,6,-1
 1033 876 l 1,7,-1
 1033 852 l 1,8,9
 949 844 949 844 949 816 c 1,10,-1
 973 816 l 1,11,-1
 1093 828 l 1,12,-1
 1105 816 l 1,13,-1
 1105 804 l 1,14,-1
 697 732 l 1,15,-1
 685 744 l 1,16,-1
 625 732 l 1,17,-1
 613 732 l 1,18,-1
 493 744 l 1,19,-1
 385 732 l 1,20,-1
 373 732 l 1,21,-1
 373 744 l 1,22,-1
 385 756 l 1,23,-1
 385 768 l 1,24,-1
 -131 744 l 1,25,-1
 -131 732 l 1,26,-1
 25 732 l 1,27,-1
 25 708 l 1,28,-1
 13 708 l 1,29,-1
 -767 660 l 1,30,-1
 -815 768 l 1,31,-1
 -791 792 l 1,32,-1
 -815 828 l 1,33,-1
 -815 912 l 1,34,-1
 -791 936 l 1,35,-1
 -755 936 l 2,36,37
 -388 936 -388 936 1093 1044 c 1,0,-1
-71 816 m 1,38,-1
 -71 804 l 1,39,-1
 37 804 l 1,40,-1
 25 816 l 1,41,-1
 25 828 l 1,42,-1
 -71 816 l 1,38,-1
-515 780 m 1,43,-1
 -515 768 l 1,44,-1
 -503 768 l 1,45,-1
 -227 792 l 1,46,-1
 -227 804 l 1,47,-1
 -323 816 l 1,48,-1
 -515 780 l 1,43,-1
-263 732 m 1,49,-1
 -263 720 l 1,50,-1
 -203 720 l 1,51,-1
 -203 732 l 1,52,-1
 -263 732 l 1,49,-1
85 744 m 1,53,-1
 277 744 l 1,54,-1
 277 720 l 1,55,-1
 85 720 l 1,56,-1
 85 744 l 1,53,-1
EndSplineSet
Validated: 1
EndChar

StartChar: A
Encoding: 65 65 33
Width: 1200
GlyphClass: 1
Flags: W
LayerCount: 2
Fore
SplineSet
677 1410 m 1,0,1
 688 1359 688 1359 813 1359 c 1,2,-1
 949 764 l 1,3,-1
 1068 764 l 1,4,-1
 1068 747 l 1,5,-1
 966 730 l 1,6,-1
 966 713 l 1,7,8
 1017 713 1017 713 1017 679 c 1,9,-1
 1153 679 l 1,10,-1
 1153 662 l 2,11,12
 1153 624 1153 624 983 594 c 1,13,-1
 1017 492 l 1,14,-1
 1000 441 l 1,15,-1
 1017 339 l 1,16,-1
 1000 322 l 1,17,-1
 1017 322 l 1,18,-1
 1000 305 l 1,19,-1
 1017 101 l 1,20,-1
 1017 -1 l 1,21,-1
 1000 16 l 1,22,-1
 983 16 l 1,23,-1
 1034 -239 l 1,24,-1
 1000 -239 l 1,25,26
 1000 -188 1000 -188 966 -188 c 1,27,-1
 966 -205 l 1,28,-1
 983 -256 l 1,29,-1
 966 -256 l 1,30,-1
 949 -239 l 1,31,-1
 932 -239 l 1,32,33
 932 -290 932 -290 898 -290 c 1,34,-1
 813 -1 l 1,35,-1
 796 -1 l 1,36,-1
 796 -69 l 1,37,-1
 779 -69 l 1,38,-1
 745 135 l 1,39,-1
 796 101 l 1,40,-1
 796 118 l 1,41,42
 782 271 782 271 745 271 c 1,43,-1
 762 288 l 1,44,-1
 762 339 l 1,45,-1
 728 339 l 1,46,-1
 728 288 l 1,47,-1
 711 288 l 1,48,-1
 711 356 l 1,49,-1
 728 373 l 1,50,-1
 711 373 l 1,51,-1
 694 356 l 1,52,-1
 694 424 l 1,53,-1
 711 424 l 1,54,-1
 728 407 l 1,55,-1
 745 407 l 1,56,-1
 728 424 l 1,57,-1
 728 526 l 1,58,-1
 354 441 l 1,59,-1
 354 407 l 1,60,-1
 473 441 l 1,61,-1
 541 424 l 1,62,-1
 626 441 l 1,63,-1
 626 407 l 1,64,65
 269 343 269 343 269 237 c 1,66,67
 224 50 224 50 167 -1 c 1,68,-1
 167 -35 l 1,69,-1
 116 -35 l 1,70,-1
 99 -18 l 1,71,-1
 82 -18 l 1,72,-1
 82 -35 l 1,73,-1
 31 -1 l 1,74,-1
 65 101 l 1,75,-1
 48 101 l 2,76,77
 -3 101 -3 101 -3 -35 c 1,78,-1
 -37 -1 l 1,79,-1
 -20 101 l 1,80,-1
 -71 152 l 1,81,-1
 218 849 l 1,82,-1
 235 849 l 1,83,84
 235 798 235 798 269 798 c 1,85,-1
 286 883 l 1,86,-1
 269 866 l 1,87,-1
 252 866 l 1,88,-1
 252 934 l 1,89,-1
 269 1019 l 1,90,-1
 286 1002 l 1,91,-1
 303 1002 l 1,92,-1
 286 1019 l 1,93,-1
 286 1036 l 1,94,-1
 320 1104 l 1,95,-1
 337 1104 l 1,96,-1
 354 1087 l 1,97,-1
 371 1087 l 1,98,-1
 371 1104 l 2,99,100
 371 1138 371 1138 320 1138 c 1,101,-1
 405 1376 l 1,102,-1
 473 1376 l 1,103,-1
 456 1359 l 1,104,-1
 456 1342 l 1,105,106
 574 1410 574 1410 677 1410 c 1,0,1
575 1019 m 1,107,-1
 439 662 l 1,108,-1
 473 662 l 2,109,110
 643 662 643 662 660 764 c 1,111,-1
 592 1019 l 1,112,-1
 575 1019 l 1,107,-1
422 917 m 1,113,-1
 388 798 l 1,114,-1
 371 815 l 1,115,-1
 354 815 l 1,116,-1
 371 747 l 1,117,-1
 388 747 l 1,118,-1
 439 900 l 1,119,-1
 439 917 l 1,120,-1
 422 917 l 1,113,-1
235 764 m 1,121,-1
 218 747 l 1,122,-1
 218 713 l 1,123,-1
 235 713 l 1,124,-1
 252 764 l 1,125,-1
 235 764 l 1,121,-1
337 696 m 1,126,-1
 320 628 l 1,127,-1
 337 628 l 1,128,-1
 354 645 l 1,129,-1
 354 696 l 1,130,-1
 337 696 l 1,126,-1
184 679 m 1,131,-1
 167 611 l 1,132,-1
 184 611 l 1,133,-1
 218 679 l 1,134,-1
 184 679 l 1,131,-1
473 628 m 1,135,-1
 473 611 l 1,136,-1
 507 611 l 1,137,138
 660 628 660 628 660 662 c 1,139,-1
 643 662 l 1,140,-1
 473 628 l 1,135,-1
711 254 m 1,141,-1
 745 254 l 1,142,-1
 745 152 l 1,143,-1
 728 152 l 1,144,-1
 711 254 l 1,141,-1
949 135 m 1,145,-1
 949 101 l 1,146,-1
 966 33 l 1,147,-1
 983 33 l 1,148,-1
 983 67 l 1,149,-1
 966 135 l 1,150,-1
 949 135 l 1,145,-1
779 84 m 1,151,-1
 779 50 l 1,152,-1
 830 67 l 1,153,-1
 830 101 l 1,154,-1
 779 84 l 1,151,-1
EndSplineSet
Validated: 1
EndChar

StartChar: B
Encoding: 66 66 34
Width: 1200
GlyphClass: 1
Flags: W
LayerCount: 2
Fore
SplineSet
692 1383 m 1,0,-1
 774 1357 l 1,1,-1
 772 1340 l 1,2,-1
 688 1349 l 1,3,-1
 692 1383 l 1,0,-1
367 1385 m 2,4,-1
 414 1345 l 1,5,-1
 570 1362 l 1,6,-1
 585 1343 l 1,7,-1
 602 1341 l 1,8,-1
 654 1352 l 1,9,10
 940 1322 940 1322 1067 1068 c 1,11,12
 1091 1063 1091 1063 1094 1012 c 0,13,14
 1094 1002 1094 1002 1092 980 c 2,15,-1
 1079 861 l 1,16,-1
 1045 865 l 1,17,-1
 1047 882 l 1,18,-1
 1070 931 l 1,19,-1
 1055 950 l 1,20,-1
 1073 965 l 1,21,-1
 1058 984 l 1,22,-1
 1025 987 l 1,23,24
 1014 890 1014 890 831 786 c 1,25,-1
 829 769 l 1,26,-1
 846 768 l 1,27,28
 852 767 852 767 859 767 c 0,29,30
 924 769 924 769 1025 833 c 1,31,-1
 1022 799 l 1,32,-1
 925 707 l 1,33,34
 1019 697 1019 697 1200 404 c 1,35,36
 1180 218 1180 218 645 20 c 1,37,38
 440 -79 440 -79 319 -79 c 0,39,40
 305 -79 305 -79 292 -78 c 1,41,-1
 262 -39 l 1,42,-1
 245 -38 l 1,43,44
 235 -79 235 -79 172 -81 c 1,45,46
 166 -128 166 -128 138 -128 c 2,47,-1
 132 -128 l 1,48,49
 112 -107 112 -107 112 -6 c 1,50,-1
 95 -5 l 1,51,-1
 69 -87 l 1,52,-1
 52 -85 l 1,53,54
 50 87 50 87 19 88 c 1,55,-1
 10 158 l 1,56,-1
 29 173 l 1,57,-1
 13 192 l 1,58,-1
 178 910 l 1,59,-1
 163 928 l 1,60,-1
 180 926 l 1,61,-1
 165 944 l 1,62,-1
 210 1196 l 1,63,-1
 211 1213 l 1,64,-1
 190 1335 l 1,65,-1
 207 1334 l 1,66,67
 302 1386 302 1386 356 1386 c 0,68,69
 362 1386 362 1386 367 1385 c 2,4,-1
771 1169 m 1,70,-1
 769 1152 l 1,71,-1
 903 1120 l 1,72,73
 906 1154 906 1154 856 1159 c 2,74,-1
 771 1169 l 1,70,-1
444 1003 m 1,75,-1
 449 880 l 1,76,-1
 604 897 l 1,77,-1
 601 863 l 1,78,-1
 852 972 l 1,79,-1
 850 955 l 1,80,-1
 721 867 l 1,81,82
 932 925 932 925 948 1064 c 1,83,-1
 914 1068 l 1,84,85
 903 994 903 994 854 989 c 1,86,-1
 857 1023 l 1,87,-1
 844 1026 l 1,88,-1
 863 1074 l 1,89,-1
 878 1055 l 1,90,-1
 895 1052 l 1,91,-1
 897 1069 l 1,92,93
 835 1128 835 1128 699 1142 c 0,94,95
 659 1146 659 1146 641 1146 c 0,96,97
 460 1144 460 1144 444 1003 c 1,75,-1
838 1022 m 1,98,-1
 839 1007 l 1,99,-1
 801 978 l 1,100,-1
 784 979 l 1,101,-1
 838 1022 l 1,98,-1
762 622 m 1,102,-1
 761 606 l 1,103,-1
 927 570 l 1,104,-1
 944 569 l 1,105,-1
 946 586 l 1,106,-1
 880 610 l 1,107,-1
 762 622 l 1,102,-1
380 562 m 1,108,-1
 329 260 l 1,109,-1
 344 241 l 1,110,-1
 361 239 l 2,111,112
 369 238 369 238 377 238 c 0,113,114
 513 239 513 239 914 452 c 1,115,-1
 952 482 l 1,116,117
 949 551 949 551 824 564 c 2,118,-1
 689 580 l 1,119,-1
 380 562 l 1,108,-1
988 496 m 1,120,-1
 947 431 l 1,121,-1
 1020 474 l 1,122,-1
 1005 493 l 1,123,-1
 988 496 l 1,120,-1
1099 415 m 1,124,125
 1093 362 1093 362 763 161 c 1,126,127
 1139 311 1139 311 1147 392 c 1,128,-1
 1130 394 l 1,129,-1
 1116 413 l 1,130,-1
 1099 415 l 1,124,125
EndSplineSet
Validated: 1
EndChar

StartChar: C
Encoding: 67 67 35
Width: 1024
GlyphClass: 1
Flags: W
LayerCount: 2
Fore
SplineSet
611 1309 m 1,0,-1
 628 1309 l 2,1,2
 875 1309 875 1309 1002 1105 c 1,3,-1
 1002 1088 l 1,4,-1
 968 1088 l 1,5,-1
 985 1071 l 1,6,-1
 985 1054 l 1,7,8
 883 1066 883 1066 883 1088 c 1,9,10
 486 1088 486 1088 288 680 c 1,11,-1
 254 561 l 1,12,-1
 305 238 l 1,13,-1
 356 238 l 2,14,15
 568 238 568 238 832 544 c 1,16,-1
 849 544 l 1,17,-1
 849 527 l 1,18,19
 668 266 668 266 441 221 c 1,20,-1
 441 204 l 1,21,-1
 458 204 l 2,22,23
 636 204 636 204 900 510 c 1,24,-1
 951 442 l 1,25,-1
 951 391 l 2,26,27
 951 336 951 336 696 136 c 1,28,-1
 679 119 l 1,29,-1
 662 119 l 1,30,-1
 662 85 l 1,31,32
 951 226 951 226 951 289 c 1,33,-1
 985 289 l 1,34,-1
 985 272 l 1,35,36
 771 17 771 17 492 17 c 1,37,-1
 492 0 l 1,38,-1
 577 0 l 1,39,-1
 645 17 l 1,40,-1
 662 17 l 1,41,-1
 662 0 l 1,42,-1
 458 -33 l 1,43,44
 329 -33 329 -33 186 153 c 1,45,-1
 186 136 l 1,46,-1
 271 0 l 1,47,-1
 271 -16 l 1,48,-1
 220 -16 l 1,49,50
 62 92 62 92 33 255 c 1,51,-1
 16 476 l 1,52,53
 16 900 16 900 184 1016 c 1,54,-1
 186 1003 l 1,55,-1
 118 887 l 1,56,-1
 118 858 l 1,57,-1
 126 864 l 1,58,59
 126 995 126 995 526 1275 c 1,60,-1
 475 1258 l 1,61,-1
 458 1258 l 1,62,-1
 458 1275 l 1,63,-1
 611 1309 l 1,0,-1
424 1241 m 1,64,-1
 441 1241 l 1,65,-1
 441 1224 l 1,66,-1
 322 1173 l 1,67,68
 322 1207 322 1207 424 1241 c 1,64,-1
271 1122 m 1,69,-1
 271 1105 l 1,70,-1
 187 1025 l 1,71,-1
 186 1037 l 1,72,-1
 271 1122 l 1,69,-1
67 306 m 1,73,-1
 67 255 l 1,74,-1
 84 187 l 1,75,-1
 101 187 l 1,76,-1
 101 204 l 1,77,-1
 84 306 l 1,78,-1
 67 306 l 1,73,-1
EndSplineSet
Validated: 1
EndChar

StartChar: D
Encoding: 68 68 36
Width: 1141
GlyphClass: 1
Flags: W
LayerCount: 2
Fore
SplineSet
251 1337 m 1,0,-1
 319 1337 l 1,1,-1
 370 1303 l 1,2,-1
 489 1320 l 1,3,4
 784 1320 784 1320 1033 980 c 1,5,-1
 1118 810 l 1,6,-1
 1101 793 l 1,7,-1
 1118 708 l 1,8,-1
 1118 623 l 2,9,10
 1118 186 1118 186 404 -40 c 1,11,-1
 234 -57 l 1,12,13
 234 -14 234 -14 166 -6 c 1,14,-1
 166 -74 l 1,15,-1
 115 -74 l 1,16,-1
 115 28 l 1,17,-1
 98 45 l 1,18,-1
 115 62 l 1,19,-1
 115 79 l 1,20,21
 13 149 13 149 13 198 c 0,22,23
 64 968 64 968 183 1320 c 1,24,-1
 200 1320 l 1,25,-1
 217 1303 l 1,26,-1
 251 1337 l 1,0,-1
183 1167 m 1,27,-1
 98 674 l 1,28,-1
 98 657 l 1,29,-1
 115 657 l 1,30,-1
 200 1133 l 1,31,-1
 200 1167 l 1,32,-1
 183 1167 l 1,27,-1
455 1048 m 1,33,34
 455 1014 455 1014 387 1014 c 1,35,36
 319 704 319 704 285 300 c 1,37,38
 384 300 384 300 795 470 c 1,39,-1
 795 487 l 1,40,-1
 761 487 l 1,41,42
 897 626 897 626 897 776 c 2,43,-1
 897 827 l 2,44,45
 897 1014 897 1014 642 1048 c 1,46,-1
 455 1048 l 1,33,34
795 1048 m 1,47,-1
 795 1031 l 1,48,-1
 863 997 l 1,49,-1
 863 1014 l 1,50,-1
 812 1048 l 1,51,-1
 795 1048 l 1,47,-1
948 810 m 1,52,-1
 931 606 l 1,53,-1
 965 606 l 1,54,-1
 965 657 l 1,55,-1
 982 725 l 1,56,-1
 965 810 l 1,57,-1
 948 810 l 1,52,-1
1067 674 m 1,58,-1
 982 402 l 1,59,-1
 982 385 l 1,60,-1
 999 385 l 1,61,-1
 1084 640 l 1,62,-1
 1084 674 l 1,63,-1
 1067 674 l 1,58,-1
897 555 m 1,64,-1
 863 487 l 1,65,-1
 880 487 l 1,66,-1
 914 555 l 1,67,-1
 897 555 l 1,64,-1
795 249 m 1,68,69
 835 255 835 255 914 351 c 1,70,-1
 914 368 l 1,71,-1
 795 249 l 1,68,69
404 147 m 1,72,-1
 404 130 l 1,73,-1
 472 130 l 1,74,-1
 557 164 l 1,75,-1
 557 181 l 1,76,-1
 540 181 l 1,77,-1
 404 147 l 1,72,-1
268 130 m 1,78,-1
 285 79 l 1,79,-1
 319 79 l 1,80,-1
 353 113 l 1,81,-1
 353 130 l 1,82,-1
 336 130 l 1,83,-1
 285 113 l 1,84,-1
 268 130 l 1,78,-1
81 28 m 1,85,-1
 98 28 l 1,86,-1
 98 11 l 1,87,-1
 64 -23 l 1,88,-1
 47 -23 l 1,89,-1
 47 -6 l 1,90,-1
 81 28 l 1,85,-1
EndSplineSet
Validated: 1
EndChar

StartChar: E
Encoding: 69 69 37
Width: 1028
GlyphClass: 1
Flags: W
LayerCount: 2
Fore
SplineSet
941 1332 m 1,0,-1
 1023 1275 l 1,1,2
 986 1136 986 1136 893 1130 c 1,3,-1
 449 1110 l 1,4,-1
 447 1076 l 1,5,-1
 531 1070 l 1,6,-1
 634 1080 l 1,7,-1
 650 1061 l 1,8,-1
 667 1060 l 1,9,-1
 787 1070 l 1,10,-1
 821 1067 l 1,11,-1
 820 1050 l 1,12,-1
 425 1009 l 1,13,-1
 394 789 l 1,14,-1
 411 788 l 1,15,-1
 873 825 l 1,16,-1
 888 807 l 1,17,-1
 887 790 l 1,18,-1
 853 793 l 1,19,-1
 853 776 l 1,20,-1
 970 750 l 1,21,-1
 969 733 l 1,22,23
 932 638 932 638 481 579 c 1,24,-1
 310 573 l 1,25,-1
 326 556 l 1,26,-1
 244 340 l 1,27,-1
 227 340 l 1,28,-1
 237 493 l 1,29,-1
 220 494 l 1,30,-1
 187 258 l 1,31,32
 609 314 609 314 826 314 c 0,33,34
 869 314 869 314 906 312 c 1,35,-1
 989 289 l 1,36,-1
 988 255 l 1,37,-1
 954 257 l 1,38,-1
 969 239 l 1,39,-1
 966 188 l 1,40,41
 910 134 910 134 758 134 c 1,42,-1
 757 117 l 1,43,-1
 893 108 l 1,44,-1
 890 74 l 1,45,-1
 99 -42 l 1,46,-1
 82 -41 l 1,47,48
 0 -23 0 -23 0 12 c 2,49,-1
 0 15 l 1,50,-1
 3 66 l 1,51,-1
 50 250 l 1,52,-1
 34 268 l 1,53,-1
 68 267 l 1,54,-1
 62 182 l 1,55,-1
 79 180 l 1,56,57
 88 259 88 259 119 262 c 1,58,-1
 103 281 l 1,59,-1
 115 450 l 1,60,-1
 81 453 l 1,61,-1
 58 369 l 1,62,-1
 77 385 l 1,63,-1
 94 384 l 1,64,-1
 87 282 l 1,65,-1
 70 284 l 1,66,-1
 73 334 l 1,67,-1
 56 335 l 1,68,-1
 54 301 l 1,69,-1
 37 302 l 1,70,-1
 39 336 l 1,71,-1
 93 623 l 1,72,-1
 76 624 l 1,73,-1
 115 706 l 1,74,-1
 99 724 l 1,75,-1
 100 741 l 1,76,-1
 137 1028 l 1,77,-1
 153 1010 l 1,78,-1
 170 1009 l 1,79,-1
 172 1043 l 1,80,-1
 161 1129 l 1,81,-1
 188 1281 l 1,82,-1
 191 1332 l 1,83,-1
 208 1330 l 1,84,-1
 224 1312 l 1,85,-1
 242 1328 l 1,86,-1
 259 1326 l 1,87,-1
 275 1309 l 1,88,-1
 293 1325 l 1,89,-1
 344 1321 l 1,90,-1
 941 1332 l 1,0,-1
90 589 m 1,91,-1
 82 470 l 1,92,-1
 99 469 l 1,93,-1
 107 587 l 1,94,-1
 90 589 l 1,91,-1
651 567 m 1,95,-1
 668 567 l 1,96,-1
 666 550 l 1,97,-1
 358 519 l 1,98,-1
 342 538 l 1,99,-1
 343 554 l 1,100,-1
 497 561 l 1,101,-1
 496 544 l 1,102,-1
 651 567 l 1,95,-1
EndSplineSet
Validated: 1
EndChar

StartChar: F
Encoding: 70 70 38
Width: 966
GlyphClass: 1
Flags: W
LayerCount: 2
Fore
SplineSet
661 1385 m 1,0,-1
 659 1351 l 1,1,-1
 608 1351 l 1,2,-1
 607 1334 l 1,3,-1
 624 1334 l 1,4,-1
 948 1351 l 1,5,-1
 1016 1351 l 1,6,-1
 1015 1334 l 1,7,-1
 980 1300 l 1,8,-1
 996 1283 l 1,9,-1
 995 1249 l 2,10,11
 992 1161 992 1161 940 1147 c 1,12,-1
 956 1096 l 1,13,-1
 936 1045 l 1,14,-1
 920 1062 l 1,15,-1
 903 1062 l 1,16,17
 665 1050 665 1050 664 1028 c 1,18,-1
 647 1045 l 1,19,20
 357 999 357 999 352 875 c 2,21,-1
 347 739 l 1,22,-1
 756 773 l 1,23,-1
 773 756 l 1,24,-1
 772 739 l 1,25,-1
 687 739 l 1,26,-1
 686 722 l 1,27,28
 769 720 769 720 769 688 c 2,29,-1
 769 671 l 2,30,31
 769 586 769 586 732 586 c 2,32,-1
 630 586 l 1,33,-1
 629 569 l 1,34,-1
 748 569 l 1,35,-1
 747 535 l 2,36,37
 746 506 746 506 317 416 c 1,38,-1
 293 229 l 1,39,-1
 310 212 l 1,40,-1
 310 195 l 1,41,-1
 292 178 l 1,42,-1
 291 161 l 1,43,-1
 306 110 l 1,44,-1
 289 110 l 1,45,-1
 304 59 l 1,46,47
 302 -14 302 -14 185 -205 c 1,48,-1
 49 -188 l 1,49,-1
 72 -18 l 1,50,51
 7 -18 7 -18 7 45 c 2,52,-1
 7 50 l 1,53,54
 33 93 33 93 69 586 c 1,55,-1
 103 586 l 1,56,-1
 87 603 l 1,57,-1
 109 739 l 1,58,-1
 125 722 l 1,59,-1
 142 722 l 1,60,-1
 166 892 l 1,61,-1
 169 960 l 1,62,63
 84 960 84 960 84 994 c 1,64,-1
 120 1045 l 1,65,66
 55 1058 55 1058 55 1100 c 0,67,68
 55 1249 55 1249 111 1249 c 0,69,70
 196 1249 196 1249 199 1334 c 1,71,-1
 216 1334 l 1,72,-1
 232 1317 l 1,73,-1
 268 1351 l 1,74,-1
 319 1351 l 1,75,-1
 368 1300 l 1,76,-1
 661 1385 l 1,0,-1
708 1300 m 1,77,-1
 707 1283 l 1,78,-1
 758 1283 l 1,79,-1
 946 1300 l 1,80,-1
 946 1317 l 1,81,-1
 844 1317 l 1,82,-1
 708 1300 l 1,77,-1
548 1113 m 1,83,-1
 548 1096 l 1,84,-1
 565 1096 l 1,85,-1
 905 1130 l 1,86,-1
 906 1147 l 1,87,-1
 856 1164 l 1,88,-1
 838 1147 l 1,89,-1
 821 1147 l 1,90,-1
 805 1164 l 1,91,-1
 548 1113 l 1,83,-1
97 433 m 1,92,-1
 90 246 l 1,93,-1
 107 246 l 1,94,-1
 114 433 l 1,95,-1
 97 433 l 1,92,-1
122 -52 m 1,96,-1
 119 -120 l 1,97,-1
 136 -120 l 1,98,-1
 139 -52 l 1,99,-1
 122 -52 l 1,96,-1
EndSplineSet
Validated: 1
EndChar

StartChar: G
Encoding: 71 71 39
Width: 1229
GlyphClass: 1
Flags: W
LayerCount: 2
Fore
SplineSet
725 1304 m 1,0,-1
 740 1287 l 1,1,-1
 757 1287 l 1,2,-1
 759 1304 l 1,3,4
 1021 1230 1021 1230 1026 1100 c 1,5,-1
 1048 998 l 1,6,-1
 1014 998 l 1,7,8
 1011 1066 1011 1066 987 1066 c 2,9,-1
 970 1066 l 1,10,-1
 979 981 l 1,11,-1
 976 964 l 1,12,-1
 942 964 l 2,13,14
 908 964 908 964 914 1015 c 1,15,-1
 895 998 l 1,16,-1
 878 998 l 1,17,18
 793 1066 793 1066 715 1066 c 0,19,20
 545 1066 545 1066 320 709 c 1,21,-1
 266 522 l 1,22,23
 272 294 272 294 452 199 c 1,24,-1
 448 165 l 1,25,-1
 414 165 l 1,26,-1
 412 148 l 1,27,-1
 446 148 l 2,28,29
 567 148 567 148 802 454 c 1,30,-1
 804 471 l 1,31,-1
 787 471 l 1,32,33
 652 308 652 308 540 233 c 1,34,-1
 527 235 l 1,35,-1
 734 454 l 1,36,-1
 615 454 l 1,37,38
 619 488 619 488 568 488 c 1,39,-1
 553 505 l 1,40,-1
 555 522 l 2,41,42
 559 556 559 556 730 573 c 1,43,-1
 734 607 l 1,44,-1
 715 590 l 1,45,-1
 613 590 l 1,46,-1
 524 709 l 1,47,-1
 543 726 l 1,48,-1
 544 743 l 1,49,-1
 730 726 l 1,50,-1
 1177 777 l 1,51,-1
 1179 794 l 1,52,53
 1100 796 1100 796 1098 828 c 1,54,-1
 1115 828 l 1,55,-1
 1130 811 l 1,56,-1
 1149 828 l 1,57,-1
 1166 828 l 1,58,59
 1343 778 1343 778 1343 744 c 0,60,61
 1343 743 1343 743 1343 743 c 2,62,-1
 1342 726 l 1,63,-1
 1323 709 l 1,64,-1
 1321 692 l 1,65,-1
 1389 692 l 1,66,-1
 1385 658 l 1,67,-1
 1368 658 l 1,68,-1
 1093 624 l 1,69,-1
 1091 607 l 1,70,-1
 1108 607 l 1,71,-1
 1263 624 l 1,72,-1
 1259 590 l 1,73,74
 1089 590 1089 590 1074 454 c 1,75,-1
 993 182 l 1,76,-1
 1009 165 l 1,77,-1
 1007 148 l 1,78,-1
 980 63 l 1,79,-1
 983 -73 l 1,80,-1
 946 -107 l 1,81,-1
 960 -124 l 1,82,83
 890 -146 890 -146 884 -209 c 1,84,-1
 833 -209 l 2,85,86
 820 -209 820 -209 815 -56 c 1,87,-1
 798 -56 l 1,88,-1
 785 -175 l 1,89,-1
 734 -175 l 1,90,-1
 743 -90 l 1,91,-1
 739 29 l 1,92,-1
 705 29 l 1,93,94
 608 -39 608 -39 510 -39 c 2,95,-1
 425 -39 l 1,96,-1
 396 -5 l 1,97,-1
 397 12 l 1,98,-1
 431 12 l 1,99,-1
 433 29 l 1,100,101
 80 29 80 29 51 267 c 1,102,103
 31 377 31 377 31 487 c 0,104,105
 31 533 31 533 39 624 c 2,106,-1
 42 658 l 2,107,108
 52 777 52 777 164 998 c 1,109,-1
 178 995 l 1,110,-1
 177 964 l 1,111,-1
 113 845 l 1,112,-1
 112 828 l 1,113,-1
 129 828 l 1,114,115
 146 983 146 983 460 1219 c 1,116,-1
 477 1219 l 1,117,-1
 479 1236 l 1,118,-1
 462 1236 l 1,119,-1
 409 1219 l 1,120,121
 459 1304 459 1304 725 1304 c 1,0,-1
374 1202 m 1,122,-1
 391 1202 l 1,123,-1
 262 1088 l 1,124,-1
 261 1100 l 1,125,-1
 374 1202 l 1,122,-1
624 1168 m 1,126,-1
 623 1151 l 1,127,-1
 742 1151 l 1,128,-1
 743 1168 l 1,129,-1
 624 1168 l 1,126,-1
257 1081 m 1,130,-1
 256 1066 l 1,131,-1
 184 1003 l 1,132,-1
 183 1015 l 1,133,-1
 257 1081 l 1,130,-1
1011 811 m 1,134,-1
 1079 811 l 1,135,-1
 1041 777 l 1,136,-1
 1011 811 l 1,134,-1
506 233 m 1,137,-1
 519 231 l 1,138,-1
 486 199 l 1,139,-1
 469 199 l 1,140,-1
 506 233 l 1,137,-1
589 63 m 1,141,-1
 733 131 l 1,142,-1
 737 165 l 1,143,-1
 720 165 l 1,144,-1
 589 63 l 1,141,-1
465 12 m 1,145,-1
 464 -5 l 1,146,-1
 549 -5 l 1,147,-1
 550 12 l 1,148,-1
 465 12 l 1,145,-1
EndSplineSet
Validated: 1
EndChar

StartChar: H
Encoding: 72 72 40
Width: 1124
GlyphClass: 1
Flags: W
LayerCount: 2
Fore
SplineSet
224 1342 m 1,0,-1
 241 1342 l 1,1,-1
 241 1291 l 1,2,-1
 258 1291 l 1,3,-1
 258 1325 l 1,4,-1
 326 1325 l 2,5,6
 360 1325 360 1325 360 1223 c 1,7,-1
 411 1206 l 1,8,9
 411 1257 411 1257 445 1257 c 1,10,-1
 462 1240 l 1,11,-1
 462 1223 l 1,12,-1
 377 764 l 1,13,-1
 632 781 l 1,14,-1
 802 781 l 1,15,-1
 819 866 l 1,16,-1
 802 883 l 1,17,-1
 836 883 l 1,18,-1
 819 1002 l 1,19,-1
 819 1019 l 1,20,-1
 853 1019 l 1,21,-1
 836 1036 l 1,22,-1
 836 1070 l 1,23,-1
 870 1070 l 1,24,-1
 870 1104 l 1,25,-1
 836 1104 l 1,26,-1
 836 1121 l 1,27,-1
 870 1121 l 1,28,-1
 853 1138 l 1,29,-1
 853 1257 l 1,30,-1
 870 1240 l 1,31,-1
 887 1240 l 1,32,-1
 887 1308 l 1,33,-1
 870 1325 l 1,34,-1
 870 1342 l 1,35,-1
 921 1342 l 1,36,-1
 836 764 l 1,37,38
 870 764 870 764 938 1325 c 1,39,-1
 1006 1342 l 1,40,41
 1023 1206 1023 1206 1057 1206 c 2,42,-1
 1074 1206 l 1,43,44
 1074 1257 1074 1257 1108 1257 c 2,45,-1
 1125 1257 l 1,46,47
 1040 669 1040 669 870 -120 c 1,48,-1
 853 -120 l 1,49,-1
 836 -103 l 1,50,-1
 853 -86 l 1,51,-1
 853 50 l 1,52,-1
 836 50 l 1,53,-1
 785 -120 l 1,54,-1
 734 -120 l 2,55,56
 700 -120 700 -120 700 -18 c 1,57,-1
 683 -18 l 1,58,-1
 683 -86 l 1,59,-1
 666 -86 l 2,60,61
 632 -86 632 -86 632 -35 c 0,62,63
 632 88 632 88 734 543 c 1,64,-1
 717 543 l 1,65,-1
 496 526 l 1,66,-1
 343 543 l 1,67,68
 292 135 292 135 241 -1 c 1,69,-1
 190 -1 l 2,70,71
 156 -1 156 -1 156 135 c 1,72,-1
 139 135 l 1,73,-1
 122 16 l 1,74,-1
 88 50 l 1,75,-1
 88 101 l 1,76,-1
 105 118 l 1,77,-1
 105 135 l 1,78,-1
 88 152 l 1,79,-1
 71 152 l 1,80,-1
 54 135 l 1,81,-1
 37 135 l 1,82,-1
 20 203 l 1,83,84
 88 777 88 777 173 1036 c 1,85,-1
 190 1036 l 1,86,-1
 173 1053 l 1,87,-1
 173 1104 l 1,88,-1
 224 1291 l 1,89,-1
 207 1291 l 1,90,-1
 224 1342 l 1,0,-1
241 1274 m 1,91,-1
 241 1155 l 1,92,-1
 258 1155 l 1,93,-1
 258 1274 l 1,94,-1
 241 1274 l 1,91,-1
224 1138 m 1,95,-1
 207 1002 l 1,96,-1
 207 968 l 1,97,-1
 224 968 l 1,98,-1
 241 1104 l 1,99,-1
 241 1138 l 1,100,-1
 224 1138 l 1,95,-1
190 951 m 1,101,-1
 190 883 l 1,102,-1
 207 883 l 1,103,-1
 207 951 l 1,104,-1
 190 951 l 1,101,-1
173 866 m 1,105,-1
 156 781 l 1,106,-1
 156 764 l 1,107,-1
 173 764 l 1,108,-1
 190 832 l 1,109,-1
 190 866 l 1,110,-1
 173 866 l 1,105,-1
139 696 m 1,111,-1
 139 628 l 1,112,-1
 156 628 l 1,113,-1
 156 696 l 1,114,-1
 139 696 l 1,111,-1
785 526 m 1,115,-1
 768 424 l 1,116,-1
 768 407 l 1,117,-1
 785 407 l 1,118,-1
 802 492 l 1,119,-1
 802 526 l 1,120,-1
 785 526 l 1,115,-1
751 390 m 1,121,-1
 751 322 l 1,122,-1
 768 322 l 1,123,-1
 768 390 l 1,124,-1
 751 390 l 1,121,-1
870 203 m 1,125,-1
 853 118 l 1,126,-1
 853 67 l 1,127,-1
 870 67 l 1,128,-1
 887 186 l 1,129,-1
 887 203 l 1,130,-1
 870 203 l 1,125,-1
37 118 m 1,131,-1
 54 118 l 1,132,-1
 54 33 l 1,133,-1
 37 33 l 1,134,-1
 37 118 l 1,131,-1
EndSplineSet
Validated: 1
EndChar

StartChar: I
Encoding: 73 73 41
Width: 481
GlyphClass: 1
Flags: W
LayerCount: 2
Fore
SplineSet
385 1326 m 1,0,1
 386 1279 386 1279 449 1275 c 1,2,-1
 480 1207 l 1,3,-1
 462 1190 l 1,4,-1
 479 1190 l 1,5,6
 357 830 357 830 330 357 c 2,7,-1
 324 255 l 1,8,-1
 341 238 l 1,9,-1
 340 221 l 1,10,-1
 322 204 l 1,11,-1
 339 204 l 1,12,-1
 321 187 l 1,13,-1
 331 68 l 1,14,-1
 329 34 l 1,15,16
 238 -76 238 -76 234 -136 c 1,17,-1
 166 -136 l 1,18,-1
 84 -102 l 1,19,-1
 108 17 l 1,20,-1
 43 85 l 1,21,-1
 74 340 l 1,22,-1
 91 646 l 1,23,-1
 128 697 l 1,24,-1
 132 765 l 1,25,-1
 116 782 l 1,26,-1
 117 799 l 1,27,-1
 151 799 l 1,28,-1
 152 816 l 1,29,-1
 136 833 l 1,30,-1
 205 1156 l 1,31,-1
 188 1156 l 1,32,-1
 206 1173 l 1,33,-1
 211 1275 l 1,34,-1
 195 1292 l 1,35,-1
 196 1309 l 1,36,-1
 385 1326 l 1,0,1
197 1020 m 1,37,-1
 191 901 l 1,38,-1
 208 901 l 1,39,-1
 214 1020 l 1,40,-1
 197 1020 l 1,37,-1
171 850 m 1,41,-1
 165 748 l 1,42,-1
 182 748 l 1,43,-1
 188 850 l 1,44,-1
 171 850 l 1,41,-1
145 697 m 1,45,-1
 140 595 l 1,46,-1
 157 595 l 1,47,-1
 162 697 l 1,48,-1
 145 697 l 1,45,-1
142 17 m 1,49,-1
 137 -68 l 1,50,-1
 172 -34 l 1,51,-1
 176 17 l 1,52,-1
 142 17 l 1,49,-1
EndSplineSet
Validated: 1
EndChar

StartChar: J
Encoding: 74 74 42
Width: 940
GlyphClass: 1
Flags: W
LayerCount: 2
Fore
SplineSet
823 1362 m 1,0,-1
 823 1277 l 1,1,-1
 874 1277 l 1,2,-1
 874 1328 l 1,3,-1
 942 1328 l 1,4,5
 778 -64 778 -64 598 -64 c 1,6,7
 598 -98 598 -98 428 -149 c 1,8,-1
 411 -132 l 1,9,-1
 394 -132 l 1,10,-1
 309 -149 l 1,11,-1
 292 -132 l 1,12,-1
 292 -149 l 1,13,14
 122 -149 122 -149 122 4 c 1,15,-1
 3 55 l 1,16,-1
 3 106 l 1,17,-1
 20 89 l 1,18,-1
 71 89 l 1,19,-1
 71 106 l 1,20,21
 63 327 63 327 37 327 c 1,22,-1
 71 429 l 1,23,24
 117 429 117 429 173 480 c 1,25,-1
 241 480 l 1,26,-1
 258 378 l 1,27,-1
 292 378 l 1,28,-1
 292 412 l 1,29,-1
 275 429 l 1,30,-1
 275 446 l 1,31,-1
 292 463 l 1,32,-1
 326 463 l 1,33,34
 326 412 326 412 377 412 c 1,35,-1
 360 293 l 1,36,-1
 360 242 l 1,37,38
 371 140 371 140 411 140 c 1,39,-1
 462 293 l 1,40,-1
 479 276 l 1,41,-1
 513 276 l 2,42,43
 589 276 589 276 704 1243 c 1,44,-1
 721 1345 l 1,45,-1
 738 1362 l 1,46,-1
 823 1362 l 1,0,-1
530 565 m 1,47,-1
 547 565 l 1,48,-1
 547 497 l 1,49,-1
 530 497 l 1,50,-1
 530 565 l 1,47,-1
513 480 m 1,51,-1
 530 480 l 1,52,53
 530 429 530 429 564 429 c 1,54,55
 564 395 564 395 513 395 c 1,56,-1
 530 378 l 1,57,-1
 530 361 l 1,58,-1
 496 327 l 1,59,-1
 513 327 l 1,60,-1
 530 344 l 1,61,-1
 530 310 l 1,62,-1
 479 293 l 1,63,-1
 479 310 l 1,64,-1
 513 480 l 1,51,-1
71 412 m 1,65,-1
 71 327 l 1,66,-1
 88 327 l 1,67,-1
 88 412 l 1,68,-1
 71 412 l 1,65,-1
EndSplineSet
Validated: 1
EndChar

StartChar: K
Encoding: 75 75 43
Width: 1103
GlyphClass: 1
Flags: W
LayerCount: 2
Fore
SplineSet
989 1386 m 1,0,-1
 1006 1369 l 1,1,-1
 1006 1352 l 1,2,-1
 989 1335 l 1,3,-1
 972 1352 l 1,4,-1
 955 1352 l 1,5,-1
 802 1250 l 1,6,-1
 788 1253 l 1,7,8
 788 1296 788 1296 989 1386 c 1,0,-1
326 1352 m 1,9,-1
 343 1199 l 1,10,11
 377 1199 377 1199 394 1301 c 1,12,-1
 411 1301 l 1,13,-1
 428 1233 l 1,14,-1
 377 961 l 1,15,-1
 564 1097 l 1,16,-1
 578 1097 l 1,17,-1
 377 910 l 1,18,-1
 377 893 l 1,19,-1
 768 1182 l 1,20,-1
 785 1165 l 1,21,22
 1014 1352 1014 1352 1091 1352 c 2,23,-1
 1108 1352 l 1,24,-1
 1125 1284 l 1,25,-1
 989 1148 l 1,26,-1
 1006 1148 l 1,27,28
 1040 1216 1040 1216 1108 1216 c 1,29,-1
 1125 1199 l 1,30,-1
 1125 1216 l 1,31,-1
 1108 1233 l 1,32,-1
 1125 1250 l 1,33,-1
 1176 1250 l 1,34,-1
 1193 1199 l 1,35,36
 1065 1139 1065 1139 598 757 c 1,37,38
 713 506 713 506 1006 77 c 1,39,-1
 1006 43 l 1,40,-1
 989 -76 l 1,41,-1
 972 -59 l 1,42,-1
 955 -59 l 1,43,-1
 938 -127 l 1,44,-1
 870 -127 l 1,45,-1
 870 -93 l 1,46,-1
 853 -93 l 1,47,-1
 853 -127 l 1,48,-1
 819 -127 l 1,49,50
 819 -67 819 -67 445 502 c 1,51,-1
 411 604 l 1,52,-1
 326 587 l 1,53,54
 304 178 304 178 219 77 c 1,55,-1
 219 60 l 1,56,-1
 49 77 l 1,57,-1
 49 128 l 1,58,-1
 66 247 l 1,59,60
 15 247 15 247 15 349 c 1,61,62
 43 519 43 519 71 519 c 1,63,-1
 54 536 l 1,64,65
 105 1004 105 1004 156 1097 c 1,66,-1
 139 1148 l 1,67,-1
 190 1284 l 1,68,-1
 190 1301 l 1,69,-1
 173 1318 l 1,70,-1
 173 1335 l 1,71,-1
 207 1335 l 1,72,-1
 207 1216 l 1,73,-1
 224 1216 l 1,74,-1
 241 1267 l 1,75,-1
 224 1284 l 1,76,-1
 224 1301 l 1,77,78
 241 1352 241 1352 326 1352 c 1,9,-1
768 1250 m 1,79,-1
 781 1250 l 1,80,-1
 717 1182 l 1,81,-1
 704 1182 l 1,82,-1
 768 1250 l 1,79,-1
190 1165 m 1,83,-1
 173 1063 l 1,84,-1
 173 995 l 1,85,-1
 190 995 l 1,86,-1
 207 1148 l 1,87,-1
 207 1165 l 1,88,-1
 190 1165 l 1,83,-1
683 1182 m 1,89,-1
 700 1182 l 1,90,-1
 598 1097 l 1,91,-1
 583 1097 l 1,92,-1
 683 1182 l 1,89,-1
904 1114 m 1,93,-1
 836 1063 l 1,94,-1
 819 1046 l 1,95,-1
 819 1029 l 1,96,-1
 836 1029 l 1,97,-1
 904 1080 l 1,98,-1
 921 1097 l 1,99,-1
 921 1114 l 1,100,-1
 904 1114 l 1,93,-1
615 145 m 1,101,-1
 632 145 l 1,102,-1
 679 94 l 1,103,-1
 666 94 l 1,104,-1
 615 145 l 1,101,-1
683 94 m 1,105,106
 726 94 726 94 768 -76 c 1,107,-1
 768 -93 l 1,108,-1
 751 -93 l 1,109,-1
 683 94 l 1,105,106
EndSplineSet
Validated: 1
EndChar

StartChar: L
Encoding: 76 76 44
Width: 1062
GlyphClass: 1
Flags: W
LayerCount: 2
Fore
SplineSet
262 1342 m 2,0,1
 296 1342 296 1342 296 1240 c 1,2,-1
 330 1240 l 1,3,-1
 381 1274 l 1,4,-1
 398 1257 l 1,5,-1
 313 305 l 1,6,7
 421 356 421 356 891 424 c 1,8,-1
 908 424 l 1,9,-1
 908 407 l 1,10,11
 313 310 313 310 313 254 c 1,12,-1
 500 305 l 1,13,-1
 500 288 l 1,14,-1
 823 356 l 1,15,-1
 823 339 l 1,16,-1
 840 356 l 1,17,-1
 857 356 l 1,18,-1
 874 339 l 1,19,-1
 959 356 l 1,20,-1
 1027 356 l 1,21,-1
 1146 339 l 1,22,-1
 1146 322 l 2,23,24
 1146 271 1146 271 891 237 c 1,25,-1
 891 220 l 1,26,-1
 908 237 l 1,27,-1
 925 237 l 1,28,-1
 1044 220 l 1,29,-1
 1061 237 l 1,30,-1
 1061 186 l 1,31,-1
 500 50 l 1,32,-1
 143 -86 l 1,33,-1
 92 -86 l 1,34,-1
 24 -1 l 1,35,-1
 7 -1 l 1,36,-1
 7 16 l 2,37,38
 7 59 7 59 75 67 c 1,39,-1
 75 118 l 1,40,-1
 24 186 l 1,41,-1
 92 951 l 1,42,-1
 109 951 l 1,43,-1
 109 883 l 1,44,-1
 92 764 l 1,45,-1
 126 764 l 1,46,-1
 92 543 l 1,47,-1
 109 526 l 1,48,-1
 92 458 l 1,49,-1
 92 373 l 1,50,-1
 109 373 l 1,51,-1
 177 1274 l 1,52,53
 211 1274 211 1274 211 1325 c 1,54,-1
 228 1342 l 1,55,-1
 262 1342 l 2,0,1
EndSplineSet
Validated: 1
EndChar

StartChar: M
Encoding: 77 77 45
Width: 1212
GlyphClass: 1
Flags: W
LayerCount: 2
Fore
SplineSet
901 1356 m 1,0,-1
 935 1356 l 1,1,-1
 932 1322 l 1,2,-1
 892 1254 l 1,3,-1
 877 1271 l 1,4,-1
 860 1271 l 1,5,-1
 901 1356 l 1,0,-1
271 1339 m 1,6,-1
 305 1339 l 1,7,-1
 353 1305 l 1,8,-1
 354 1322 l 1,9,10
 445 1305 445 1305 483 1237 c 1,11,12
 542 1237 542 1237 605 880 c 1,13,-1
 840 1237 l 1,14,-1
 858 1254 l 1,15,-1
 875 1254 l 1,16,-1
 874 1237 l 1,17,-1
 633 812 l 1,18,-1
 667 812 l 1,19,20
 934 1339 934 1339 985 1339 c 1,21,-1
 1033 1305 l 1,22,-1
 1034 1322 l 1,23,24
 1107 1322 1107 1322 1207 1152 c 1,25,-1
 1202 1101 l 1,26,-1
 1184 1084 l 1,27,-1
 1199 1067 l 1,28,-1
 1193 999 l 1,29,-1
 1159 999 l 1,30,-1
 1184 897 l 1,31,-1
 1151 710 l 1,32,-1
 1146 659 l 1,33,-1
 1162 642 l 1,34,-1
 1160 625 l 1,35,-1
 1124 591 l 1,36,-1
 1154 557 l 1,37,-1
 1118 523 l 1,38,-1
 1148 489 l 1,39,-1
 1130 472 l 1,40,-1
 1113 472 l 1,41,-1
 1129 455 l 1,42,-1
 1087 -21 l 1,43,44
 1036 -21 1036 -21 1032 -72 c 1,45,46
 981 -72 981 -72 973 -157 c 1,47,-1
 922 -157 l 1,48,-1
 826 -89 l 1,49,-1
 852 13 l 1,50,-1
 827 115 l 1,51,-1
 942 846 l 1,52,53
 857 757 857 757 756 472 c 1,54,55
 747 373 747 373 676 336 c 1,56,-1
 659 336 l 1,57,-1
 660 353 l 1,58,-1
 679 370 l 1,59,-1
 681 387 l 1,60,-1
 665 404 l 1,61,-1
 702 438 l 1,62,-1
 706 489 l 1,63,-1
 672 489 l 1,64,65
 665 396 665 396 592 353 c 1,66,-1
 575 353 l 1,67,-1
 498 438 l 1,68,69
 453 438 453 438 444 591 c 1,70,71
 365 772 365 772 364 846 c 1,72,-1
 347 846 l 1,73,-1
 312 642 l 1,74,-1
 300 506 l 1,75,-1
 279 455 l 1,76,-1
 288 370 l 1,77,-1
 256 -4 l 1,78,79
 222 -4 222 -4 217 -55 c 1,80,-1
 125 -140 l 1,81,-1
 108 -140 l 1,82,-1
 -7 -89 l 1,83,-1
 18 -4 l 1,84,-1
 17 183 l 1,85,-1
 24 268 l 1,86,-1
 42 285 l 1,87,-1
 27 302 l 1,88,-1
 29 319 l 1,89,90
 52 579 52 579 129 880 c 1,91,-1
 146 880 l 1,92,-1
 130 897 l 1,93,-1
 132 914 l 1,94,-1
 155 982 l 1,95,-1
 143 1050 l 1,96,-1
 145 1067 l 1,97,-1
 162 1067 l 1,98,-1
 159 1033 l 1,99,-1
 176 1033 l 1,100,-1
 181 1084 l 1,101,-1
 165 1101 l 1,102,-1
 227 1220 l 1,103,-1
 231 1271 l 1,104,-1
 212 1254 l 1,105,-1
 195 1254 l 1,106,-1
 180 1271 l 1,107,-1
 184 1322 l 1,108,-1
 201 1322 l 1,109,-1
 217 1305 l 1,110,-1
 234 1305 l 1,111,-1
 271 1339 l 1,6,-1
697 574 m 1,112,-1
 710 523 l 1,113,-1
 727 523 l 1,114,115
 734 614 734 614 937 982 c 1,116,-1
 961 1067 l 1,117,118
 834 909 834 909 697 574 c 1,112,-1
1000 931 m 1,119,-1
 982 914 l 1,120,-1
 944 489 l 1,121,-1
 961 489 l 1,122,-1
 1010 846 l 1,123,-1
 994 863 l 1,124,-1
 1011 863 l 1,125,-1
 996 880 l 1,126,-1
 997 897 l 1,127,-1
 1016 914 l 1,128,-1
 1017 931 l 1,129,-1
 1000 931 l 1,119,-1
889 47 m 1,130,-1
 877 -89 l 1,131,-1
 894 -89 l 1,132,-1
 919 -4 l 1,133,-1
 906 47 l 1,134,-1
 889 47 l 1,130,-1
EndSplineSet
Validated: 1
EndChar

StartChar: N
Encoding: 78 78 46
Width: 1283
GlyphClass: 1
Flags: W
LayerCount: 2
Fore
SplineSet
346 1324 m 1,0,-1
 465 1222 l 1,1,2
 465 1273 465 1273 499 1273 c 2,3,-1
 516 1273 l 1,4,-1
 754 661 l 1,5,-1
 753 627 l 1,6,-1
 737 627 l 1,7,-1
 703 729 l 1,8,-1
 686 729 l 1,9,-1
 686 695 l 1,10,-1
 805 406 l 1,11,-1
 822 406 l 1,12,13
 890 848 890 848 1018 1329 c 1,14,-1
 1069 1295 l 1,15,-1
 1120 1312 l 1,16,-1
 1222 1261 l 1,17,-1
 1222 1244 l 1,18,19
 1171 1244 1171 1244 1171 1176 c 1,20,-1
 1188 1176 l 1,21,-1
 1205 1159 l 1,22,-1
 1222 1159 l 1,23,-1
 1239 1244 l 1,24,-1
 1273 1244 l 1,25,-1
 1273 1227 l 1,26,-1
 1256 1210 l 1,27,-1
 1273 1193 l 1,28,-1
 1273 1176 l 1,29,30
 1145 783 1145 783 1043 49 c 1,31,-1
 1009 49 l 1,32,-1
 1043 321 l 1,33,34
 1009 321 1009 321 941 -2 c 1,35,36
 878 -53 878 -53 822 -53 c 1,37,-1
 822 -87 l 1,38,-1
 805 -87 l 1,39,40
 805 -53 805 -53 737 -53 c 1,41,-1
 737 66 l 2,42,43
 737 143 737 143 397 916 c 1,44,-1
 380 916 l 1,45,46
 312 613 312 613 261 100 c 1,47,-1
 244 117 l 1,48,49
 142 87 142 87 142 32 c 1,50,-1
 108 32 l 1,51,52
 74 96 74 96 74 253 c 1,53,-1
 57 253 l 1,54,-1
 57 100 l 1,55,-1
 23 100 l 1,56,-1
 6 185 l 1,57,58
 6 647 6 647 210 1307 c 1,59,-1
 346 1324 l 1,0,-1
108 899 m 1,60,-1
 108 882 l 1,61,-1
 125 865 l 1,62,-1
 108 848 l 1,63,-1
 108 814 l 1,64,-1
 125 814 l 1,65,-1
 142 882 l 1,66,-1
 125 899 l 1,67,-1
 108 899 l 1,60,-1
754 627 m 1,68,69
 798 627 798 627 822 491 c 1,70,-1
 822 474 l 1,71,-1
 805 474 l 1,72,-1
 754 627 l 1,68,69
EndSplineSet
Validated: 1
EndChar

StartChar: O
Encoding: 79 79 47
Width: 1250
GlyphClass: 1
Flags: W
LayerCount: 2
Fore
SplineSet
762 1337 m 1,0,1
 962 1337 962 1337 1136 1218 c 1,2,-1
 1119 1201 l 1,3,-1
 1119 1184 l 1,4,-1
 1187 1082 l 1,5,-1
 1153 1082 l 1,6,-1
 1136 1099 l 1,7,-1
 1119 1099 l 1,8,-1
 1170 725 l 1,9,-1
 1187 725 l 1,10,11
 1187 810 1187 810 1221 810 c 1,12,-1
 1221 742 l 2,13,14
 1221 646 1221 646 1051 300 c 1,15,-1
 1068 300 l 1,16,17
 948 135 948 135 711 -6 c 1,18,-1
 626 -23 l 1,19,-1
 609 -23 l 2,20,21
 205 -23 205 -23 99 300 c 1,22,-1
 31 402 l 1,23,-1
 48 419 l 1,24,-1
 31 538 l 1,25,-1
 31 572 l 2,26,27
 31 713 31 713 303 1065 c 1,28,-1
 303 1048 l 1,29,30
 178 880 178 880 99 674 c 1,31,-1
 99 657 l 1,32,-1
 116 657 l 1,33,34
 178 906 178 906 575 1286 c 1,35,-1
 456 1218 l 1,36,-1
 439 1218 l 1,37,38
 439 1296 439 1296 762 1337 c 1,0,1
677 1048 m 1,39,-1
 660 1065 l 1,40,-1
 660 1048 l 1,41,-1
 677 1031 l 1,42,-1
 558 929 l 1,43,44
 417 929 417 929 286 453 c 1,45,46
 286 317 286 317 439 215 c 1,47,-1
 456 215 l 2,48,49
 642 215 642 215 881 606 c 1,50,51
 966 792 966 792 966 878 c 2,52,-1
 966 1014 l 2,53,54
 966 1061 966 1061 796 1082 c 1,55,-1
 779 1082 l 1,56,-1
 762 1065 l 1,57,-1
 745 1065 l 1,58,-1
 745 1082 l 1,59,-1
 677 1048 l 1,39,-1
1170 997 m 1,60,-1
 1204 997 l 1,61,-1
 1204 912 l 1,62,-1
 1170 912 l 1,63,-1
 1170 997 l 1,60,-1
303 810 m 1,64,-1
 252 708 l 1,65,-1
 269 708 l 1,66,-1
 320 810 l 1,67,-1
 303 810 l 1,64,-1
966 708 m 1,68,-1
 898 538 l 1,69,-1
 949 538 l 1,70,-1
 1000 657 l 1,71,-1
 983 708 l 1,72,-1
 966 708 l 1,68,-1
1085 640 m 1,73,-1
 1068 589 l 1,74,-1
 1068 555 l 1,75,-1
 1085 555 l 1,76,-1
 1102 623 l 1,77,-1
 1102 640 l 1,78,-1
 1085 640 l 1,73,-1
82 572 m 1,79,-1
 82 436 l 1,80,-1
 99 436 l 1,81,-1
 99 572 l 1,82,-1
 82 572 l 1,79,-1
881 521 m 1,83,-1
 813 436 l 1,84,-1
 830 436 l 1,85,-1
 898 521 l 1,86,-1
 881 521 l 1,83,-1
337 147 m 1,87,-1
 337 130 l 1,88,-1
 422 79 l 1,89,-1
 422 96 l 1,90,-1
 337 147 l 1,87,-1
EndSplineSet
Validated: 1
EndChar

StartChar: P
Encoding: 80 80 48
Width: 1016
GlyphClass: 1
Flags: W
LayerCount: 2
Fore
SplineSet
205 1401 m 1,0,-1
 221 1384 l 1,1,-1
 221 1367 l 1,2,-1
 238 1384 l 1,3,-1
 323 1384 l 2,4,5
 351 1384 351 1384 355 1299 c 1,6,-1
 372 1299 l 1,7,8
 376 1350 376 1350 406 1350 c 256,9,10
 434 1350 434 1350 440 1299 c 1,11,-1
 560 1316 l 1,12,-1
 742 1282 l 1,13,-1
 810 1299 l 1,14,15
 940 1299 940 1299 1010 1163 c 1,16,-1
 992 1044 l 1,17,-1
 1008 1027 l 1,18,-1
 1008 1010 l 1,19,-1
 971 908 l 1,20,-1
 954 908 l 1,21,-1
 955 942 l 1,22,-1
 938 942 l 1,23,24
 806 622 806 622 566 500 c 1,25,-1
 290 381 l 1,26,-1
 281 92 l 1,27,-1
 295 7 l 1,28,29
 261 7 261 7 204 -163 c 1,30,-1
 187 -180 l 1,31,-1
 170 -180 l 1,32,-1
 36 -112 l 1,33,-1
 58 24 l 1,34,-1
 9 92 l 1,35,-1
 51 330 l 1,36,-1
 34 347 l 1,37,-1
 96 670 l 1,38,-1
 79 687 l 1,39,-1
 97 704 l 1,40,-1
 131 704 l 1,41,-1
 129 636 l 1,42,-1
 146 636 l 1,43,-1
 149 721 l 1,44,-1
 134 772 l 1,45,-1
 168 772 l 1,46,-1
 170 857 l 1,47,-1
 137 891 l 1,48,-1
 135 823 l 1,49,-1
 118 823 l 1,50,51
 114 932 114 932 22 993 c 1,52,-1
 8 1095 l 1,53,-1
 11 1163 l 1,54,55
 233 1254 233 1254 235 1282 c 2,56,-1
 236 1299 l 1,57,-1
 203 1333 l 1,58,-1
 186 1316 l 1,59,-1
 170 1384 l 1,60,-1
 188 1401 l 1,61,-1
 205 1401 l 1,0,-1
353 738 m 1,62,-1
 387 738 l 1,63,64
 606 830 606 830 771 1044 c 1,65,-1
 720 1044 l 1,66,67
 379 1021 379 1021 377 942 c 1,68,-1
 353 738 l 1,62,-1
786 976 m 1,69,70
 732 880 732 880 351 687 c 1,71,-1
 334 670 l 1,72,-1
 334 653 l 1,73,-1
 368 653 l 1,74,75
 619 730 619 730 803 976 c 1,76,-1
 786 976 l 1,69,70
95 619 m 1,77,-1
 94 602 l 1,78,-1
 110 585 l 1,79,-1
 93 568 l 1,80,-1
 91 534 l 1,81,-1
 125 534 l 1,82,-1
 129 619 l 1,83,-1
 95 619 l 1,77,-1
EndSplineSet
Validated: 1
EndChar

StartChar: Q
Encoding: 81 81 49
Width: 1212
GlyphClass: 1
Flags: W
LayerCount: 2
Fore
SplineSet
723 1346 m 1,0,-1
 740 1346 l 1,1,-1
 757 1329 l 1,2,-1
 774 1346 l 1,3,-1
 791 1346 l 1,4,5
 1182 1166 1182 1166 1182 904 c 2,6,-1
 1182 785 l 2,7,8
 1182 423 1182 423 944 139 c 1,9,-1
 944 105 l 1,10,11
 1034 44 1034 44 1114 -82 c 1,12,-1
 1114 -99 l 1,13,14
 1002 -269 1002 -269 961 -269 c 0,15,16
 856 -269 856 -269 740 -48 c 1,17,-1
 621 -65 l 1,18,-1
 519 -65 l 1,19,-1
 417 -48 l 1,20,-1
 400 -48 l 1,21,-1
 400 -65 l 1,22,-1
 485 -82 l 1,23,-1
 485 -99 l 1,24,-1
 383 -116 l 1,25,26
 26 63 26 63 26 309 c 0,27,28
 26 800 26 800 298 1057 c 1,29,-1
 298 1074 l 1,30,31
 479 1295 479 1295 553 1295 c 1,32,-1
 553 1278 l 1,33,-1
 570 1261 l 1,34,-1
 723 1329 l 1,35,-1
 723 1346 l 1,0,-1
689 1159 m 1,36,-1
 740 1142 l 1,37,-1
 876 1176 l 1,38,-1
 876 1193 l 1,39,-1
 808 1193 l 1,40,-1
 791 1176 l 1,41,-1
 774 1176 l 1,42,-1
 774 1193 l 1,43,-1
 791 1210 l 1,44,-1
 791 1227 l 1,45,-1
 757 1227 l 1,46,47
 701 1210 701 1210 689 1159 c 1,36,-1
842 1142 m 1,48,-1
 825 1125 l 1,49,-1
 825 1108 l 1,50,-1
 927 1091 l 1,51,-1
 927 1125 l 1,52,-1
 842 1142 l 1,48,-1
264 428 m 2,53,-1
 264 394 l 2,54,55
 264 249 264 249 366 173 c 1,56,-1
 417 173 l 2,57,58
 515 173 515 173 621 292 c 1,59,-1
 553 462 l 1,60,-1
 570 479 l 1,61,-1
 604 479 l 1,62,-1
 604 445 l 1,63,-1
 621 462 l 1,64,-1
 638 462 l 1,65,-1
 757 428 l 1,66,67
 927 694 927 694 927 904 c 2,68,-1
 927 989 l 1,69,70
 884 1074 884 1074 791 1074 c 0,71,72
 634 1074 634 1074 383 751 c 1,73,74
 264 530 264 530 264 428 c 2,53,-1
1097 921 m 1,75,76
 1097 686 1097 686 1046 479 c 1,77,-1
 1046 462 l 1,78,-1
 1063 462 l 1,79,-1
 1131 819 l 1,80,-1
 1114 921 l 1,81,-1
 1097 921 l 1,75,76
961 904 m 1,82,83
 961 807 961 807 893 598 c 1,84,85
 978 626 978 626 978 853 c 2,86,-1
 978 904 l 1,87,-1
 961 904 l 1,82,83
876 513 m 1,88,89
 774 407 774 407 774 360 c 1,90,91
 828 384 828 384 893 513 c 1,92,-1
 876 513 l 1,88,89
893 241 m 1,93,-1
 893 224 l 1,94,-1
 910 224 l 1,95,-1
 1029 394 l 1,96,-1
 1029 411 l 1,97,98
 944 343 944 343 893 241 c 1,93,-1
60 326 m 1,99,-1
 77 224 l 1,100,-1
 94 224 l 1,101,-1
 94 309 l 1,102,-1
 77 326 l 1,103,-1
 60 326 l 1,99,-1
196 156 m 1,104,-1
 196 139 l 2,105,106
 196 56 196 56 383 -48 c 1,107,-1
 383 -31 l 1,108,109
 229 66 229 66 213 156 c 1,110,-1
 196 156 l 1,104,-1
EndSplineSet
Validated: 1
EndChar

StartChar: R
Encoding: 82 82 50
Width: 1016
GlyphClass: 1
Flags: W
LayerCount: 2
Fore
SplineSet
296 202 m 1,0,1
 296 107 296 107 276 80 c 1,2,3
 246 55 246 55 246 31 c 1,4,5
 246 12 246 12 259 -2 c 1,6,7
 259 -2 259 -2 259 -36 c 1,8,-1
 208 -36 l 2,9,10
 174 -36 174 -36 174 32 c 1,11,12
 157 32 157 32 157 32 c 1,13,14
 148 -15 148 -15 93 -19 c 1,15,16
 93 -19 93 -19 18 81 c 1,17,-1
 38 236 l 1,18,-1
 38 304 l 1,19,-1
 140 780 l 1,20,-1
 157 777 l 1,21,-1
 157 712 l 1,22,-1
 174 712 l 1,23,-1
 259 1069 l 1,24,25
 225 1069 225 1069 225 1001 c 1,26,27
 225 1001 225 1001 209 1003 c 1,28,-1
 208 1035 l 1,29,-1
 106 1035 l 1,30,-1
 106 1052 l 2,31,32
 106 1086 106 1086 208 1103 c 1,33,34
 208 1103 208 1103 208 1120 c 1,35,-1
 174 1120 l 1,36,-1
 72 1086 l 1,37,-1
 55 1086 l 1,38,39
 55 1120 55 1120 123 1120 c 1,40,41
 123 1137 123 1137 123 1137 c 1,42,43
 55 1137 55 1137 55 1188 c 1,44,45
 55 1188 55 1188 361 1341 c 1,46,-1
 565 1341 l 1,47,48
 922 1274 922 1274 922 1035 c 2,49,50
 922 1035 922 1035 922 933 c 1,51,-1
 752 695 l 1,52,-1
 769 695 l 1,53,-1
 936 846 l 1,54,-1
 939 814 l 1,55,56
 852 620 852 620 718 559 c 1,57,58
 718 559 718 559 616 525 c 1,59,-1
 616 457 l 1,60,61
 653 457 653 457 973 15 c 1,62,63
 1041 -13 1041 -13 1109 -121 c 1,64,65
 1109 -121 1109 -121 1109 -138 c 1,66,-1
 1024 -70 l 1,67,-1
 1024 -87 l 1,68,69
 1109 -177 1109 -177 1109 -223 c 1,70,71
 1109 -223 1109 -223 1092 -223 c 1,72,-1
 1007 -274 l 1,73,-1
 990 -274 l 1,74,-1
 956 -223 l 1,75,-1
 939 -240 l 1,76,-1
 922 -240 l 1,77,78
 582 38 582 38 446 321 c 1,79,80
 361 491 361 491 361 491 c 1,81,82
 301 491 301 491 293 287 c 1,83,84
 296 239 296 239 296 202 c 1,0,1
378 729 m 1,85,-1
 395 729 l 1,86,87
 662 857 662 857 769 1001 c 1,88,-1
 769 1035 l 2,89,90
 769 1093 769 1093 565 1154 c 1,91,-1
 463 1120 l 1,92,-1
 378 729 l 1,85,-1
718 1154 m 1,93,94
 752 1077 752 1077 786 1069 c 1,95,-1
 786 1103 l 1,96,-1
 718 1154 l 1,93,94
820 1052 m 1,97,-1
 803 967 l 1,98,-1
 820 967 l 1,99,-1
 837 984 l 1,100,-1
 837 1052 l 1,101,-1
 820 1052 l 1,97,-1
191 1001 m 1,102,-1
 208 1001 l 1,103,-1
 208 950 l 1,104,-1
 191 882 l 1,105,-1
 174 882 l 1,106,-1
 174 933 l 1,107,-1
 191 1001 l 1,102,-1
769 933 m 1,108,-1
 684 814 l 1,109,-1
 701 814 l 1,110,-1
 786 916 l 1,111,-1
 786 933 l 1,112,-1
 769 933 l 1,108,-1
939 899 m 1,113,-1
 973 899 l 1,114,-1
 956 848 l 1,115,-1
 939 848 l 1,116,-1
 939 899 l 1,113,-1
157 848 m 1,117,-1
 174 848 l 1,118,-1
 174 780 l 1,119,-1
 157 780 l 1,120,-1
 157 848 l 1,117,-1
123 627 m 1,121,-1
 123 559 l 1,122,-1
 140 559 l 1,123,-1
 140 627 l 1,124,-1
 123 627 l 1,121,-1
633 117 m 1,125,-1
 633 100 l 1,126,-1
 701 32 l 1,127,128
 668 109 668 109 633 117 c 1,125,-1
718 -2 m 1,129,-1
 718 -19 l 1,130,-1
 786 -70 l 1,131,-1
 786 -53 l 1,132,-1
 718 -2 l 1,129,-1
EndSplineSet
Validated: 1
EndChar

StartChar: S
Encoding: 83 83 51
Width: 986
GlyphClass: 1
Flags: W
LayerCount: 2
Fore
SplineSet
546 1357 m 1,0,1
 591 1323 591 1323 832 1323 c 1,2,-1
 831 1306 l 1,3,-1
 712 1306 l 1,4,-1
 711 1289 l 1,5,6
 924 1289 924 1289 977 1187 c 1,7,-1
 975 1153 l 1,8,-1
 890 1153 l 1,9,-1
 889 1136 l 1,10,-1
 1007 1119 l 1,11,-1
 1006 1102 l 1,12,-1
 904 1102 l 1,13,-1
 903 1085 l 1,14,15
 954 1085 954 1085 952 1051 c 1,16,17
 649 1051 649 1051 411 830 c 1,18,-1
 410 813 l 1,19,20
 739 725 739 725 931 422 c 1,21,-1
 930 405 l 1,22,23
 868 185 868 185 583 -3 c 1,24,-1
 479 -20 l 1,25,-1
 478 -37 l 1,26,-1
 512 -37 l 1,27,28
 510 -83 510 -83 200 -139 c 1,29,-1
 202 -105 l 1,30,-1
 287 -105 l 1,31,-1
 289 -88 l 1,32,33
 180 -88 180 -88 92 31 c 1,34,35
 16 70 16 70 16 180 c 0,36,37
 16 190 16 190 17 201 c 1,38,-1
 70 235 l 1,39,-1
 119 201 l 1,40,-1
 153 201 l 1,41,42
 633 276 633 276 648 507 c 1,43,44
 447 609 447 609 382 609 c 1,45,-1
 381 592 l 1,46,-1
 214 660 l 1,47,-1
 230 643 l 1,48,-1
 229 609 l 1,49,50
 23 765 23 765 22 847 c 1,51,-1
 155 1085 l 1,52,-1
 244 1153 l 1,53,-1
 242 1119 l 1,54,-1
 546 1357 l 1,0,1
314 898 m 1,55,-1
 313 881 l 1,56,-1
 613 1068 l 1,57,-1
 751 1102 l 1,58,-1
 753 1136 l 1,59,-1
 719 1136 l 1,60,61
 450 1036 450 1036 314 898 c 1,55,-1
408 201 m 1,62,-1
 425 201 l 1,63,-1
 461 235 l 1,64,-1
 444 235 l 1,65,-1
 408 201 l 1,62,-1
714 201 m 1,66,-1
 641 116 l 1,67,-1
 658 116 l 1,68,-1
 731 201 l 1,69,-1
 714 201 l 1,66,-1
501 65 m 1,70,-1
 501 48 l 1,71,-1
 518 48 l 1,72,-1
 589 99 l 1,73,-1
 501 65 l 1,70,-1
308 -54 m 1,74,-1
 307 -71 l 1,75,-1
 375 -71 l 1,76,-1
 461 -54 l 1,77,-1
 461 -37 l 1,78,-1
 444 -37 l 1,79,-1
 308 -54 l 1,74,-1
EndSplineSet
Validated: 1
EndChar

StartChar: T
Encoding: 84 84 52
Width: 919
GlyphClass: 1
Flags: W
LayerCount: 2
Fore
SplineSet
1038 1363 m 1,0,-1
 1089 1346 l 1,1,-1
 1089 1312 l 1,2,-1
 1038 1312 l 1,3,-1
 1072 1261 l 1,4,5
 1035 1176 1035 1176 800 1176 c 1,6,-1
 681 1159 l 1,7,-1
 664 1108 l 1,8,-1
 681 1108 l 1,9,10
 630 987 630 987 477 20 c 1,11,-1
 528 -201 l 1,12,-1
 511 -201 l 2,13,14
 473 -201 473 -201 443 -31 c 1,15,-1
 460 139 l 1,16,-1
 460 156 l 1,17,-1
 443 156 l 1,18,-1
 443 122 l 1,19,20
 392 122 392 122 392 88 c 2,21,-1
 392 71 l 1,22,-1
 426 -201 l 1,23,-1
 426 -218 l 1,24,-1
 392 -218 l 1,25,-1
 324 -167 l 1,26,-1
 307 -184 l 1,27,-1
 290 -184 l 1,28,29
 222 -37 222 -37 222 71 c 1,30,-1
 239 54 l 1,31,-1
 256 54 l 1,32,-1
 222 173 l 1,33,-1
 273 190 l 1,34,-1
 273 275 l 1,35,-1
 239 275 l 1,36,-1
 239 292 l 1,37,38
 290 292 290 292 290 326 c 2,39,-1
 290 343 l 1,40,-1
 256 343 l 1,41,42
 256 479 256 479 307 479 c 1,43,-1
 307 700 l 1,44,45
 334 724 334 724 375 1057 c 1,46,-1
 256 1040 l 1,47,-1
 18 1057 l 1,48,-1
 18 1074 l 1,49,-1
 103 1091 l 1,50,-1
 103 1074 l 1,51,-1
 120 1091 l 1,52,-1
 375 1091 l 1,53,-1
 375 1142 l 1,54,-1
 103 1108 l 1,55,-1
 86 1125 l 1,56,-1
 69 1125 l 1,57,-1
 -33 1108 l 1,58,-1
 -84 1142 l 1,59,-1
 -67 1227 l 1,60,-1
 -84 1244 l 1,61,62
 -84 1329 -84 1329 120 1329 c 1,63,-1
 1038 1363 l 1,0,-1
936 1312 m 1,64,-1
 936 1295 l 1,65,-1
 1004 1295 l 1,66,-1
 1004 1312 l 1,67,-1
 936 1312 l 1,64,-1
307 360 m 1,68,-1
 273 -14 l 1,69,-1
 307 -14 l 1,70,-1
 290 71 l 1,71,-1
 290 105 l 1,72,-1
 324 156 l 1,73,-1
 307 156 l 1,74,-1
 324 173 l 1,75,-1
 324 190 l 1,76,-1
 307 207 l 1,77,-1
 307 224 l 1,78,-1
 341 292 l 1,79,-1
 324 360 l 1,80,-1
 307 360 l 1,68,-1
EndSplineSet
Validated: 1
EndChar

StartChar: U
Encoding: 85 85 53
Width: 1045
GlyphClass: 1
Flags: W
LayerCount: 2
Fore
SplineSet
288 1330 m 1,0,-1
 322 1279 l 1,1,-1
 305 1194 l 1,2,-1
 322 1177 l 1,3,-1
 339 1177 l 1,4,-1
 356 1262 l 1,5,-1
 390 1262 l 1,6,-1
 407 1211 l 1,7,8
 271 721 271 721 271 446 c 1,9,10
 288 259 288 259 339 259 c 1,11,-1
 730 701 l 1,12,-1
 747 786 l 1,13,-1
 747 1262 l 1,14,-1
 781 1296 l 1,15,16
 815 1296 815 1296 815 1228 c 1,17,-1
 832 1228 l 1,18,19
 832 1296 832 1296 917 1296 c 1,20,-1
 951 1228 l 1,21,-1
 934 1143 l 1,22,23
 968 1143 968 1143 968 1228 c 1,24,-1
 1002 1228 l 1,25,-1
 1019 1211 l 1,26,-1
 1036 1211 l 1,27,-1
 951 -13 l 1,28,-1
 934 -81 l 1,29,30
 866 -81 866 -81 866 -149 c 1,31,-1
 798 -149 l 1,32,-1
 815 21 l 1,33,-1
 781 21 l 1,34,-1
 781 -81 l 1,35,-1
 730 -132 l 1,36,-1
 730 -115 l 1,37,-1
 747 55 l 1,38,39
 696 55 696 55 696 123 c 1,40,-1
 679 123 l 1,41,-1
 390 -13 l 1,42,-1
 254 21 l 1,43,-1
 254 4 l 1,44,45
 78 4 78 4 16 514 c 1,46,47
 84 1279 84 1279 152 1279 c 1,48,-1
 152 1296 l 1,49,-1
 169 1296 l 1,50,-1
 169 1228 l 1,51,-1
 135 1228 l 1,52,-1
 135 1194 l 1,53,-1
 152 1177 l 1,54,-1
 152 1160 l 1,55,-1
 135 1160 l 1,56,-1
 152 1109 l 1,57,-1
 101 1024 l 1,58,-1
 118 1024 l 1,59,-1
 135 1041 l 1,60,-1
 84 735 l 1,61,-1
 84 667 l 1,62,-1
 101 667 l 1,63,64
 155 1330 155 1330 288 1330 c 1,0,-1
84 650 m 1,65,-1
 67 633 l 1,66,-1
 67 497 l 1,67,-1
 84 497 l 1,68,-1
 101 650 l 1,69,-1
 84 650 l 1,65,-1
611 514 m 1,70,-1
 492 378 l 1,71,-1
 509 378 l 1,72,-1
 628 514 l 1,73,-1
 611 514 l 1,70,-1
118 242 m 1,74,-1
 118 208 l 1,75,-1
 135 157 l 1,76,-1
 152 157 l 1,77,-1
 152 191 l 1,78,-1
 135 242 l 1,79,-1
 118 242 l 1,74,-1
237 157 m 1,80,-1
 237 140 l 2,81,82
 237 81 237 81 390 38 c 1,83,-1
 424 38 l 1,84,-1
 424 55 l 1,85,86
 326 56 326 56 237 157 c 1,80,-1
EndSplineSet
Validated: 1
EndChar

StartChar: V
Encoding: 86 86 54
Width: 1041
GlyphClass: 1
Flags: W
LayerCount: 2
Fore
SplineSet
-12 1335 m 1,0,1
 192 1335 192 1335 192 1199 c 1,2,-1
 209 1199 l 1,3,-1
 209 1250 l 1,4,-1
 243 1250 l 1,5,6
 311 1051 311 1051 362 706 c 1,7,-1
 345 706 l 1,8,-1
 362 689 l 1,9,-1
 362 536 l 1,10,-1
 396 536 l 1,11,-1
 379 519 l 1,12,-1
 379 434 l 1,13,-1
 396 434 l 1,14,15
 462 598 462 598 667 890 c 1,16,-1
 685 876 l 1,17,-1
 719 927 l 1,18,-1
 702 927 l 1,19,-1
 668 893 l 1,20,-1
 668 910 l 1,21,-1
 855 1114 l 1,22,-1
 889 1114 l 1,23,-1
 957 1046 l 1,24,-1
 872 944 l 1,25,-1
 923 944 l 1,26,27
 923 997 923 997 1025 1063 c 1,28,-1
 1025 1012 l 1,29,30
 957 1004 957 1004 957 961 c 1,31,-1
 991 961 l 1,32,33
 991 1012 991 1012 1042 1012 c 1,34,-1
 1042 961 l 1,35,36
 955 910 955 910 787 655 c 1,37,-1
 430 9 l 1,38,-1
 396 9 l 1,39,-1
 379 26 l 1,40,41
 328 26 328 26 328 -42 c 1,42,-1
 294 -42 l 2,43,44
 175 -42 175 -42 175 77 c 1,45,-1
 192 128 l 1,46,-1
 158 94 l 1,47,-1
 158 43 l 1,48,-1
 175 26 l 1,49,-1
 175 9 l 1,50,-1
 158 -8 l 1,51,-1
 124 -8 l 1,52,-1
 107 77 l 1,53,-1
 124 128 l 1,54,-1
 107 128 l 1,55,-1
 124 145 l 1,56,-1
 124 247 l 1,57,58
 103 1182 103 1182 5 1182 c 1,59,-1
 22 1233 l 1,60,-1
 -12 1335 l 1,0,1
804 1131 m 1,61,-1
 804 1114 l 1,62,-1
 736 1046 l 1,63,-1
 719 1046 l 1,64,65
 759 1120 759 1120 804 1131 c 1,61,-1
685 1012 m 1,66,-1
 685 995 l 1,67,-1
 532 791 l 1,68,-1
 532 808 l 1,69,70
 571 904 571 904 685 1012 c 1,66,-1
821 910 m 1,71,-1
 770 825 l 1,72,-1
 787 825 l 1,73,-1
 838 893 l 1,74,-1
 838 910 l 1,75,-1
 821 910 l 1,71,-1
141 825 m 1,76,-1
 141 740 l 1,77,-1
 158 740 l 1,78,-1
 158 825 l 1,79,-1
 141 825 l 1,76,-1
481 740 m 1,80,-1
 498 740 l 1,81,-1
 498 689 l 1,82,-1
 481 672 l 1,83,-1
 466 674 l 5,84,-1
 464 689 l 1,85,-1
 481 740 l 1,80,-1
158 689 m 1,86,-1
 158 502 l 1,87,-1
 175 502 l 1,88,-1
 175 689 l 1,89,-1
 158 689 l 1,86,-1
464 672 m 1,90,-1
 464 655 l 1,91,-1
 413 587 l 1,92,-1
 413 604 l 1,93,-1
 464 672 l 1,90,-1
498 332 m 1,94,-1
 498 315 l 1,95,-1
 549 366 l 1,96,-1
 549 383 l 1,97,-1
 498 332 l 1,94,-1
413 196 m 1,98,-1
 430 179 l 1,99,-1
 447 179 l 1,100,-1
 481 281 l 1,101,102
 446 273 446 273 413 196 c 1,98,-1
EndSplineSet
Validated: 1
EndChar

StartChar: W
Encoding: 87 87 55
Width: 1342
GlyphClass: 1
Flags: W
LayerCount: 2
Fore
SplineSet
121 1369 m 1,0,-1
 172 1369 l 1,1,-1
 189 1284 l 1,2,3
 240 1284 240 1284 240 1335 c 1,4,-1
 257 1335 l 1,5,-1
 291 1301 l 1,6,-1
 274 1199 l 1,7,-1
 291 1199 l 1,8,-1
 274 1182 l 1,9,-1
 274 1165 l 1,10,-1
 291 1148 l 1,11,-1
 291 1131 l 1,12,-1
 274 1131 l 1,13,-1
 291 1114 l 1,14,-1
 291 1097 l 1,15,-1
 274 536 l 1,16,-1
 274 519 l 1,17,-1
 291 519 l 1,18,-1
 342 689 l 1,19,-1
 376 689 l 1,20,-1
 257 366 l 1,21,-1
 291 366 l 1,22,-1
 495 944 l 1,23,-1
 461 944 l 1,24,-1
 393 723 l 1,25,-1
 359 723 l 1,26,-1
 359 740 l 1,27,-1
 478 1012 l 1,28,-1
 495 1012 l 1,29,-1
 495 978 l 1,30,-1
 631 1012 l 1,31,32
 699 987 699 987 699 961 c 1,33,-1
 716 978 l 1,34,-1
 767 978 l 1,35,-1
 835 570 l 1,36,-1
 852 570 l 1,37,38
 852 646 852 646 1120 1446 c 1,39,-1
 1137 1446 l 1,40,-1
 1154 1395 l 1,41,-1
 1171 1395 l 1,42,-1
 1171 1429 l 1,43,-1
 1188 1429 l 2,44,45
 1314 1429 1314 1429 1324 1378 c 1,46,-1
 1324 1344 l 1,47,-1
 1290 1293 l 1,48,-1
 1290 1276 l 1,49,-1
 1324 1276 l 1,50,-1
 1341 1395 l 1,51,-1
 1375 1395 l 1,52,-1
 1409 1361 l 1,53,-1
 1409 1344 l 1,54,-1
 1022 9 l 1,55,-1
 971 -8 l 1,56,-1
 971 26 l 1,57,-1
 954 9 l 1,58,-1
 937 9 l 1,59,-1
 920 26 l 1,60,61
 920 -42 920 -42 869 -42 c 1,62,63
 733 -30 733 -30 733 9 c 1,64,-1
 750 9 l 1,65,66
 733 94 733 94 682 128 c 1,67,-1
 614 502 l 1,68,69
 585 501 585 501 410 26 c 1,70,-1
 325 -59 l 1,71,-1
 308 -59 l 1,72,-1
 291 9 l 1,73,74
 551 439 551 439 563 672 c 1,75,76
 518 627 518 627 342 162 c 1,77,78
 321 162 321 162 274 -42 c 1,79,-1
 121 -42 l 1,80,-1
 104 26 l 1,81,-1
 87 9 l 1,82,-1
 70 9 l 1,83,84
 70 101 70 101 19 145 c 1,85,-1
 19 213 l 1,86,-1
 87 162 l 1,87,-1
 53 451 l 1,88,-1
 70 468 l 1,89,-1
 53 485 l 1,90,-1
 70 502 l 1,91,-1
 53 502 l 1,92,-1
 70 519 l 1,93,-1
 70 757 l 1,94,-1
 87 842 l 1,95,-1
 70 842 l 1,96,-1
 87 859 l 1,97,-1
 87 1301 l 1,98,-1
 70 1318 l 1,99,-1
 70 1335 l 1,100,-1
 121 1369 l 1,0,-1
1120 1361 m 1,101,102
 869 580 869 580 869 485 c 2,103,-1
 869 468 l 1,104,-1
 886 468 l 1,105,-1
 1154 1361 l 1,106,-1
 1120 1361 l 1,101,102
1090 706 m 1,107,-1
 1056 553 l 1,108,-1
 1056 536 l 1,109,-1
 1073 536 l 1,110,-1
 1107 689 l 1,111,-1
 1107 706 l 1,112,-1
 1090 706 l 1,107,-1
988 298 m 1,113,-1
 954 145 l 1,114,-1
 954 111 l 1,115,-1
 971 111 l 1,116,-1
 1005 281 l 1,117,-1
 1005 298 l 1,118,-1
 988 298 l 1,113,-1
EndSplineSet
Validated: 1
EndChar

StartChar: X
Encoding: 88 88 56
Width: 1170
GlyphClass: 1
Flags: W
LayerCount: 2
Fore
SplineSet
288 1359 m 1,0,1
 475 1263 475 1263 475 1087 c 1,2,-1
 577 934 l 1,3,-1
 628 985 l 1,4,-1
 640 984 l 1,5,-1
 577 883 l 1,6,-1
 594 866 l 1,7,-1
 611 866 l 1,8,9
 991 1308 991 1308 1104 1308 c 0,10,11
 1166 1308 1166 1308 1206 1223 c 1,12,13
 1257 1223 1257 1223 1257 1189 c 0,14,15
 1257 1125 1257 1125 968 900 c 1,16,-1
 730 645 l 1,17,-1
 730 611 l 1,18,19
 883 359 883 359 985 50 c 1,20,-1
 968 -1 l 1,21,-1
 985 -1 l 1,22,-1
 900 -120 l 1,23,-1
 849 -120 l 1,24,-1
 849 -86 l 1,25,-1
 798 -120 l 1,26,-1
 577 407 l 1,27,-1
 560 407 l 1,28,29
 395 206 395 206 220 -171 c 1,30,-1
 186 -171 l 1,31,-1
 186 -137 l 1,32,-1
 203 -120 l 1,33,-1
 186 -103 l 1,34,-1
 186 -86 l 1,35,36
 271 121 271 121 492 475 c 1,37,-1
 509 475 l 1,38,-1
 509 526 l 1,39,40
 169 56 169 56 169 -69 c 1,41,-1
 101 -103 l 1,42,43
 46 -103 46 -103 -18 16 c 1,44,45
 -18 112 -18 112 390 730 c 1,46,47
 234 1021 234 1021 203 1172 c 1,48,-1
 220 1172 l 1,49,-1
 152 1342 l 1,50,-1
 169 1342 l 1,51,-1
 186 1325 l 1,52,-1
 288 1359 l 1,0,1
1019 1342 m 1,53,-1
 1036 1342 l 1,54,-1
 781 1104 l 1,55,-1
 767 1108 l 1,56,-1
 764 1121 l 1,57,-1
 1019 1342 l 1,53,-1
747 1104 m 1,58,-1
 764 1104 l 1,59,-1
 645 985 l 1,60,-1
 645 1002 l 1,61,-1
 747 1104 l 1,58,-1
781 849 m 1,62,-1
 747 798 l 1,63,-1
 764 798 l 1,64,-1
 798 849 l 1,65,-1
 781 849 l 1,62,-1
16 16 m 1,66,-1
 390 611 l 1,67,68
 424 611 424 611 424 679 c 1,69,-1
 407 679 l 1,70,71
 106 285 106 285 16 16 c 1,66,-1
798 16 m 1,72,-1
 798 -1 l 1,73,-1
 815 -69 l 1,74,-1
 832 -69 l 1,75,-1
 832 -1 l 1,76,-1
 815 16 l 1,77,-1
 798 16 l 1,72,-1
EndSplineSet
Validated: 1
EndChar

StartChar: Y
Encoding: 89 89 57
Width: 991
GlyphClass: 1
Flags: W
LayerCount: 2
Fore
SplineSet
822 1375 m 1,0,-1
 839 1375 l 1,1,-1
 839 1341 l 1,2,-1
 856 1358 l 1,3,-1
 873 1358 l 1,4,5
 992 1318 992 1318 992 1290 c 1,6,-1
 907 1188 l 1,7,-1
 941 1188 l 1,8,9
 1009 1223 1009 1223 1009 1273 c 1,10,-1
 1060 1273 l 1,11,-1
 1060 1256 l 1,12,-1
 1043 1239 l 1,13,-1
 1060 1222 l 1,14,-1
 1060 1205 l 1,15,16
 485 528 485 528 470 169 c 1,17,-1
 436 0 l 1,18,-1
 453 -17 l 1,19,-1
 453 -34 l 1,20,-1
 368 -187 l 1,21,-1
 232 -170 l 1,22,-1
 232 -34 l 1,23,-1
 181 33 l 1,24,-1
 181 67 l 1,25,-1
 198 271 l 1,26,-1
 215 254 l 1,27,-1
 232 254 l 1,28,-1
 215 271 l 1,29,-1
 215 288 l 1,30,-1
 232 305 l 1,31,-1
 232 322 l 1,32,-1
 215 339 l 1,33,-1
 266 356 l 1,34,-1
 249 271 l 1,35,-1
 249 203 l 1,36,-1
 266 203 l 1,37,-1
 286 408 l 1,38,-1
 269 459 l 1,39,-1
 252 459 l 1,40,-1
 252 408 l 1,41,-1
 235 408 l 1,42,-1
 218 544 l 1,43,-1
 235 561 l 1,44,-1
 235 578 l 1,45,-1
 1 1175 l 1,46,-1
 1 1209 l 1,47,-1
 35 1209 l 1,48,-1
 1 1294 l 1,49,-1
 18 1311 l 1,50,-1
 52 1311 l 2,51,52
 91 1311 91 1311 103 1226 c 1,53,-1
 154 1260 l 1,54,-1
 205 1260 l 1,55,56
 205 1155 205 1155 388 816 c 1,57,58
 486 1002 486 1002 558 1037 c 1,59,-1
 558 1020 l 1,60,61
 388 804 388 804 388 765 c 2,62,-1
 388 748 l 1,63,-1
 405 748 l 1,64,-1
 805 1290 l 1,65,-1
 805 1307 l 1,66,-1
 612 1109 l 1,67,-1
 609 1122 l 1,68,-1
 822 1375 l 1,0,-1
609 1105 m 1,69,-1
 609 1088 l 1,70,-1
 575 1054 l 1,71,-1
 575 1071 l 1,72,-1
 609 1105 l 1,69,-1
839 1120 m 1,73,74
 473 651 473 651 473 578 c 1,75,-1
 507 578 l 1,76,77
 654 861 654 861 856 1120 c 1,78,-1
 839 1120 l 1,73,74
283 -68 m 1,79,-1
 283 -136 l 1,80,-1
 300 -136 l 1,81,-1
 300 -68 l 1,82,-1
 283 -68 l 1,79,-1
EndSplineSet
Validated: 1
EndChar

StartChar: Z
Encoding: 90 90 58
Width: 970
GlyphClass: 1
Flags: W
LayerCount: 2
Fore
SplineSet
98 1311 m 1,0,-1
 201 1294 l 1,1,-1
 542 1311 l 1,2,-1
 968 1186 l 1,3,-1
 968 1150 l 1,4,-1
 985 1132 l 1,5,-1
 968 1114 l 1,6,-1
 951 1114 l 1,7,-1
 951 1096 l 1,8,-1
 985 1096 l 1,9,-1
 1019 1132 l 1,10,-1
 1036 1132 l 1,11,-1
 1036 1061 l 1,12,-1
 371 254 l 1,13,-1
 473 254 l 1,14,-1
 576 273 l 1,15,16
 787 218 787 218 848 111 c 1,17,-1
 866 111 l 1,18,-1
 866 40 l 1,19,-1
 831 3 l 1,20,-1
 814 3 l 1,21,-1
 729 40 l 1,22,-1
 746 21 l 1,23,-1
 746 -13 l 1,24,-1
 610 21 l 1,25,-1
 559 21 l 2,26,27
 394 21 394 21 115 -86 c 1,28,-1
 13 3 l 1,29,-1
 64 147 l 1,30,-1
 30 183 l 1,31,-1
 30 254 l 1,32,33
 156 469 156 469 184 469 c 1,34,-1
 201 451 l 1,35,-1
 218 469 l 1,36,-1
 218 487 l 1,37,-1
 201 487 l 1,38,39
 201 541 201 541 269 541 c 1,40,-1
 337 631 l 1,41,-1
 320 648 l 1,42,-1
 371 684 l 1,43,-1
 388 666 l 1,44,45
 540 905 540 905 593 917 c 1,46,-1
 593 899 l 1,47,-1
 405 648 l 1,48,-1
 422 648 l 1,49,-1
 712 1007 l 1,50,-1
 695 1007 l 1,51,-1
 627 953 l 1,52,-1
 610 971 l 1,53,-1
 610 989 l 1,54,-1
 627 1007 l 1,55,-1
 456 989 l 1,56,-1
 252 989 l 1,57,58
 171 1029 171 1029 132 1114 c 1,59,-1
 132 1132 l 1,60,-1
 166 1186 l 1,61,62
 138 1276 138 1276 81 1276 c 1,63,-1
 98 1294 l 1,64,-1
 98 1311 l 1,0,-1
542 631 m 1,65,-1
 439 506 l 1,66,-1
 456 506 l 1,67,-1
 559 631 l 1,68,-1
 542 631 l 1,65,-1
337 577 m 1,69,-1
 252 469 l 1,70,-1
 269 469 l 1,71,-1
 354 577 l 1,72,-1
 337 577 l 1,69,-1
422 487 m 1,73,-1
 337 380 l 1,74,-1
 354 380 l 1,75,-1
 439 487 l 1,76,-1
 422 487 l 1,73,-1
EndSplineSet
Validated: 1
EndChar

StartChar: asciicircum
Encoding: 94 94 59
Width: 999
GlyphClass: 1
Flags: W
LayerCount: 2
Fore
SplineSet
280 780 m 1,0,-1
 254 780 l 1,1,-1
 257 805 l 1,2,-1
 286 854 l 1,3,-1
 298 842 l 1,4,-1
 310 842 l 1,5,-1
 280 780 l 1,0,-1
828 965 m 1,6,-1
 782 879 l 1,7,-1
 779 842 l 1,8,-1
 793 854 l 1,9,-1
 806 854 l 1,10,-1
 817 842 l 1,11,-1
 814 805 l 1,12,-1
 801 805 l 1,13,-1
 789 817 l 1,14,-1
 777 817 l 1,15,-1
 749 792 l 1,16,-1
 724 792 l 1,17,-1
 688 817 l 1,18,-1
 687 805 l 1,19,20
 619 817 619 817 591 866 c 1,21,22
 547 866 547 866 500 1125 c 1,23,-1
 325 866 l 1,24,-1
 312 854 l 1,25,-1
 299 854 l 1,26,-1
 300 866 l 1,27,-1
 479 1174 l 1,28,-1
 454 1174 l 1,29,30
 255 792 255 792 217 792 c 1,31,-1
 181 817 l 1,32,-1
 181 805 l 1,33,34
 133 805 133 805 69 900 c 1,35,-1
 219 1100 l 1,36,-1
 251 1157 l 1,37,-1
 249 1150 l 1,38,39
 313 1214 313 1214 388 1420 c 1,40,41
 394 1492 394 1492 447 1519 c 1,42,-1
 460 1519 l 1,43,-1
 459 1507 l 1,44,-1
 445 1494 l 1,45,-1
 444 1482 l 1,46,-1
 456 1470 l 1,47,-1
 428 1445 l 1,48,-1
 425 1408 l 1,49,-1
 450 1408 l 1,50,51
 456 1476 456 1476 510 1507 c 1,52,-1
 523 1507 l 1,53,-1
 580 1445 l 1,54,55
 613 1445 613 1445 620 1334 c 1,56,57
 671 1217 671 1217 680 1150 c 1,58,-1
 763 944 l 1,59,-1
 828 965 l 1,6,-1
432 1347 m 1,60,-1
 422 1384 l 1,61,-1
 409 1384 l 1,62,63
 404 1318 404 1318 253 1051 c 1,64,-1
 235 989 l 1,65,66
 330 1104 330 1104 432 1347 c 1,60,-1
510 1368 m 1,67,-1
 519 1467 l 1,68,-1
 506 1467 l 1,69,-1
 488 1405 l 1,70,-1
 497 1368 l 1,71,-1
 510 1368 l 1,67,-1
EndSplineSet
Validated: 1
EndChar

StartChar: underscore
Encoding: 95 95 60
Width: 560
GlyphClass: 1
Flags: W
LayerCount: 2
Fore
SplineSet
262 -90 m 1,0,-1
 267 -136 l 1,1,-1
 255 -144 l 1,2,-1
 159 -157 l 1,3,-1
 155 -131 l 1,4,-1
 167 -101 l 1,5,-1
 262 -90 l 1,0,-1
502 -13 m 1,6,-1
 437 -13 l 1,7,-1
 552 -28 l 1,8,-1
 549 -85 l 1,9,-1
 432 -111 l 1,10,-1
 417 -65 l 1,11,-1
 249 -88 l 1,12,-1
 216 -80 l 1,13,-1
 216 -76 l 1,14,-1
 37 -103 l 1,15,-1
 4 -101 l 1,16,-1
 6 -44 l 1,17,-1
 35 -10 l 1,18,-1
 28 49 l 1,19,-1
 45 64 l 1,20,-1
 512 64 l 1,21,-1
 518 4 l 1,22,-1
 502 -13 l 1,6,-1
EndSplineSet
Validated: 1
EndChar

StartChar: grave
Encoding: 96 96 61
Width: 589
GlyphClass: 1
Flags: W
LayerCount: 2
Fore
SplineSet
245 1845 m 1,0,-1
 258 1845 l 2,1,2
 275 1845 275 1845 308 1814 c 1,3,4
 382 1768 382 1768 445 1671 c 1,5,-1
 458 1632 l 1,6,-1
 456 1629 l 1,7,-1
 453 1632 l 1,8,-1
 440 1632 l 1,9,-1
 443 1619 l 1,10,-1
 440 1601 l 1,11,12
 453 1576 453 1576 453 1564 c 2,13,-1
 451 1557 l 1,14,-1
 453 1541 l 1,15,-1
 448 1533 l 1,16,-1
 453 1512 l 1,17,-1
 453 1499 l 1,18,-1
 448 1499 l 1,19,-1
 427 1544 l 1,20,-1
 422 1544 l 1,21,-1
 422 1541 l 1,22,-1
 427 1523 l 1,23,-1
 425 1523 l 1,24,25
 438 1477 438 1477 438 1460 c 2,26,-1
 438 1458 l 2,27,28
 438 1454 438 1454 419 1445 c 1,29,-1
 412 1447 l 1,30,-1
 399 1445 l 1,31,-1
 391 1445 l 1,32,33
 380 1455 380 1455 323 1606 c 1,34,35
 258 1736 258 1736 149 1780 c 1,36,37
 129 1780 129 1780 110 1804 c 1,38,39
 110 1835 110 1835 152 1835 c 1,40,-1
 175 1840 l 1,41,-1
 196 1835 l 1,42,-1
 245 1845 l 1,0,-1
EndSplineSet
Validated: 1
EndChar

StartChar: a
Encoding: 97 97 62
Width: 1200
GlyphClass: 1
Flags: W
LayerCount: 2
Fore
SplineSet
677 1410 m 1,0,1
 688 1359 688 1359 813 1359 c 1,2,-1
 949 764 l 1,3,-1
 1068 764 l 1,4,-1
 1068 747 l 1,5,-1
 966 730 l 1,6,-1
 966 713 l 1,7,8
 1017 713 1017 713 1017 679 c 1,9,-1
 1153 679 l 1,10,-1
 1153 662 l 2,11,12
 1153 624 1153 624 983 594 c 1,13,-1
 1017 492 l 1,14,-1
 1000 441 l 1,15,-1
 1017 339 l 1,16,-1
 1000 322 l 1,17,-1
 1017 322 l 1,18,-1
 1000 305 l 1,19,-1
 1017 101 l 1,20,-1
 1017 -1 l 1,21,-1
 1000 16 l 1,22,-1
 983 16 l 1,23,-1
 1034 -239 l 1,24,-1
 1000 -239 l 1,25,26
 1000 -188 1000 -188 966 -188 c 1,27,-1
 966 -205 l 1,28,-1
 983 -256 l 1,29,-1
 966 -256 l 1,30,-1
 949 -239 l 1,31,-1
 932 -239 l 1,32,33
 932 -290 932 -290 898 -290 c 1,34,-1
 813 -1 l 1,35,-1
 796 -1 l 1,36,-1
 796 -69 l 1,37,-1
 779 -69 l 1,38,-1
 745 135 l 1,39,-1
 796 101 l 1,40,-1
 796 118 l 1,41,42
 782 271 782 271 745 271 c 1,43,-1
 762 288 l 1,44,-1
 762 339 l 1,45,-1
 728 339 l 1,46,-1
 728 288 l 1,47,-1
 711 288 l 1,48,-1
 711 356 l 1,49,-1
 728 373 l 1,50,-1
 711 373 l 1,51,-1
 694 356 l 1,52,-1
 694 424 l 1,53,-1
 711 424 l 1,54,-1
 728 407 l 1,55,-1
 745 407 l 1,56,-1
 728 424 l 1,57,-1
 728 526 l 1,58,-1
 354 441 l 1,59,-1
 354 407 l 1,60,-1
 473 441 l 1,61,-1
 541 424 l 1,62,-1
 626 441 l 1,63,-1
 626 407 l 1,64,65
 269 343 269 343 269 237 c 1,66,67
 224 50 224 50 167 -1 c 1,68,-1
 167 -35 l 1,69,-1
 116 -35 l 1,70,-1
 99 -18 l 1,71,-1
 82 -18 l 1,72,-1
 82 -35 l 1,73,-1
 31 -1 l 1,74,-1
 65 101 l 1,75,-1
 48 101 l 2,76,77
 -3 101 -3 101 -3 -35 c 1,78,-1
 -37 -1 l 1,79,-1
 -20 101 l 1,80,-1
 -71 152 l 1,81,-1
 218 849 l 1,82,-1
 235 849 l 1,83,84
 235 798 235 798 269 798 c 1,85,-1
 286 883 l 1,86,-1
 269 866 l 1,87,-1
 252 866 l 1,88,-1
 252 934 l 1,89,-1
 269 1019 l 1,90,-1
 286 1002 l 1,91,-1
 303 1002 l 1,92,-1
 286 1019 l 1,93,-1
 286 1036 l 1,94,-1
 320 1104 l 1,95,-1
 337 1104 l 1,96,-1
 354 1087 l 1,97,-1
 371 1087 l 1,98,-1
 371 1104 l 2,99,100
 371 1138 371 1138 320 1138 c 1,101,-1
 405 1376 l 1,102,-1
 473 1376 l 1,103,-1
 456 1359 l 1,104,-1
 456 1342 l 1,105,106
 574 1410 574 1410 677 1410 c 1,0,1
575 1019 m 1,107,-1
 439 662 l 1,108,-1
 473 662 l 2,109,110
 643 662 643 662 660 764 c 1,111,-1
 592 1019 l 1,112,-1
 575 1019 l 1,107,-1
422 917 m 1,113,-1
 388 798 l 1,114,-1
 371 815 l 1,115,-1
 354 815 l 1,116,-1
 371 747 l 1,117,-1
 388 747 l 1,118,-1
 439 900 l 1,119,-1
 439 917 l 1,120,-1
 422 917 l 1,113,-1
235 764 m 1,121,-1
 218 747 l 1,122,-1
 218 713 l 1,123,-1
 235 713 l 1,124,-1
 252 764 l 1,125,-1
 235 764 l 1,121,-1
337 696 m 1,126,-1
 320 628 l 1,127,-1
 337 628 l 1,128,-1
 354 645 l 1,129,-1
 354 696 l 1,130,-1
 337 696 l 1,126,-1
184 679 m 1,131,-1
 167 611 l 1,132,-1
 184 611 l 1,133,-1
 218 679 l 1,134,-1
 184 679 l 1,131,-1
473 628 m 1,135,-1
 473 611 l 1,136,-1
 507 611 l 1,137,138
 660 628 660 628 660 662 c 1,139,-1
 643 662 l 1,140,-1
 473 628 l 1,135,-1
711 254 m 1,141,-1
 745 254 l 1,142,-1
 745 152 l 1,143,-1
 728 152 l 1,144,-1
 711 254 l 1,141,-1
949 135 m 1,145,-1
 949 101 l 1,146,-1
 966 33 l 1,147,-1
 983 33 l 1,148,-1
 983 67 l 1,149,-1
 966 135 l 1,150,-1
 949 135 l 1,145,-1
779 84 m 1,151,-1
 779 50 l 1,152,-1
 830 67 l 1,153,-1
 830 101 l 1,154,-1
 779 84 l 1,151,-1
EndSplineSet
Validated: 1
EndChar

StartChar: b
Encoding: 98 98 63
Width: 1200
GlyphClass: 1
Flags: W
LayerCount: 2
Fore
SplineSet
692 1383 m 1,0,-1
 774 1357 l 1,1,-1
 772 1340 l 1,2,-1
 688 1349 l 1,3,-1
 692 1383 l 1,0,-1
367 1385 m 2,4,-1
 414 1345 l 1,5,-1
 570 1362 l 1,6,-1
 585 1343 l 1,7,-1
 602 1341 l 1,8,-1
 654 1352 l 1,9,10
 940 1322 940 1322 1067 1068 c 1,11,12
 1091 1063 1091 1063 1094 1012 c 0,13,14
 1094 1002 1094 1002 1092 980 c 2,15,-1
 1079 861 l 1,16,-1
 1045 865 l 1,17,-1
 1047 882 l 1,18,-1
 1070 931 l 1,19,-1
 1055 950 l 1,20,-1
 1073 965 l 1,21,-1
 1058 984 l 1,22,-1
 1025 987 l 1,23,24
 1014 890 1014 890 831 786 c 1,25,-1
 829 769 l 1,26,-1
 846 768 l 1,27,28
 852 767 852 767 859 767 c 0,29,30
 924 769 924 769 1025 833 c 1,31,-1
 1022 799 l 1,32,-1
 925 707 l 1,33,34
 1019 697 1019 697 1200 404 c 1,35,36
 1180 218 1180 218 645 20 c 1,37,38
 440 -79 440 -79 319 -79 c 0,39,40
 305 -79 305 -79 292 -78 c 1,41,-1
 262 -39 l 1,42,-1
 245 -38 l 1,43,44
 235 -79 235 -79 172 -81 c 1,45,46
 166 -128 166 -128 138 -128 c 2,47,-1
 132 -128 l 1,48,49
 112 -107 112 -107 112 -6 c 1,50,-1
 95 -5 l 1,51,-1
 69 -87 l 1,52,-1
 52 -85 l 1,53,54
 50 87 50 87 19 88 c 1,55,-1
 10 158 l 1,56,-1
 29 173 l 1,57,-1
 13 192 l 1,58,-1
 178 910 l 1,59,-1
 163 928 l 1,60,-1
 180 926 l 1,61,-1
 165 944 l 1,62,-1
 210 1196 l 1,63,-1
 211 1213 l 1,64,-1
 190 1335 l 1,65,-1
 207 1334 l 1,66,67
 302 1386 302 1386 356 1386 c 0,68,69
 362 1386 362 1386 367 1385 c 2,4,-1
771 1169 m 1,70,-1
 769 1152 l 1,71,-1
 903 1120 l 1,72,73
 906 1154 906 1154 856 1159 c 2,74,-1
 771 1169 l 1,70,-1
444 1003 m 1,75,-1
 449 880 l 1,76,-1
 604 897 l 1,77,-1
 601 863 l 1,78,-1
 852 972 l 1,79,-1
 850 955 l 1,80,-1
 721 867 l 1,81,82
 932 925 932 925 948 1064 c 1,83,-1
 914 1068 l 1,84,85
 903 994 903 994 854 989 c 1,86,-1
 857 1023 l 1,87,-1
 844 1026 l 1,88,-1
 863 1074 l 1,89,-1
 878 1055 l 1,90,-1
 895 1052 l 1,91,-1
 897 1069 l 1,92,93
 835 1128 835 1128 699 1142 c 0,94,95
 659 1146 659 1146 641 1146 c 0,96,97
 460 1144 460 1144 444 1003 c 1,75,-1
838 1022 m 1,98,-1
 839 1007 l 1,99,-1
 801 978 l 1,100,-1
 784 979 l 1,101,-1
 838 1022 l 1,98,-1
762 622 m 1,102,-1
 761 606 l 1,103,-1
 927 570 l 1,104,-1
 944 569 l 1,105,-1
 946 586 l 1,106,-1
 880 610 l 1,107,-1
 762 622 l 1,102,-1
380 562 m 1,108,-1
 329 260 l 1,109,-1
 344 241 l 1,110,-1
 361 239 l 2,111,112
 369 238 369 238 377 238 c 0,113,114
 513 239 513 239 914 452 c 1,115,-1
 952 482 l 1,116,117
 949 551 949 551 824 564 c 2,118,-1
 689 580 l 1,119,-1
 380 562 l 1,108,-1
988 496 m 1,120,-1
 947 431 l 1,121,-1
 1020 474 l 1,122,-1
 1005 493 l 1,123,-1
 988 496 l 1,120,-1
1099 415 m 1,124,125
 1093 362 1093 362 763 161 c 1,126,127
 1139 311 1139 311 1147 392 c 1,128,-1
 1130 394 l 1,129,-1
 1116 413 l 1,130,-1
 1099 415 l 1,124,125
EndSplineSet
Validated: 1
EndChar

StartChar: c
Encoding: 99 99 64
Width: 1024
GlyphClass: 1
Flags: W
LayerCount: 2
Fore
SplineSet
611 1309 m 1,0,-1
 628 1309 l 2,1,2
 875 1309 875 1309 1002 1105 c 1,3,-1
 1002 1088 l 1,4,-1
 968 1088 l 1,5,-1
 985 1071 l 1,6,-1
 985 1054 l 1,7,8
 883 1066 883 1066 883 1088 c 1,9,10
 486 1088 486 1088 288 680 c 1,11,-1
 254 561 l 1,12,-1
 305 238 l 1,13,-1
 356 238 l 2,14,15
 568 238 568 238 832 544 c 1,16,-1
 849 544 l 1,17,-1
 849 527 l 1,18,19
 668 266 668 266 441 221 c 1,20,-1
 441 204 l 1,21,-1
 458 204 l 2,22,23
 636 204 636 204 900 510 c 1,24,-1
 951 442 l 1,25,-1
 951 391 l 2,26,27
 951 336 951 336 696 136 c 1,28,-1
 679 119 l 1,29,-1
 662 119 l 1,30,-1
 662 85 l 1,31,32
 951 226 951 226 951 289 c 1,33,-1
 985 289 l 1,34,-1
 985 272 l 1,35,36
 771 17 771 17 492 17 c 1,37,-1
 492 0 l 1,38,-1
 577 0 l 1,39,-1
 645 17 l 1,40,-1
 662 17 l 1,41,-1
 662 0 l 1,42,-1
 458 -33 l 1,43,44
 329 -33 329 -33 186 153 c 1,45,-1
 186 136 l 1,46,-1
 271 0 l 1,47,-1
 271 -16 l 1,48,-1
 220 -16 l 1,49,50
 62 92 62 92 33 255 c 1,51,-1
 16 476 l 1,52,53
 16 900 16 900 184 1016 c 1,54,-1
 186 1003 l 1,55,-1
 118 887 l 1,56,-1
 118 858 l 1,57,-1
 126 864 l 1,58,59
 126 995 126 995 526 1275 c 1,60,-1
 475 1258 l 1,61,-1
 458 1258 l 1,62,-1
 458 1275 l 1,63,-1
 611 1309 l 1,0,-1
424 1241 m 1,64,-1
 441 1241 l 1,65,-1
 441 1224 l 1,66,-1
 322 1173 l 1,67,68
 322 1207 322 1207 424 1241 c 1,64,-1
271 1122 m 1,69,-1
 271 1105 l 1,70,-1
 187 1025 l 1,71,-1
 186 1037 l 1,72,-1
 271 1122 l 1,69,-1
67 306 m 1,73,-1
 67 255 l 1,74,-1
 84 187 l 1,75,-1
 101 187 l 1,76,-1
 101 204 l 1,77,-1
 84 306 l 1,78,-1
 67 306 l 1,73,-1
EndSplineSet
Validated: 1
EndChar

StartChar: d
Encoding: 100 100 65
Width: 1141
GlyphClass: 1
Flags: W
LayerCount: 2
Fore
SplineSet
251 1337 m 1,0,-1
 319 1337 l 1,1,-1
 370 1303 l 1,2,-1
 489 1320 l 1,3,4
 784 1320 784 1320 1033 980 c 1,5,-1
 1118 810 l 1,6,-1
 1101 793 l 1,7,-1
 1118 708 l 1,8,-1
 1118 623 l 2,9,10
 1118 186 1118 186 404 -40 c 1,11,-1
 234 -57 l 1,12,13
 234 -14 234 -14 166 -6 c 1,14,-1
 166 -74 l 1,15,-1
 115 -74 l 1,16,-1
 115 28 l 1,17,-1
 98 45 l 1,18,-1
 115 62 l 1,19,-1
 115 79 l 1,20,21
 13 149 13 149 13 198 c 0,22,23
 64 968 64 968 183 1320 c 1,24,-1
 200 1320 l 1,25,-1
 217 1303 l 1,26,-1
 251 1337 l 1,0,-1
183 1167 m 1,27,-1
 98 674 l 1,28,-1
 98 657 l 1,29,-1
 115 657 l 1,30,-1
 200 1133 l 1,31,-1
 200 1167 l 1,32,-1
 183 1167 l 1,27,-1
455 1048 m 1,33,34
 455 1014 455 1014 387 1014 c 1,35,36
 319 704 319 704 285 300 c 1,37,38
 384 300 384 300 795 470 c 1,39,-1
 795 487 l 1,40,-1
 761 487 l 1,41,42
 897 626 897 626 897 776 c 2,43,-1
 897 827 l 2,44,45
 897 1014 897 1014 642 1048 c 1,46,-1
 455 1048 l 1,33,34
795 1048 m 1,47,-1
 795 1031 l 1,48,-1
 863 997 l 1,49,-1
 863 1014 l 1,50,-1
 812 1048 l 1,51,-1
 795 1048 l 1,47,-1
948 810 m 1,52,-1
 931 606 l 1,53,-1
 965 606 l 1,54,-1
 965 657 l 1,55,-1
 982 725 l 1,56,-1
 965 810 l 1,57,-1
 948 810 l 1,52,-1
1067 674 m 1,58,-1
 982 402 l 1,59,-1
 982 385 l 1,60,-1
 999 385 l 1,61,-1
 1084 640 l 1,62,-1
 1084 674 l 1,63,-1
 1067 674 l 1,58,-1
897 555 m 1,64,-1
 863 487 l 1,65,-1
 880 487 l 1,66,-1
 914 555 l 1,67,-1
 897 555 l 1,64,-1
795 249 m 1,68,69
 835 255 835 255 914 351 c 1,70,-1
 914 368 l 1,71,-1
 795 249 l 1,68,69
404 147 m 1,72,-1
 404 130 l 1,73,-1
 472 130 l 1,74,-1
 557 164 l 1,75,-1
 557 181 l 1,76,-1
 540 181 l 1,77,-1
 404 147 l 1,72,-1
268 130 m 1,78,-1
 285 79 l 1,79,-1
 319 79 l 1,80,-1
 353 113 l 1,81,-1
 353 130 l 1,82,-1
 336 130 l 1,83,-1
 285 113 l 1,84,-1
 268 130 l 1,78,-1
81 28 m 1,85,-1
 98 28 l 1,86,-1
 98 11 l 1,87,-1
 64 -23 l 1,88,-1
 47 -23 l 1,89,-1
 47 -6 l 1,90,-1
 81 28 l 1,85,-1
EndSplineSet
Validated: 1
EndChar

StartChar: e
Encoding: 101 101 66
Width: 1028
GlyphClass: 1
Flags: W
LayerCount: 2
Fore
SplineSet
941 1332 m 1,0,-1
 1023 1275 l 1,1,2
 986 1136 986 1136 893 1130 c 1,3,-1
 449 1110 l 1,4,-1
 447 1076 l 1,5,-1
 531 1070 l 1,6,-1
 634 1080 l 1,7,-1
 650 1061 l 1,8,-1
 667 1060 l 1,9,-1
 787 1070 l 1,10,-1
 821 1067 l 1,11,-1
 820 1050 l 1,12,-1
 425 1009 l 1,13,-1
 394 789 l 1,14,-1
 411 788 l 1,15,-1
 873 825 l 1,16,-1
 888 807 l 1,17,-1
 887 790 l 1,18,-1
 853 793 l 1,19,-1
 853 776 l 1,20,-1
 970 750 l 1,21,-1
 969 733 l 1,22,23
 932 638 932 638 481 579 c 1,24,-1
 310 573 l 1,25,-1
 326 556 l 1,26,-1
 244 340 l 1,27,-1
 227 340 l 1,28,-1
 237 493 l 1,29,-1
 220 494 l 1,30,-1
 187 258 l 1,31,32
 609 314 609 314 826 314 c 0,33,34
 869 314 869 314 906 312 c 1,35,-1
 989 289 l 1,36,-1
 988 255 l 1,37,-1
 954 257 l 1,38,-1
 969 239 l 1,39,-1
 966 188 l 1,40,41
 910 134 910 134 758 134 c 1,42,-1
 757 117 l 1,43,-1
 893 108 l 1,44,-1
 890 74 l 1,45,-1
 99 -42 l 1,46,-1
 82 -41 l 1,47,48
 0 -23 0 -23 0 12 c 2,49,-1
 0 15 l 1,50,-1
 3 66 l 1,51,-1
 50 250 l 1,52,-1
 34 268 l 1,53,-1
 68 267 l 1,54,-1
 62 182 l 1,55,-1
 79 180 l 1,56,57
 88 259 88 259 119 262 c 1,58,-1
 103 281 l 1,59,-1
 115 450 l 1,60,-1
 81 453 l 1,61,-1
 58 369 l 1,62,-1
 77 385 l 1,63,-1
 94 384 l 1,64,-1
 87 282 l 1,65,-1
 70 284 l 1,66,-1
 73 334 l 1,67,-1
 56 335 l 1,68,-1
 54 301 l 1,69,-1
 37 302 l 1,70,-1
 39 336 l 1,71,-1
 93 623 l 1,72,-1
 76 624 l 1,73,-1
 115 706 l 1,74,-1
 99 724 l 1,75,-1
 100 741 l 1,76,-1
 137 1028 l 1,77,-1
 153 1010 l 1,78,-1
 170 1009 l 1,79,-1
 172 1043 l 1,80,-1
 161 1129 l 1,81,-1
 188 1281 l 1,82,-1
 191 1332 l 1,83,-1
 208 1330 l 1,84,-1
 224 1312 l 1,85,-1
 242 1328 l 1,86,-1
 259 1326 l 1,87,-1
 275 1309 l 1,88,-1
 293 1325 l 1,89,-1
 344 1321 l 1,90,-1
 941 1332 l 1,0,-1
90 589 m 1,91,-1
 82 470 l 1,92,-1
 99 469 l 1,93,-1
 107 587 l 1,94,-1
 90 589 l 1,91,-1
651 567 m 1,95,-1
 668 567 l 1,96,-1
 666 550 l 1,97,-1
 358 519 l 1,98,-1
 342 538 l 1,99,-1
 343 554 l 1,100,-1
 497 561 l 1,101,-1
 496 544 l 1,102,-1
 651 567 l 1,95,-1
EndSplineSet
Validated: 1
EndChar

StartChar: f
Encoding: 102 102 67
Width: 966
GlyphClass: 1
Flags: W
LayerCount: 2
Fore
SplineSet
661 1385 m 1,0,-1
 659 1351 l 1,1,-1
 608 1351 l 1,2,-1
 607 1334 l 1,3,-1
 624 1334 l 1,4,-1
 948 1351 l 1,5,-1
 1016 1351 l 1,6,-1
 1015 1334 l 1,7,-1
 980 1300 l 1,8,-1
 996 1283 l 1,9,-1
 995 1249 l 2,10,11
 992 1161 992 1161 940 1147 c 1,12,-1
 956 1096 l 1,13,-1
 936 1045 l 1,14,-1
 920 1062 l 1,15,-1
 903 1062 l 1,16,17
 665 1050 665 1050 664 1028 c 1,18,-1
 647 1045 l 1,19,20
 357 999 357 999 352 875 c 2,21,-1
 347 739 l 1,22,-1
 756 773 l 1,23,-1
 773 756 l 1,24,-1
 772 739 l 1,25,-1
 687 739 l 1,26,-1
 686 722 l 1,27,28
 769 720 769 720 769 688 c 2,29,-1
 769 671 l 2,30,31
 769 586 769 586 732 586 c 2,32,-1
 630 586 l 1,33,-1
 629 569 l 1,34,-1
 748 569 l 1,35,-1
 747 535 l 2,36,37
 746 506 746 506 317 416 c 1,38,-1
 293 229 l 1,39,-1
 310 212 l 1,40,-1
 310 195 l 1,41,-1
 292 178 l 1,42,-1
 291 161 l 1,43,-1
 306 110 l 1,44,-1
 289 110 l 1,45,-1
 304 59 l 1,46,47
 302 -14 302 -14 185 -205 c 1,48,-1
 49 -188 l 1,49,-1
 72 -18 l 1,50,51
 7 -18 7 -18 7 45 c 2,52,-1
 7 50 l 1,53,54
 33 93 33 93 69 586 c 1,55,-1
 103 586 l 1,56,-1
 87 603 l 1,57,-1
 109 739 l 1,58,-1
 125 722 l 1,59,-1
 142 722 l 1,60,-1
 166 892 l 1,61,-1
 169 960 l 1,62,63
 84 960 84 960 84 994 c 1,64,-1
 120 1045 l 1,65,66
 55 1058 55 1058 55 1100 c 0,67,68
 55 1249 55 1249 111 1249 c 0,69,70
 196 1249 196 1249 199 1334 c 1,71,-1
 216 1334 l 1,72,-1
 232 1317 l 1,73,-1
 268 1351 l 1,74,-1
 319 1351 l 1,75,-1
 368 1300 l 1,76,-1
 661 1385 l 1,0,-1
708 1300 m 1,77,-1
 707 1283 l 1,78,-1
 758 1283 l 1,79,-1
 946 1300 l 1,80,-1
 946 1317 l 1,81,-1
 844 1317 l 1,82,-1
 708 1300 l 1,77,-1
548 1113 m 1,83,-1
 548 1096 l 1,84,-1
 565 1096 l 1,85,-1
 905 1130 l 1,86,-1
 906 1147 l 1,87,-1
 856 1164 l 1,88,-1
 838 1147 l 1,89,-1
 821 1147 l 1,90,-1
 805 1164 l 1,91,-1
 548 1113 l 1,83,-1
97 433 m 1,92,-1
 90 246 l 1,93,-1
 107 246 l 1,94,-1
 114 433 l 1,95,-1
 97 433 l 1,92,-1
122 -52 m 1,96,-1
 119 -120 l 1,97,-1
 136 -120 l 1,98,-1
 139 -52 l 1,99,-1
 122 -52 l 1,96,-1
EndSplineSet
Validated: 1
EndChar

StartChar: g
Encoding: 103 103 68
Width: 1229
GlyphClass: 1
Flags: W
LayerCount: 2
Fore
SplineSet
725 1304 m 1,0,-1
 740 1287 l 1,1,-1
 757 1287 l 1,2,-1
 759 1304 l 1,3,4
 1021 1230 1021 1230 1026 1100 c 1,5,-1
 1048 998 l 1,6,-1
 1014 998 l 1,7,8
 1011 1066 1011 1066 987 1066 c 2,9,-1
 970 1066 l 1,10,-1
 979 981 l 1,11,-1
 976 964 l 1,12,-1
 942 964 l 2,13,14
 908 964 908 964 914 1015 c 1,15,-1
 895 998 l 1,16,-1
 878 998 l 1,17,18
 793 1066 793 1066 715 1066 c 0,19,20
 545 1066 545 1066 320 709 c 1,21,-1
 266 522 l 1,22,23
 272 294 272 294 452 199 c 1,24,-1
 448 165 l 1,25,-1
 414 165 l 1,26,-1
 412 148 l 1,27,-1
 446 148 l 2,28,29
 567 148 567 148 802 454 c 1,30,-1
 804 471 l 1,31,-1
 787 471 l 1,32,33
 652 308 652 308 540 233 c 1,34,-1
 527 235 l 1,35,-1
 734 454 l 1,36,-1
 615 454 l 1,37,38
 619 488 619 488 568 488 c 1,39,-1
 553 505 l 1,40,-1
 555 522 l 2,41,42
 559 556 559 556 730 573 c 1,43,-1
 734 607 l 1,44,-1
 715 590 l 1,45,-1
 613 590 l 1,46,-1
 524 709 l 1,47,-1
 543 726 l 1,48,-1
 544 743 l 1,49,-1
 730 726 l 1,50,-1
 1177 777 l 1,51,-1
 1179 794 l 1,52,53
 1100 796 1100 796 1098 828 c 1,54,-1
 1115 828 l 1,55,-1
 1130 811 l 1,56,-1
 1149 828 l 1,57,-1
 1166 828 l 1,58,59
 1343 778 1343 778 1343 744 c 0,60,61
 1343 743 1343 743 1343 743 c 2,62,-1
 1342 726 l 1,63,-1
 1323 709 l 1,64,-1
 1321 692 l 1,65,-1
 1389 692 l 1,66,-1
 1385 658 l 1,67,-1
 1368 658 l 1,68,-1
 1093 624 l 1,69,-1
 1091 607 l 1,70,-1
 1108 607 l 1,71,-1
 1263 624 l 1,72,-1
 1259 590 l 1,73,74
 1089 590 1089 590 1074 454 c 1,75,-1
 993 182 l 1,76,-1
 1009 165 l 1,77,-1
 1007 148 l 1,78,-1
 980 63 l 1,79,-1
 983 -73 l 1,80,-1
 946 -107 l 1,81,-1
 960 -124 l 1,82,83
 890 -146 890 -146 884 -209 c 1,84,-1
 833 -209 l 2,85,86
 820 -209 820 -209 815 -56 c 1,87,-1
 798 -56 l 1,88,-1
 785 -175 l 1,89,-1
 734 -175 l 1,90,-1
 743 -90 l 1,91,-1
 739 29 l 1,92,-1
 705 29 l 1,93,94
 608 -39 608 -39 510 -39 c 2,95,-1
 425 -39 l 1,96,-1
 396 -5 l 1,97,-1
 397 12 l 1,98,-1
 431 12 l 1,99,-1
 433 29 l 1,100,101
 80 29 80 29 51 267 c 1,102,103
 31 377 31 377 31 487 c 0,104,105
 31 533 31 533 39 624 c 2,106,-1
 42 658 l 2,107,108
 52 777 52 777 164 998 c 1,109,-1
 178 995 l 1,110,-1
 177 964 l 1,111,-1
 113 845 l 1,112,-1
 112 828 l 1,113,-1
 129 828 l 1,114,115
 146 983 146 983 460 1219 c 1,116,-1
 477 1219 l 1,117,-1
 479 1236 l 1,118,-1
 462 1236 l 1,119,-1
 409 1219 l 1,120,121
 459 1304 459 1304 725 1304 c 1,0,-1
374 1202 m 1,122,-1
 391 1202 l 1,123,-1
 262 1088 l 1,124,-1
 261 1100 l 1,125,-1
 374 1202 l 1,122,-1
624 1168 m 1,126,-1
 623 1151 l 1,127,-1
 742 1151 l 1,128,-1
 743 1168 l 1,129,-1
 624 1168 l 1,126,-1
257 1081 m 1,130,-1
 256 1066 l 1,131,-1
 184 1003 l 1,132,-1
 183 1015 l 1,133,-1
 257 1081 l 1,130,-1
1011 811 m 1,134,-1
 1079 811 l 1,135,-1
 1041 777 l 1,136,-1
 1011 811 l 1,134,-1
506 233 m 1,137,-1
 519 231 l 1,138,-1
 486 199 l 1,139,-1
 469 199 l 1,140,-1
 506 233 l 1,137,-1
589 63 m 1,141,-1
 733 131 l 1,142,-1
 737 165 l 1,143,-1
 720 165 l 1,144,-1
 589 63 l 1,141,-1
465 12 m 1,145,-1
 464 -5 l 1,146,-1
 549 -5 l 1,147,-1
 550 12 l 1,148,-1
 465 12 l 1,145,-1
EndSplineSet
Validated: 1
EndChar

StartChar: h
Encoding: 104 104 69
Width: 1124
GlyphClass: 1
Flags: W
LayerCount: 2
Fore
SplineSet
224 1342 m 1,0,-1
 241 1342 l 1,1,-1
 241 1291 l 1,2,-1
 258 1291 l 1,3,-1
 258 1325 l 1,4,-1
 326 1325 l 2,5,6
 360 1325 360 1325 360 1223 c 1,7,-1
 411 1206 l 1,8,9
 411 1257 411 1257 445 1257 c 1,10,-1
 462 1240 l 1,11,-1
 462 1223 l 1,12,-1
 377 764 l 1,13,-1
 632 781 l 1,14,-1
 802 781 l 1,15,-1
 819 866 l 1,16,-1
 802 883 l 1,17,-1
 836 883 l 1,18,-1
 819 1002 l 1,19,-1
 819 1019 l 1,20,-1
 853 1019 l 1,21,-1
 836 1036 l 1,22,-1
 836 1070 l 1,23,-1
 870 1070 l 1,24,-1
 870 1104 l 1,25,-1
 836 1104 l 1,26,-1
 836 1121 l 1,27,-1
 870 1121 l 1,28,-1
 853 1138 l 1,29,-1
 853 1257 l 1,30,-1
 870 1240 l 1,31,-1
 887 1240 l 1,32,-1
 887 1308 l 1,33,-1
 870 1325 l 1,34,-1
 870 1342 l 1,35,-1
 921 1342 l 1,36,-1
 836 764 l 1,37,38
 870 764 870 764 938 1325 c 1,39,-1
 1006 1342 l 1,40,41
 1023 1206 1023 1206 1057 1206 c 2,42,-1
 1074 1206 l 1,43,44
 1074 1257 1074 1257 1108 1257 c 2,45,-1
 1125 1257 l 1,46,47
 1040 669 1040 669 870 -120 c 1,48,-1
 853 -120 l 1,49,-1
 836 -103 l 1,50,-1
 853 -86 l 1,51,-1
 853 50 l 1,52,-1
 836 50 l 1,53,-1
 785 -120 l 1,54,-1
 734 -120 l 2,55,56
 700 -120 700 -120 700 -18 c 1,57,-1
 683 -18 l 1,58,-1
 683 -86 l 1,59,-1
 666 -86 l 2,60,61
 632 -86 632 -86 632 -35 c 0,62,63
 632 88 632 88 734 543 c 1,64,-1
 717 543 l 1,65,-1
 496 526 l 1,66,-1
 343 543 l 1,67,68
 292 135 292 135 241 -1 c 1,69,-1
 190 -1 l 2,70,71
 156 -1 156 -1 156 135 c 1,72,-1
 139 135 l 1,73,-1
 122 16 l 1,74,-1
 88 50 l 1,75,-1
 88 101 l 1,76,-1
 105 118 l 1,77,-1
 105 135 l 1,78,-1
 88 152 l 1,79,-1
 71 152 l 1,80,-1
 54 135 l 1,81,-1
 37 135 l 1,82,-1
 20 203 l 1,83,84
 88 777 88 777 173 1036 c 1,85,-1
 190 1036 l 1,86,-1
 173 1053 l 1,87,-1
 173 1104 l 1,88,-1
 224 1291 l 1,89,-1
 207 1291 l 1,90,-1
 224 1342 l 1,0,-1
241 1274 m 1,91,-1
 241 1155 l 1,92,-1
 258 1155 l 1,93,-1
 258 1274 l 1,94,-1
 241 1274 l 1,91,-1
224 1138 m 1,95,-1
 207 1002 l 1,96,-1
 207 968 l 1,97,-1
 224 968 l 1,98,-1
 241 1104 l 1,99,-1
 241 1138 l 1,100,-1
 224 1138 l 1,95,-1
190 951 m 1,101,-1
 190 883 l 1,102,-1
 207 883 l 1,103,-1
 207 951 l 1,104,-1
 190 951 l 1,101,-1
173 866 m 1,105,-1
 156 781 l 1,106,-1
 156 764 l 1,107,-1
 173 764 l 1,108,-1
 190 832 l 1,109,-1
 190 866 l 1,110,-1
 173 866 l 1,105,-1
139 696 m 1,111,-1
 139 628 l 1,112,-1
 156 628 l 1,113,-1
 156 696 l 1,114,-1
 139 696 l 1,111,-1
785 526 m 1,115,-1
 768 424 l 1,116,-1
 768 407 l 1,117,-1
 785 407 l 1,118,-1
 802 492 l 1,119,-1
 802 526 l 1,120,-1
 785 526 l 1,115,-1
751 390 m 1,121,-1
 751 322 l 1,122,-1
 768 322 l 1,123,-1
 768 390 l 1,124,-1
 751 390 l 1,121,-1
870 203 m 1,125,-1
 853 118 l 1,126,-1
 853 67 l 1,127,-1
 870 67 l 1,128,-1
 887 186 l 1,129,-1
 887 203 l 1,130,-1
 870 203 l 1,125,-1
37 118 m 1,131,-1
 54 118 l 1,132,-1
 54 33 l 1,133,-1
 37 33 l 1,134,-1
 37 118 l 1,131,-1
EndSplineSet
Validated: 1
EndChar

StartChar: i
Encoding: 105 105 70
Width: 481
GlyphClass: 1
Flags: W
LayerCount: 2
Fore
SplineSet
385 1326 m 1,0,1
 386 1279 386 1279 449 1275 c 1,2,-1
 480 1207 l 1,3,-1
 462 1190 l 1,4,-1
 479 1190 l 1,5,6
 357 830 357 830 330 357 c 2,7,-1
 324 255 l 1,8,-1
 341 238 l 1,9,-1
 340 221 l 1,10,-1
 322 204 l 1,11,-1
 339 204 l 1,12,-1
 321 187 l 1,13,-1
 331 68 l 1,14,-1
 329 34 l 1,15,16
 238 -76 238 -76 234 -136 c 1,17,-1
 166 -136 l 1,18,-1
 84 -102 l 1,19,-1
 108 17 l 1,20,-1
 43 85 l 1,21,-1
 74 340 l 1,22,-1
 91 646 l 1,23,-1
 128 697 l 1,24,-1
 132 765 l 1,25,-1
 116 782 l 1,26,-1
 117 799 l 1,27,-1
 151 799 l 1,28,-1
 152 816 l 1,29,-1
 136 833 l 1,30,-1
 205 1156 l 1,31,-1
 188 1156 l 1,32,-1
 206 1173 l 1,33,-1
 211 1275 l 1,34,-1
 195 1292 l 1,35,-1
 196 1309 l 1,36,-1
 385 1326 l 1,0,1
197 1020 m 1,37,-1
 191 901 l 1,38,-1
 208 901 l 1,39,-1
 214 1020 l 1,40,-1
 197 1020 l 1,37,-1
171 850 m 1,41,-1
 165 748 l 1,42,-1
 182 748 l 1,43,-1
 188 850 l 1,44,-1
 171 850 l 1,41,-1
145 697 m 1,45,-1
 140 595 l 1,46,-1
 157 595 l 1,47,-1
 162 697 l 1,48,-1
 145 697 l 1,45,-1
142 17 m 1,49,-1
 137 -68 l 1,50,-1
 172 -34 l 1,51,-1
 176 17 l 1,52,-1
 142 17 l 1,49,-1
EndSplineSet
Validated: 1
EndChar

StartChar: j
Encoding: 106 106 71
Width: 940
GlyphClass: 1
Flags: W
LayerCount: 2
Fore
SplineSet
823 1362 m 1,0,-1
 823 1277 l 1,1,-1
 874 1277 l 1,2,-1
 874 1328 l 1,3,-1
 942 1328 l 1,4,5
 778 -64 778 -64 598 -64 c 1,6,7
 598 -98 598 -98 428 -149 c 1,8,-1
 411 -132 l 1,9,-1
 394 -132 l 1,10,-1
 309 -149 l 1,11,-1
 292 -132 l 1,12,-1
 292 -149 l 1,13,14
 122 -149 122 -149 122 4 c 1,15,-1
 3 55 l 1,16,-1
 3 106 l 1,17,-1
 20 89 l 1,18,-1
 71 89 l 1,19,-1
 71 106 l 1,20,21
 63 327 63 327 37 327 c 1,22,-1
 71 429 l 1,23,24
 117 429 117 429 173 480 c 1,25,-1
 241 480 l 1,26,-1
 258 378 l 1,27,-1
 292 378 l 1,28,-1
 292 412 l 1,29,-1
 275 429 l 1,30,-1
 275 446 l 1,31,-1
 292 463 l 1,32,-1
 326 463 l 1,33,34
 326 412 326 412 377 412 c 1,35,-1
 360 293 l 1,36,-1
 360 242 l 1,37,38
 371 140 371 140 411 140 c 1,39,-1
 462 293 l 1,40,-1
 479 276 l 1,41,-1
 513 276 l 2,42,43
 589 276 589 276 704 1243 c 1,44,-1
 721 1345 l 1,45,-1
 738 1362 l 1,46,-1
 823 1362 l 1,0,-1
530 565 m 1,47,-1
 547 565 l 1,48,-1
 547 497 l 1,49,-1
 530 497 l 1,50,-1
 530 565 l 1,47,-1
513 480 m 1,51,-1
 530 480 l 1,52,53
 530 429 530 429 564 429 c 1,54,55
 564 395 564 395 513 395 c 1,56,-1
 530 378 l 1,57,-1
 530 361 l 1,58,-1
 496 327 l 1,59,-1
 513 327 l 1,60,-1
 530 344 l 1,61,-1
 530 310 l 1,62,-1
 479 293 l 1,63,-1
 479 310 l 1,64,-1
 513 480 l 1,51,-1
71 412 m 1,65,-1
 71 327 l 1,66,-1
 88 327 l 1,67,-1
 88 412 l 1,68,-1
 71 412 l 1,65,-1
EndSplineSet
Validated: 1
EndChar

StartChar: k
Encoding: 107 107 72
Width: 1103
GlyphClass: 1
Flags: W
LayerCount: 2
Fore
SplineSet
989 1386 m 1,0,-1
 1006 1369 l 1,1,-1
 1006 1352 l 1,2,-1
 989 1335 l 1,3,-1
 972 1352 l 1,4,-1
 955 1352 l 1,5,-1
 802 1250 l 1,6,-1
 788 1253 l 1,7,8
 788 1296 788 1296 989 1386 c 1,0,-1
326 1352 m 1,9,-1
 343 1199 l 1,10,11
 377 1199 377 1199 394 1301 c 1,12,-1
 411 1301 l 1,13,-1
 428 1233 l 1,14,-1
 377 961 l 1,15,-1
 564 1097 l 1,16,-1
 578 1097 l 1,17,-1
 377 910 l 1,18,-1
 377 893 l 1,19,-1
 768 1182 l 1,20,-1
 785 1165 l 1,21,22
 1014 1352 1014 1352 1091 1352 c 2,23,-1
 1108 1352 l 1,24,-1
 1125 1284 l 1,25,-1
 989 1148 l 1,26,-1
 1006 1148 l 1,27,28
 1040 1216 1040 1216 1108 1216 c 1,29,-1
 1125 1199 l 1,30,-1
 1125 1216 l 1,31,-1
 1108 1233 l 1,32,-1
 1125 1250 l 1,33,-1
 1176 1250 l 1,34,-1
 1193 1199 l 1,35,36
 1065 1139 1065 1139 598 757 c 1,37,38
 713 506 713 506 1006 77 c 1,39,-1
 1006 43 l 1,40,-1
 989 -76 l 1,41,-1
 972 -59 l 1,42,-1
 955 -59 l 1,43,-1
 938 -127 l 1,44,-1
 870 -127 l 1,45,-1
 870 -93 l 1,46,-1
 853 -93 l 1,47,-1
 853 -127 l 1,48,-1
 819 -127 l 1,49,50
 819 -67 819 -67 445 502 c 1,51,-1
 411 604 l 1,52,-1
 326 587 l 1,53,54
 304 178 304 178 219 77 c 1,55,-1
 219 60 l 1,56,-1
 49 77 l 1,57,-1
 49 128 l 1,58,-1
 66 247 l 1,59,60
 15 247 15 247 15 349 c 1,61,62
 43 519 43 519 71 519 c 1,63,-1
 54 536 l 1,64,65
 105 1004 105 1004 156 1097 c 1,66,-1
 139 1148 l 1,67,-1
 190 1284 l 1,68,-1
 190 1301 l 1,69,-1
 173 1318 l 1,70,-1
 173 1335 l 1,71,-1
 207 1335 l 1,72,-1
 207 1216 l 1,73,-1
 224 1216 l 1,74,-1
 241 1267 l 1,75,-1
 224 1284 l 1,76,-1
 224 1301 l 1,77,78
 241 1352 241 1352 326 1352 c 1,9,-1
768 1250 m 1,79,-1
 781 1250 l 1,80,-1
 717 1182 l 1,81,-1
 704 1182 l 1,82,-1
 768 1250 l 1,79,-1
190 1165 m 1,83,-1
 173 1063 l 1,84,-1
 173 995 l 1,85,-1
 190 995 l 1,86,-1
 207 1148 l 1,87,-1
 207 1165 l 1,88,-1
 190 1165 l 1,83,-1
683 1182 m 1,89,-1
 700 1182 l 1,90,-1
 598 1097 l 1,91,-1
 583 1097 l 1,92,-1
 683 1182 l 1,89,-1
904 1114 m 1,93,-1
 836 1063 l 1,94,-1
 819 1046 l 1,95,-1
 819 1029 l 1,96,-1
 836 1029 l 1,97,-1
 904 1080 l 1,98,-1
 921 1097 l 1,99,-1
 921 1114 l 1,100,-1
 904 1114 l 1,93,-1
615 145 m 1,101,-1
 632 145 l 1,102,-1
 679 94 l 1,103,-1
 666 94 l 1,104,-1
 615 145 l 1,101,-1
683 94 m 1,105,106
 726 94 726 94 768 -76 c 1,107,-1
 768 -93 l 1,108,-1
 751 -93 l 1,109,-1
 683 94 l 1,105,106
EndSplineSet
Validated: 1
EndChar

StartChar: l
Encoding: 108 108 73
Width: 1062
GlyphClass: 1
Flags: W
LayerCount: 2
Fore
SplineSet
262 1342 m 2,0,1
 296 1342 296 1342 296 1240 c 1,2,-1
 330 1240 l 1,3,-1
 381 1274 l 1,4,-1
 398 1257 l 1,5,-1
 313 305 l 1,6,7
 421 356 421 356 891 424 c 1,8,-1
 908 424 l 1,9,-1
 908 407 l 1,10,11
 313 310 313 310 313 254 c 1,12,-1
 500 305 l 1,13,-1
 500 288 l 1,14,-1
 823 356 l 1,15,-1
 823 339 l 1,16,-1
 840 356 l 1,17,-1
 857 356 l 1,18,-1
 874 339 l 1,19,-1
 959 356 l 1,20,-1
 1027 356 l 1,21,-1
 1146 339 l 1,22,-1
 1146 322 l 2,23,24
 1146 271 1146 271 891 237 c 1,25,-1
 891 220 l 1,26,-1
 908 237 l 1,27,-1
 925 237 l 1,28,-1
 1044 220 l 1,29,-1
 1061 237 l 1,30,-1
 1061 186 l 1,31,-1
 500 50 l 1,32,-1
 143 -86 l 1,33,-1
 92 -86 l 1,34,-1
 24 -1 l 1,35,-1
 7 -1 l 1,36,-1
 7 16 l 2,37,38
 7 59 7 59 75 67 c 1,39,-1
 75 118 l 1,40,-1
 24 186 l 1,41,-1
 92 951 l 1,42,-1
 109 951 l 1,43,-1
 109 883 l 1,44,-1
 92 764 l 1,45,-1
 126 764 l 1,46,-1
 92 543 l 1,47,-1
 109 526 l 1,48,-1
 92 458 l 1,49,-1
 92 373 l 1,50,-1
 109 373 l 1,51,-1
 177 1274 l 1,52,53
 211 1274 211 1274 211 1325 c 1,54,-1
 228 1342 l 1,55,-1
 262 1342 l 2,0,1
EndSplineSet
Validated: 1
EndChar

StartChar: m
Encoding: 109 109 74
Width: 1212
GlyphClass: 1
Flags: W
LayerCount: 2
Fore
SplineSet
901 1356 m 1,0,-1
 935 1356 l 1,1,-1
 932 1322 l 1,2,-1
 892 1254 l 1,3,-1
 877 1271 l 1,4,-1
 860 1271 l 1,5,-1
 901 1356 l 1,0,-1
271 1339 m 1,6,-1
 305 1339 l 1,7,-1
 353 1305 l 1,8,-1
 354 1322 l 1,9,10
 445 1305 445 1305 483 1237 c 1,11,12
 542 1237 542 1237 605 880 c 1,13,-1
 840 1237 l 1,14,-1
 858 1254 l 1,15,-1
 875 1254 l 1,16,-1
 874 1237 l 1,17,-1
 633 812 l 1,18,-1
 667 812 l 1,19,20
 934 1339 934 1339 985 1339 c 1,21,-1
 1033 1305 l 1,22,-1
 1034 1322 l 1,23,24
 1107 1322 1107 1322 1207 1152 c 1,25,-1
 1202 1101 l 1,26,-1
 1184 1084 l 1,27,-1
 1199 1067 l 1,28,-1
 1193 999 l 1,29,-1
 1159 999 l 1,30,-1
 1184 897 l 1,31,-1
 1151 710 l 1,32,-1
 1146 659 l 1,33,-1
 1162 642 l 1,34,-1
 1160 625 l 1,35,-1
 1124 591 l 1,36,-1
 1154 557 l 1,37,-1
 1118 523 l 1,38,-1
 1148 489 l 1,39,-1
 1130 472 l 1,40,-1
 1113 472 l 1,41,-1
 1129 455 l 1,42,-1
 1087 -21 l 1,43,44
 1036 -21 1036 -21 1032 -72 c 1,45,46
 981 -72 981 -72 973 -157 c 1,47,-1
 922 -157 l 1,48,-1
 826 -89 l 1,49,-1
 852 13 l 1,50,-1
 827 115 l 1,51,-1
 942 846 l 1,52,53
 857 757 857 757 756 472 c 1,54,55
 747 373 747 373 676 336 c 1,56,-1
 659 336 l 1,57,-1
 660 353 l 1,58,-1
 679 370 l 1,59,-1
 681 387 l 1,60,-1
 665 404 l 1,61,-1
 702 438 l 1,62,-1
 706 489 l 1,63,-1
 672 489 l 1,64,65
 665 396 665 396 592 353 c 1,66,-1
 575 353 l 1,67,-1
 498 438 l 1,68,69
 453 438 453 438 444 591 c 1,70,71
 365 772 365 772 364 846 c 1,72,-1
 347 846 l 1,73,-1
 312 642 l 1,74,-1
 300 506 l 1,75,-1
 279 455 l 1,76,-1
 288 370 l 1,77,-1
 256 -4 l 1,78,79
 222 -4 222 -4 217 -55 c 1,80,-1
 125 -140 l 1,81,-1
 108 -140 l 1,82,-1
 -7 -89 l 1,83,-1
 18 -4 l 1,84,-1
 17 183 l 1,85,-1
 24 268 l 1,86,-1
 42 285 l 1,87,-1
 27 302 l 1,88,-1
 29 319 l 1,89,90
 52 579 52 579 129 880 c 1,91,-1
 146 880 l 1,92,-1
 130 897 l 1,93,-1
 132 914 l 1,94,-1
 155 982 l 1,95,-1
 143 1050 l 1,96,-1
 145 1067 l 1,97,-1
 162 1067 l 1,98,-1
 159 1033 l 1,99,-1
 176 1033 l 1,100,-1
 181 1084 l 1,101,-1
 165 1101 l 1,102,-1
 227 1220 l 1,103,-1
 231 1271 l 1,104,-1
 212 1254 l 1,105,-1
 195 1254 l 1,106,-1
 180 1271 l 1,107,-1
 184 1322 l 1,108,-1
 201 1322 l 1,109,-1
 217 1305 l 1,110,-1
 234 1305 l 1,111,-1
 271 1339 l 1,6,-1
697 574 m 1,112,-1
 710 523 l 1,113,-1
 727 523 l 1,114,115
 734 614 734 614 937 982 c 1,116,-1
 961 1067 l 1,117,118
 834 909 834 909 697 574 c 1,112,-1
1000 931 m 1,119,-1
 982 914 l 1,120,-1
 944 489 l 1,121,-1
 961 489 l 1,122,-1
 1010 846 l 1,123,-1
 994 863 l 1,124,-1
 1011 863 l 1,125,-1
 996 880 l 1,126,-1
 997 897 l 1,127,-1
 1016 914 l 1,128,-1
 1017 931 l 1,129,-1
 1000 931 l 1,119,-1
889 47 m 1,130,-1
 877 -89 l 1,131,-1
 894 -89 l 1,132,-1
 919 -4 l 1,133,-1
 906 47 l 1,134,-1
 889 47 l 1,130,-1
EndSplineSet
Validated: 1
EndChar

StartChar: n
Encoding: 110 110 75
Width: 1283
GlyphClass: 1
Flags: W
LayerCount: 2
Fore
SplineSet
346 1324 m 1,0,-1
 465 1222 l 1,1,2
 465 1273 465 1273 499 1273 c 2,3,-1
 516 1273 l 1,4,-1
 754 661 l 1,5,-1
 753 627 l 1,6,-1
 737 627 l 1,7,-1
 703 729 l 1,8,-1
 686 729 l 1,9,-1
 686 695 l 1,10,-1
 805 406 l 1,11,-1
 822 406 l 1,12,13
 890 848 890 848 1018 1329 c 1,14,-1
 1069 1295 l 1,15,-1
 1120 1312 l 1,16,-1
 1222 1261 l 1,17,-1
 1222 1244 l 1,18,19
 1171 1244 1171 1244 1171 1176 c 1,20,-1
 1188 1176 l 1,21,-1
 1205 1159 l 1,22,-1
 1222 1159 l 1,23,-1
 1239 1244 l 1,24,-1
 1273 1244 l 1,25,-1
 1273 1227 l 1,26,-1
 1256 1210 l 1,27,-1
 1273 1193 l 1,28,-1
 1273 1176 l 1,29,30
 1145 783 1145 783 1043 49 c 1,31,-1
 1009 49 l 1,32,-1
 1043 321 l 1,33,34
 1009 321 1009 321 941 -2 c 1,35,36
 878 -53 878 -53 822 -53 c 1,37,-1
 822 -87 l 1,38,-1
 805 -87 l 1,39,40
 805 -53 805 -53 737 -53 c 1,41,-1
 737 66 l 2,42,43
 737 143 737 143 397 916 c 1,44,-1
 380 916 l 1,45,46
 312 613 312 613 261 100 c 1,47,-1
 244 117 l 1,48,49
 142 87 142 87 142 32 c 1,50,-1
 108 32 l 1,51,52
 74 96 74 96 74 253 c 1,53,-1
 57 253 l 1,54,-1
 57 100 l 1,55,-1
 23 100 l 1,56,-1
 6 185 l 1,57,58
 6 647 6 647 210 1307 c 1,59,-1
 346 1324 l 1,0,-1
108 899 m 1,60,-1
 108 882 l 1,61,-1
 125 865 l 1,62,-1
 108 848 l 1,63,-1
 108 814 l 1,64,-1
 125 814 l 1,65,-1
 142 882 l 1,66,-1
 125 899 l 1,67,-1
 108 899 l 1,60,-1
754 627 m 1,68,69
 798 627 798 627 822 491 c 1,70,-1
 822 474 l 1,71,-1
 805 474 l 1,72,-1
 754 627 l 1,68,69
EndSplineSet
Validated: 1
EndChar

StartChar: o
Encoding: 111 111 76
Width: 1250
GlyphClass: 1
Flags: W
LayerCount: 2
Fore
SplineSet
762 1337 m 1,0,1
 962 1337 962 1337 1136 1218 c 1,2,-1
 1119 1201 l 1,3,-1
 1119 1184 l 1,4,-1
 1187 1082 l 1,5,-1
 1153 1082 l 1,6,-1
 1136 1099 l 1,7,-1
 1119 1099 l 1,8,-1
 1170 725 l 1,9,-1
 1187 725 l 1,10,11
 1187 810 1187 810 1221 810 c 1,12,-1
 1221 742 l 2,13,14
 1221 646 1221 646 1051 300 c 1,15,-1
 1068 300 l 1,16,17
 948 135 948 135 711 -6 c 1,18,-1
 626 -23 l 1,19,-1
 609 -23 l 2,20,21
 205 -23 205 -23 99 300 c 1,22,-1
 31 402 l 1,23,-1
 48 419 l 1,24,-1
 31 538 l 1,25,-1
 31 572 l 2,26,27
 31 713 31 713 303 1065 c 1,28,-1
 303 1048 l 1,29,30
 178 880 178 880 99 674 c 1,31,-1
 99 657 l 1,32,-1
 116 657 l 1,33,34
 178 906 178 906 575 1286 c 1,35,-1
 456 1218 l 1,36,-1
 439 1218 l 1,37,38
 439 1296 439 1296 762 1337 c 1,0,1
677 1048 m 1,39,-1
 660 1065 l 1,40,-1
 660 1048 l 1,41,-1
 677 1031 l 1,42,-1
 558 929 l 1,43,44
 417 929 417 929 286 453 c 1,45,46
 286 317 286 317 439 215 c 1,47,-1
 456 215 l 2,48,49
 642 215 642 215 881 606 c 1,50,51
 966 792 966 792 966 878 c 2,52,-1
 966 1014 l 2,53,54
 966 1061 966 1061 796 1082 c 1,55,-1
 779 1082 l 1,56,-1
 762 1065 l 1,57,-1
 745 1065 l 1,58,-1
 745 1082 l 1,59,-1
 677 1048 l 1,39,-1
1170 997 m 1,60,-1
 1204 997 l 1,61,-1
 1204 912 l 1,62,-1
 1170 912 l 1,63,-1
 1170 997 l 1,60,-1
303 810 m 1,64,-1
 252 708 l 1,65,-1
 269 708 l 1,66,-1
 320 810 l 1,67,-1
 303 810 l 1,64,-1
966 708 m 1,68,-1
 898 538 l 1,69,-1
 949 538 l 1,70,-1
 1000 657 l 1,71,-1
 983 708 l 1,72,-1
 966 708 l 1,68,-1
1085 640 m 1,73,-1
 1068 589 l 1,74,-1
 1068 555 l 1,75,-1
 1085 555 l 1,76,-1
 1102 623 l 1,77,-1
 1102 640 l 1,78,-1
 1085 640 l 1,73,-1
82 572 m 1,79,-1
 82 436 l 1,80,-1
 99 436 l 1,81,-1
 99 572 l 1,82,-1
 82 572 l 1,79,-1
881 521 m 1,83,-1
 813 436 l 1,84,-1
 830 436 l 1,85,-1
 898 521 l 1,86,-1
 881 521 l 1,83,-1
337 147 m 1,87,-1
 337 130 l 1,88,-1
 422 79 l 1,89,-1
 422 96 l 1,90,-1
 337 147 l 1,87,-1
EndSplineSet
Validated: 1
EndChar

StartChar: p
Encoding: 112 112 77
Width: 1016
GlyphClass: 1
Flags: W
LayerCount: 2
Fore
SplineSet
205 1401 m 1,0,-1
 221 1384 l 1,1,-1
 221 1367 l 1,2,-1
 238 1384 l 1,3,-1
 323 1384 l 2,4,5
 351 1384 351 1384 355 1299 c 1,6,-1
 372 1299 l 1,7,8
 376 1350 376 1350 406 1350 c 256,9,10
 434 1350 434 1350 440 1299 c 1,11,-1
 560 1316 l 1,12,-1
 742 1282 l 1,13,-1
 810 1299 l 1,14,15
 940 1299 940 1299 1010 1163 c 1,16,-1
 992 1044 l 1,17,-1
 1008 1027 l 1,18,-1
 1008 1010 l 1,19,-1
 971 908 l 1,20,-1
 954 908 l 1,21,-1
 955 942 l 1,22,-1
 938 942 l 1,23,24
 806 622 806 622 566 500 c 1,25,-1
 290 381 l 1,26,-1
 281 92 l 1,27,-1
 295 7 l 1,28,29
 261 7 261 7 204 -163 c 1,30,-1
 187 -180 l 1,31,-1
 170 -180 l 1,32,-1
 36 -112 l 1,33,-1
 58 24 l 1,34,-1
 9 92 l 1,35,-1
 51 330 l 1,36,-1
 34 347 l 1,37,-1
 96 670 l 1,38,-1
 79 687 l 1,39,-1
 97 704 l 1,40,-1
 131 704 l 1,41,-1
 129 636 l 1,42,-1
 146 636 l 1,43,-1
 149 721 l 1,44,-1
 134 772 l 1,45,-1
 168 772 l 1,46,-1
 170 857 l 1,47,-1
 137 891 l 1,48,-1
 135 823 l 1,49,-1
 118 823 l 1,50,51
 114 932 114 932 22 993 c 1,52,-1
 8 1095 l 1,53,-1
 11 1163 l 1,54,55
 233 1254 233 1254 235 1282 c 2,56,-1
 236 1299 l 1,57,-1
 203 1333 l 1,58,-1
 186 1316 l 1,59,-1
 170 1384 l 1,60,-1
 188 1401 l 1,61,-1
 205 1401 l 1,0,-1
353 738 m 1,62,-1
 387 738 l 1,63,64
 606 830 606 830 771 1044 c 1,65,-1
 720 1044 l 1,66,67
 379 1021 379 1021 377 942 c 1,68,-1
 353 738 l 1,62,-1
786 976 m 1,69,70
 732 880 732 880 351 687 c 1,71,-1
 334 670 l 1,72,-1
 334 653 l 1,73,-1
 368 653 l 1,74,75
 619 730 619 730 803 976 c 1,76,-1
 786 976 l 1,69,70
95 619 m 1,77,-1
 94 602 l 1,78,-1
 110 585 l 1,79,-1
 93 568 l 1,80,-1
 91 534 l 1,81,-1
 125 534 l 1,82,-1
 129 619 l 1,83,-1
 95 619 l 1,77,-1
EndSplineSet
Validated: 1
EndChar

StartChar: q
Encoding: 113 113 78
Width: 1212
GlyphClass: 1
Flags: W
LayerCount: 2
Fore
SplineSet
723 1346 m 1,0,-1
 740 1346 l 1,1,-1
 757 1329 l 1,2,-1
 774 1346 l 1,3,-1
 791 1346 l 1,4,5
 1182 1166 1182 1166 1182 904 c 2,6,-1
 1182 785 l 2,7,8
 1182 423 1182 423 944 139 c 1,9,-1
 944 105 l 1,10,11
 1034 44 1034 44 1114 -82 c 1,12,-1
 1114 -99 l 1,13,14
 1002 -269 1002 -269 961 -269 c 0,15,16
 856 -269 856 -269 740 -48 c 1,17,-1
 621 -65 l 1,18,-1
 519 -65 l 1,19,-1
 417 -48 l 1,20,-1
 400 -48 l 1,21,-1
 400 -65 l 1,22,-1
 485 -82 l 1,23,-1
 485 -99 l 1,24,-1
 383 -116 l 1,25,26
 26 63 26 63 26 309 c 0,27,28
 26 800 26 800 298 1057 c 1,29,-1
 298 1074 l 1,30,31
 479 1295 479 1295 553 1295 c 1,32,-1
 553 1278 l 1,33,-1
 570 1261 l 1,34,-1
 723 1329 l 1,35,-1
 723 1346 l 1,0,-1
689 1159 m 1,36,-1
 740 1142 l 1,37,-1
 876 1176 l 1,38,-1
 876 1193 l 1,39,-1
 808 1193 l 1,40,-1
 791 1176 l 1,41,-1
 774 1176 l 1,42,-1
 774 1193 l 1,43,-1
 791 1210 l 1,44,-1
 791 1227 l 1,45,-1
 757 1227 l 1,46,47
 701 1210 701 1210 689 1159 c 1,36,-1
842 1142 m 1,48,-1
 825 1125 l 1,49,-1
 825 1108 l 1,50,-1
 927 1091 l 1,51,-1
 927 1125 l 1,52,-1
 842 1142 l 1,48,-1
264 428 m 2,53,-1
 264 394 l 2,54,55
 264 249 264 249 366 173 c 1,56,-1
 417 173 l 2,57,58
 515 173 515 173 621 292 c 1,59,-1
 553 462 l 1,60,-1
 570 479 l 1,61,-1
 604 479 l 1,62,-1
 604 445 l 1,63,-1
 621 462 l 1,64,-1
 638 462 l 1,65,-1
 757 428 l 1,66,67
 927 694 927 694 927 904 c 2,68,-1
 927 989 l 1,69,70
 884 1074 884 1074 791 1074 c 0,71,72
 634 1074 634 1074 383 751 c 1,73,74
 264 530 264 530 264 428 c 2,53,-1
1097 921 m 1,75,76
 1097 686 1097 686 1046 479 c 1,77,-1
 1046 462 l 1,78,-1
 1063 462 l 1,79,-1
 1131 819 l 1,80,-1
 1114 921 l 1,81,-1
 1097 921 l 1,75,76
961 904 m 1,82,83
 961 807 961 807 893 598 c 1,84,85
 978 626 978 626 978 853 c 2,86,-1
 978 904 l 1,87,-1
 961 904 l 1,82,83
876 513 m 1,88,89
 774 407 774 407 774 360 c 1,90,91
 828 384 828 384 893 513 c 1,92,-1
 876 513 l 1,88,89
893 241 m 1,93,-1
 893 224 l 1,94,-1
 910 224 l 1,95,-1
 1029 394 l 1,96,-1
 1029 411 l 1,97,98
 944 343 944 343 893 241 c 1,93,-1
60 326 m 1,99,-1
 77 224 l 1,100,-1
 94 224 l 1,101,-1
 94 309 l 1,102,-1
 77 326 l 1,103,-1
 60 326 l 1,99,-1
196 156 m 1,104,-1
 196 139 l 2,105,106
 196 56 196 56 383 -48 c 1,107,-1
 383 -31 l 1,108,109
 229 66 229 66 213 156 c 1,110,-1
 196 156 l 1,104,-1
EndSplineSet
Validated: 1
EndChar

StartChar: r
Encoding: 114 114 79
Width: 1016
GlyphClass: 1
Flags: W
LayerCount: 2
Fore
SplineSet
296 202 m 1,0,1
 296 107 296 107 276 80 c 1,2,3
 246 55 246 55 246 31 c 1,4,5
 246 12 246 12 259 -2 c 1,6,7
 259 -2 259 -2 259 -36 c 1,8,-1
 208 -36 l 2,9,10
 174 -36 174 -36 174 32 c 1,11,12
 157 32 157 32 157 32 c 1,13,14
 148 -15 148 -15 93 -19 c 1,15,16
 93 -19 93 -19 18 81 c 1,17,-1
 38 236 l 1,18,-1
 38 304 l 1,19,-1
 140 780 l 1,20,-1
 157 777 l 1,21,-1
 157 712 l 1,22,-1
 174 712 l 1,23,-1
 259 1069 l 1,24,25
 225 1069 225 1069 225 1001 c 1,26,27
 225 1001 225 1001 209 1003 c 1,28,-1
 208 1035 l 1,29,-1
 106 1035 l 1,30,-1
 106 1052 l 2,31,32
 106 1086 106 1086 208 1103 c 1,33,34
 208 1103 208 1103 208 1120 c 1,35,-1
 174 1120 l 1,36,-1
 72 1086 l 1,37,-1
 55 1086 l 1,38,39
 55 1120 55 1120 123 1120 c 1,40,41
 123 1137 123 1137 123 1137 c 1,42,43
 55 1137 55 1137 55 1188 c 1,44,45
 55 1188 55 1188 361 1341 c 1,46,-1
 565 1341 l 1,47,48
 922 1274 922 1274 922 1035 c 2,49,50
 922 1035 922 1035 922 933 c 1,51,-1
 752 695 l 1,52,-1
 769 695 l 1,53,-1
 936 846 l 1,54,-1
 939 814 l 1,55,56
 852 620 852 620 718 559 c 1,57,58
 718 559 718 559 616 525 c 1,59,-1
 616 457 l 1,60,61
 653 457 653 457 973 15 c 1,62,63
 1041 -13 1041 -13 1109 -121 c 1,64,65
 1109 -121 1109 -121 1109 -138 c 1,66,-1
 1024 -70 l 1,67,-1
 1024 -87 l 1,68,69
 1109 -177 1109 -177 1109 -223 c 1,70,71
 1109 -223 1109 -223 1092 -223 c 1,72,-1
 1007 -274 l 1,73,-1
 990 -274 l 1,74,-1
 956 -223 l 1,75,-1
 939 -240 l 1,76,-1
 922 -240 l 1,77,78
 582 38 582 38 446 321 c 1,79,80
 361 491 361 491 361 491 c 1,81,82
 301 491 301 491 293 287 c 1,83,84
 296 239 296 239 296 202 c 1,0,1
378 729 m 1,85,-1
 395 729 l 1,86,87
 662 857 662 857 769 1001 c 1,88,-1
 769 1035 l 2,89,90
 769 1093 769 1093 565 1154 c 1,91,-1
 463 1120 l 1,92,-1
 378 729 l 1,85,-1
718 1154 m 1,93,94
 752 1077 752 1077 786 1069 c 1,95,-1
 786 1103 l 1,96,-1
 718 1154 l 1,93,94
820 1052 m 1,97,-1
 803 967 l 1,98,-1
 820 967 l 1,99,-1
 837 984 l 1,100,-1
 837 1052 l 1,101,-1
 820 1052 l 1,97,-1
191 1001 m 1,102,-1
 208 1001 l 1,103,-1
 208 950 l 1,104,-1
 191 882 l 1,105,-1
 174 882 l 1,106,-1
 174 933 l 1,107,-1
 191 1001 l 1,102,-1
769 933 m 1,108,-1
 684 814 l 1,109,-1
 701 814 l 1,110,-1
 786 916 l 1,111,-1
 786 933 l 1,112,-1
 769 933 l 1,108,-1
939 899 m 1,113,-1
 973 899 l 1,114,-1
 956 848 l 1,115,-1
 939 848 l 1,116,-1
 939 899 l 1,113,-1
157 848 m 1,117,-1
 174 848 l 1,118,-1
 174 780 l 1,119,-1
 157 780 l 1,120,-1
 157 848 l 1,117,-1
123 627 m 1,121,-1
 123 559 l 1,122,-1
 140 559 l 1,123,-1
 140 627 l 1,124,-1
 123 627 l 1,121,-1
633 117 m 1,125,-1
 633 100 l 1,126,-1
 701 32 l 1,127,128
 668 109 668 109 633 117 c 1,125,-1
718 -2 m 1,129,-1
 718 -19 l 1,130,-1
 786 -70 l 1,131,-1
 786 -53 l 1,132,-1
 718 -2 l 1,129,-1
EndSplineSet
Validated: 1
EndChar

StartChar: s
Encoding: 115 115 80
Width: 986
GlyphClass: 1
Flags: W
LayerCount: 2
Fore
SplineSet
546 1357 m 1,0,1
 591 1323 591 1323 832 1323 c 1,2,-1
 831 1306 l 1,3,-1
 712 1306 l 1,4,-1
 711 1289 l 1,5,6
 924 1289 924 1289 977 1187 c 1,7,-1
 975 1153 l 1,8,-1
 890 1153 l 1,9,-1
 889 1136 l 1,10,-1
 1007 1119 l 1,11,-1
 1006 1102 l 1,12,-1
 904 1102 l 1,13,-1
 903 1085 l 1,14,15
 954 1085 954 1085 952 1051 c 1,16,17
 649 1051 649 1051 411 830 c 1,18,-1
 410 813 l 1,19,20
 739 725 739 725 931 422 c 1,21,-1
 930 405 l 1,22,23
 868 185 868 185 583 -3 c 1,24,-1
 479 -20 l 1,25,-1
 478 -37 l 1,26,-1
 512 -37 l 1,27,28
 510 -83 510 -83 200 -139 c 1,29,-1
 202 -105 l 1,30,-1
 287 -105 l 1,31,-1
 289 -88 l 1,32,33
 180 -88 180 -88 92 31 c 1,34,35
 16 70 16 70 16 180 c 0,36,37
 16 190 16 190 17 201 c 1,38,-1
 70 235 l 1,39,-1
 119 201 l 1,40,-1
 153 201 l 1,41,42
 633 276 633 276 648 507 c 1,43,44
 447 609 447 609 382 609 c 1,45,-1
 381 592 l 1,46,-1
 214 660 l 1,47,-1
 230 643 l 1,48,-1
 229 609 l 1,49,50
 23 765 23 765 22 847 c 1,51,-1
 155 1085 l 1,52,-1
 244 1153 l 1,53,-1
 242 1119 l 1,54,-1
 546 1357 l 1,0,1
314 898 m 1,55,-1
 313 881 l 1,56,-1
 613 1068 l 1,57,-1
 751 1102 l 1,58,-1
 753 1136 l 1,59,-1
 719 1136 l 1,60,61
 450 1036 450 1036 314 898 c 1,55,-1
408 201 m 1,62,-1
 425 201 l 1,63,-1
 461 235 l 1,64,-1
 444 235 l 1,65,-1
 408 201 l 1,62,-1
714 201 m 1,66,-1
 641 116 l 1,67,-1
 658 116 l 1,68,-1
 731 201 l 1,69,-1
 714 201 l 1,66,-1
501 65 m 1,70,-1
 501 48 l 1,71,-1
 518 48 l 1,72,-1
 589 99 l 1,73,-1
 501 65 l 1,70,-1
308 -54 m 1,74,-1
 307 -71 l 1,75,-1
 375 -71 l 1,76,-1
 461 -54 l 1,77,-1
 461 -37 l 1,78,-1
 444 -37 l 1,79,-1
 308 -54 l 1,74,-1
EndSplineSet
Validated: 1
EndChar

StartChar: t
Encoding: 116 116 81
Width: 919
GlyphClass: 1
Flags: W
LayerCount: 2
Fore
SplineSet
1038 1363 m 1,0,-1
 1089 1346 l 1,1,-1
 1089 1312 l 1,2,-1
 1038 1312 l 1,3,-1
 1072 1261 l 1,4,5
 1035 1176 1035 1176 800 1176 c 1,6,-1
 681 1159 l 1,7,-1
 664 1108 l 1,8,-1
 681 1108 l 1,9,10
 630 987 630 987 477 20 c 1,11,-1
 528 -201 l 1,12,-1
 511 -201 l 2,13,14
 473 -201 473 -201 443 -31 c 1,15,-1
 460 139 l 1,16,-1
 460 156 l 1,17,-1
 443 156 l 1,18,-1
 443 122 l 1,19,20
 392 122 392 122 392 88 c 2,21,-1
 392 71 l 1,22,-1
 426 -201 l 1,23,-1
 426 -218 l 1,24,-1
 392 -218 l 1,25,-1
 324 -167 l 1,26,-1
 307 -184 l 1,27,-1
 290 -184 l 1,28,29
 222 -37 222 -37 222 71 c 1,30,-1
 239 54 l 1,31,-1
 256 54 l 1,32,-1
 222 173 l 1,33,-1
 273 190 l 1,34,-1
 273 275 l 1,35,-1
 239 275 l 1,36,-1
 239 292 l 1,37,38
 290 292 290 292 290 326 c 2,39,-1
 290 343 l 1,40,-1
 256 343 l 1,41,42
 256 479 256 479 307 479 c 1,43,-1
 307 700 l 1,44,45
 334 724 334 724 375 1057 c 1,46,-1
 256 1040 l 1,47,-1
 18 1057 l 1,48,-1
 18 1074 l 1,49,-1
 103 1091 l 1,50,-1
 103 1074 l 1,51,-1
 120 1091 l 1,52,-1
 375 1091 l 1,53,-1
 375 1142 l 1,54,-1
 103 1108 l 1,55,-1
 86 1125 l 1,56,-1
 69 1125 l 1,57,-1
 -33 1108 l 1,58,-1
 -84 1142 l 1,59,-1
 -67 1227 l 1,60,-1
 -84 1244 l 1,61,62
 -84 1329 -84 1329 120 1329 c 1,63,-1
 1038 1363 l 1,0,-1
936 1312 m 1,64,-1
 936 1295 l 1,65,-1
 1004 1295 l 1,66,-1
 1004 1312 l 1,67,-1
 936 1312 l 1,64,-1
307 360 m 1,68,-1
 273 -14 l 1,69,-1
 307 -14 l 1,70,-1
 290 71 l 1,71,-1
 290 105 l 1,72,-1
 324 156 l 1,73,-1
 307 156 l 1,74,-1
 324 173 l 1,75,-1
 324 190 l 1,76,-1
 307 207 l 1,77,-1
 307 224 l 1,78,-1
 341 292 l 1,79,-1
 324 360 l 1,80,-1
 307 360 l 1,68,-1
EndSplineSet
Validated: 1
EndChar

StartChar: u
Encoding: 117 117 82
Width: 1045
GlyphClass: 1
Flags: W
LayerCount: 2
Fore
SplineSet
288 1330 m 1,0,-1
 322 1279 l 1,1,-1
 305 1194 l 1,2,-1
 322 1177 l 1,3,-1
 339 1177 l 1,4,-1
 356 1262 l 1,5,-1
 390 1262 l 1,6,-1
 407 1211 l 1,7,8
 271 721 271 721 271 446 c 1,9,10
 288 259 288 259 339 259 c 1,11,-1
 730 701 l 1,12,-1
 747 786 l 1,13,-1
 747 1262 l 1,14,-1
 781 1296 l 1,15,16
 815 1296 815 1296 815 1228 c 1,17,-1
 832 1228 l 1,18,19
 832 1296 832 1296 917 1296 c 1,20,-1
 951 1228 l 1,21,-1
 934 1143 l 1,22,23
 968 1143 968 1143 968 1228 c 1,24,-1
 1002 1228 l 1,25,-1
 1019 1211 l 1,26,-1
 1036 1211 l 1,27,-1
 951 -13 l 1,28,-1
 934 -81 l 1,29,30
 866 -81 866 -81 866 -149 c 1,31,-1
 798 -149 l 1,32,-1
 815 21 l 1,33,-1
 781 21 l 1,34,-1
 781 -81 l 1,35,-1
 730 -132 l 1,36,-1
 730 -115 l 1,37,-1
 747 55 l 1,38,39
 696 55 696 55 696 123 c 1,40,-1
 679 123 l 1,41,-1
 390 -13 l 1,42,-1
 254 21 l 1,43,-1
 254 4 l 1,44,45
 78 4 78 4 16 514 c 1,46,47
 84 1279 84 1279 152 1279 c 1,48,-1
 152 1296 l 1,49,-1
 169 1296 l 1,50,-1
 169 1228 l 1,51,-1
 135 1228 l 1,52,-1
 135 1194 l 1,53,-1
 152 1177 l 1,54,-1
 152 1160 l 1,55,-1
 135 1160 l 1,56,-1
 152 1109 l 1,57,-1
 101 1024 l 1,58,-1
 118 1024 l 1,59,-1
 135 1041 l 1,60,-1
 84 735 l 1,61,-1
 84 667 l 1,62,-1
 101 667 l 1,63,64
 155 1330 155 1330 288 1330 c 1,0,-1
84 650 m 1,65,-1
 67 633 l 1,66,-1
 67 497 l 1,67,-1
 84 497 l 1,68,-1
 101 650 l 1,69,-1
 84 650 l 1,65,-1
611 514 m 1,70,-1
 492 378 l 1,71,-1
 509 378 l 1,72,-1
 628 514 l 1,73,-1
 611 514 l 1,70,-1
118 242 m 1,74,-1
 118 208 l 1,75,-1
 135 157 l 1,76,-1
 152 157 l 1,77,-1
 152 191 l 1,78,-1
 135 242 l 1,79,-1
 118 242 l 1,74,-1
237 157 m 1,80,-1
 237 140 l 2,81,82
 237 81 237 81 390 38 c 1,83,-1
 424 38 l 1,84,-1
 424 55 l 1,85,86
 326 56 326 56 237 157 c 1,80,-1
EndSplineSet
Validated: 1
EndChar

StartChar: v
Encoding: 118 118 83
Width: 1041
GlyphClass: 1
Flags: W
LayerCount: 2
Fore
SplineSet
-12 1335 m 1,0,1
 192 1335 192 1335 192 1199 c 1,2,-1
 209 1199 l 1,3,-1
 209 1250 l 1,4,-1
 243 1250 l 1,5,6
 311 1051 311 1051 362 706 c 1,7,-1
 345 706 l 1,8,-1
 362 689 l 1,9,-1
 362 536 l 1,10,-1
 396 536 l 1,11,-1
 379 519 l 1,12,-1
 379 434 l 1,13,-1
 396 434 l 1,14,15
 462 598 462 598 667 890 c 1,16,-1
 685 876 l 1,17,-1
 719 927 l 1,18,-1
 702 927 l 1,19,-1
 668 893 l 1,20,-1
 668 910 l 1,21,-1
 855 1114 l 1,22,-1
 889 1114 l 1,23,-1
 957 1046 l 1,24,-1
 872 944 l 1,25,-1
 923 944 l 1,26,27
 923 997 923 997 1025 1063 c 1,28,-1
 1025 1012 l 1,29,30
 957 1004 957 1004 957 961 c 1,31,-1
 991 961 l 1,32,33
 991 1012 991 1012 1042 1012 c 1,34,-1
 1042 961 l 1,35,36
 955 910 955 910 787 655 c 1,37,-1
 430 9 l 1,38,-1
 396 9 l 1,39,-1
 379 26 l 1,40,41
 328 26 328 26 328 -42 c 1,42,-1
 294 -42 l 2,43,44
 175 -42 175 -42 175 77 c 1,45,-1
 192 128 l 1,46,-1
 158 94 l 1,47,-1
 158 43 l 1,48,-1
 175 26 l 1,49,-1
 175 9 l 1,50,-1
 158 -8 l 1,51,-1
 124 -8 l 1,52,-1
 107 77 l 1,53,-1
 124 128 l 1,54,-1
 107 128 l 1,55,-1
 124 145 l 1,56,-1
 124 247 l 1,57,58
 103 1182 103 1182 5 1182 c 1,59,-1
 22 1233 l 1,60,-1
 -12 1335 l 1,0,1
804 1131 m 1,61,-1
 804 1114 l 1,62,-1
 736 1046 l 1,63,-1
 719 1046 l 1,64,65
 759 1120 759 1120 804 1131 c 1,61,-1
685 1012 m 1,66,-1
 685 995 l 1,67,-1
 532 791 l 1,68,-1
 532 808 l 1,69,70
 571 904 571 904 685 1012 c 1,66,-1
821 910 m 1,71,-1
 770 825 l 1,72,-1
 787 825 l 1,73,-1
 838 893 l 1,74,-1
 838 910 l 1,75,-1
 821 910 l 1,71,-1
141 825 m 1,76,-1
 141 740 l 1,77,-1
 158 740 l 1,78,-1
 158 825 l 1,79,-1
 141 825 l 1,76,-1
481 740 m 1,80,-1
 498 740 l 1,81,-1
 498 689 l 1,82,-1
 481 672 l 1,83,-1
 466 674 l 5,84,-1
 464 689 l 1,85,-1
 481 740 l 1,80,-1
158 689 m 1,86,-1
 158 502 l 1,87,-1
 175 502 l 1,88,-1
 175 689 l 1,89,-1
 158 689 l 1,86,-1
464 672 m 1,90,-1
 464 655 l 1,91,-1
 413 587 l 1,92,-1
 413 604 l 1,93,-1
 464 672 l 1,90,-1
498 332 m 1,94,-1
 498 315 l 1,95,-1
 549 366 l 1,96,-1
 549 383 l 1,97,-1
 498 332 l 1,94,-1
413 196 m 1,98,-1
 430 179 l 1,99,-1
 447 179 l 1,100,-1
 481 281 l 1,101,102
 446 273 446 273 413 196 c 1,98,-1
EndSplineSet
Validated: 1
EndChar

StartChar: w
Encoding: 119 119 84
Width: 1342
GlyphClass: 1
Flags: W
LayerCount: 2
Fore
SplineSet
121 1369 m 1,0,-1
 172 1369 l 1,1,-1
 189 1284 l 1,2,3
 240 1284 240 1284 240 1335 c 1,4,-1
 257 1335 l 1,5,-1
 291 1301 l 1,6,-1
 274 1199 l 1,7,-1
 291 1199 l 1,8,-1
 274 1182 l 1,9,-1
 274 1165 l 1,10,-1
 291 1148 l 1,11,-1
 291 1131 l 1,12,-1
 274 1131 l 1,13,-1
 291 1114 l 1,14,-1
 291 1097 l 1,15,-1
 274 536 l 1,16,-1
 274 519 l 1,17,-1
 291 519 l 1,18,-1
 342 689 l 1,19,-1
 376 689 l 1,20,-1
 257 366 l 1,21,-1
 291 366 l 1,22,-1
 495 944 l 1,23,-1
 461 944 l 1,24,-1
 393 723 l 1,25,-1
 359 723 l 1,26,-1
 359 740 l 1,27,-1
 478 1012 l 1,28,-1
 495 1012 l 1,29,-1
 495 978 l 1,30,-1
 631 1012 l 1,31,32
 699 987 699 987 699 961 c 1,33,-1
 716 978 l 1,34,-1
 767 978 l 1,35,-1
 835 570 l 1,36,-1
 852 570 l 1,37,38
 852 646 852 646 1120 1446 c 1,39,-1
 1137 1446 l 1,40,-1
 1154 1395 l 1,41,-1
 1171 1395 l 1,42,-1
 1171 1429 l 1,43,-1
 1188 1429 l 2,44,45
 1314 1429 1314 1429 1324 1378 c 1,46,-1
 1324 1344 l 1,47,-1
 1290 1293 l 1,48,-1
 1290 1276 l 1,49,-1
 1324 1276 l 1,50,-1
 1341 1395 l 1,51,-1
 1375 1395 l 1,52,-1
 1409 1361 l 1,53,-1
 1409 1344 l 1,54,-1
 1022 9 l 1,55,-1
 971 -8 l 1,56,-1
 971 26 l 1,57,-1
 954 9 l 1,58,-1
 937 9 l 1,59,-1
 920 26 l 1,60,61
 920 -42 920 -42 869 -42 c 1,62,63
 733 -30 733 -30 733 9 c 1,64,-1
 750 9 l 1,65,66
 733 94 733 94 682 128 c 1,67,-1
 614 502 l 1,68,69
 585 501 585 501 410 26 c 1,70,-1
 325 -59 l 1,71,-1
 308 -59 l 1,72,-1
 291 9 l 1,73,74
 551 439 551 439 563 672 c 1,75,76
 518 627 518 627 342 162 c 1,77,78
 321 162 321 162 274 -42 c 1,79,-1
 121 -42 l 1,80,-1
 104 26 l 1,81,-1
 87 9 l 1,82,-1
 70 9 l 1,83,84
 70 101 70 101 19 145 c 1,85,-1
 19 213 l 1,86,-1
 87 162 l 1,87,-1
 53 451 l 1,88,-1
 70 468 l 1,89,-1
 53 485 l 1,90,-1
 70 502 l 1,91,-1
 53 502 l 1,92,-1
 70 519 l 1,93,-1
 70 757 l 1,94,-1
 87 842 l 1,95,-1
 70 842 l 1,96,-1
 87 859 l 1,97,-1
 87 1301 l 1,98,-1
 70 1318 l 1,99,-1
 70 1335 l 1,100,-1
 121 1369 l 1,0,-1
1120 1361 m 1,101,102
 869 580 869 580 869 485 c 2,103,-1
 869 468 l 1,104,-1
 886 468 l 1,105,-1
 1154 1361 l 1,106,-1
 1120 1361 l 1,101,102
1090 706 m 1,107,-1
 1056 553 l 1,108,-1
 1056 536 l 1,109,-1
 1073 536 l 1,110,-1
 1107 689 l 1,111,-1
 1107 706 l 1,112,-1
 1090 706 l 1,107,-1
988 298 m 1,113,-1
 954 145 l 1,114,-1
 954 111 l 1,115,-1
 971 111 l 1,116,-1
 1005 281 l 1,117,-1
 1005 298 l 1,118,-1
 988 298 l 1,113,-1
EndSplineSet
Validated: 1
EndChar

StartChar: x
Encoding: 120 120 85
Width: 1170
GlyphClass: 1
Flags: W
LayerCount: 2
Fore
SplineSet
288 1359 m 1,0,1
 475 1263 475 1263 475 1087 c 1,2,-1
 577 934 l 1,3,-1
 628 985 l 1,4,-1
 640 984 l 1,5,-1
 577 883 l 1,6,-1
 594 866 l 1,7,-1
 611 866 l 1,8,9
 991 1308 991 1308 1104 1308 c 0,10,11
 1166 1308 1166 1308 1206 1223 c 1,12,13
 1257 1223 1257 1223 1257 1189 c 0,14,15
 1257 1125 1257 1125 968 900 c 1,16,-1
 730 645 l 1,17,-1
 730 611 l 1,18,19
 883 359 883 359 985 50 c 1,20,-1
 968 -1 l 1,21,-1
 985 -1 l 1,22,-1
 900 -120 l 1,23,-1
 849 -120 l 1,24,-1
 849 -86 l 1,25,-1
 798 -120 l 1,26,-1
 577 407 l 1,27,-1
 560 407 l 1,28,29
 395 206 395 206 220 -171 c 1,30,-1
 186 -171 l 1,31,-1
 186 -137 l 1,32,-1
 203 -120 l 1,33,-1
 186 -103 l 1,34,-1
 186 -86 l 1,35,36
 271 121 271 121 492 475 c 1,37,-1
 509 475 l 1,38,-1
 509 526 l 1,39,40
 169 56 169 56 169 -69 c 1,41,-1
 101 -103 l 1,42,43
 46 -103 46 -103 -18 16 c 1,44,45
 -18 112 -18 112 390 730 c 1,46,47
 234 1021 234 1021 203 1172 c 1,48,-1
 220 1172 l 1,49,-1
 152 1342 l 1,50,-1
 169 1342 l 1,51,-1
 186 1325 l 1,52,-1
 288 1359 l 1,0,1
1019 1342 m 1,53,-1
 1036 1342 l 1,54,-1
 781 1104 l 1,55,-1
 767 1108 l 1,56,-1
 764 1121 l 1,57,-1
 1019 1342 l 1,53,-1
747 1104 m 1,58,-1
 764 1104 l 1,59,-1
 645 985 l 1,60,-1
 645 1002 l 1,61,-1
 747 1104 l 1,58,-1
781 849 m 1,62,-1
 747 798 l 1,63,-1
 764 798 l 1,64,-1
 798 849 l 1,65,-1
 781 849 l 1,62,-1
16 16 m 1,66,-1
 390 611 l 1,67,68
 424 611 424 611 424 679 c 1,69,-1
 407 679 l 1,70,71
 106 285 106 285 16 16 c 1,66,-1
798 16 m 1,72,-1
 798 -1 l 1,73,-1
 815 -69 l 1,74,-1
 832 -69 l 1,75,-1
 832 -1 l 1,76,-1
 815 16 l 1,77,-1
 798 16 l 1,72,-1
EndSplineSet
Validated: 1
EndChar

StartChar: y
Encoding: 121 121 86
Width: 991
GlyphClass: 1
Flags: W
LayerCount: 2
Fore
SplineSet
822 1375 m 1,0,-1
 839 1375 l 1,1,-1
 839 1341 l 1,2,-1
 856 1358 l 1,3,-1
 873 1358 l 1,4,5
 992 1318 992 1318 992 1290 c 1,6,-1
 907 1188 l 1,7,-1
 941 1188 l 1,8,9
 1009 1223 1009 1223 1009 1273 c 1,10,-1
 1060 1273 l 1,11,-1
 1060 1256 l 1,12,-1
 1043 1239 l 1,13,-1
 1060 1222 l 1,14,-1
 1060 1205 l 1,15,16
 485 528 485 528 470 169 c 1,17,-1
 436 0 l 1,18,-1
 453 -17 l 1,19,-1
 453 -34 l 1,20,-1
 368 -187 l 1,21,-1
 232 -170 l 1,22,-1
 232 -34 l 1,23,-1
 181 33 l 1,24,-1
 181 67 l 1,25,-1
 198 271 l 1,26,-1
 215 254 l 1,27,-1
 232 254 l 1,28,-1
 215 271 l 1,29,-1
 215 288 l 1,30,-1
 232 305 l 1,31,-1
 232 322 l 1,32,-1
 215 339 l 1,33,-1
 266 356 l 1,34,-1
 249 271 l 1,35,-1
 249 203 l 1,36,-1
 266 203 l 1,37,-1
 286 408 l 1,38,-1
 269 459 l 1,39,-1
 252 459 l 1,40,-1
 252 408 l 1,41,-1
 235 408 l 1,42,-1
 218 544 l 1,43,-1
 235 561 l 1,44,-1
 235 578 l 1,45,-1
 1 1175 l 1,46,-1
 1 1209 l 1,47,-1
 35 1209 l 1,48,-1
 1 1294 l 1,49,-1
 18 1311 l 1,50,-1
 52 1311 l 2,51,52
 91 1311 91 1311 103 1226 c 1,53,-1
 154 1260 l 1,54,-1
 205 1260 l 1,55,56
 205 1155 205 1155 388 816 c 1,57,58
 486 1002 486 1002 558 1037 c 1,59,-1
 558 1020 l 1,60,61
 388 804 388 804 388 765 c 2,62,-1
 388 748 l 1,63,-1
 405 748 l 1,64,-1
 805 1290 l 1,65,-1
 805 1307 l 1,66,-1
 612 1109 l 1,67,-1
 609 1122 l 1,68,-1
 822 1375 l 1,0,-1
609 1105 m 1,69,-1
 609 1088 l 1,70,-1
 575 1054 l 1,71,-1
 575 1071 l 1,72,-1
 609 1105 l 1,69,-1
839 1120 m 1,73,74
 473 651 473 651 473 578 c 1,75,-1
 507 578 l 1,76,77
 654 861 654 861 856 1120 c 1,78,-1
 839 1120 l 1,73,74
283 -68 m 1,79,-1
 283 -136 l 1,80,-1
 300 -136 l 1,81,-1
 300 -68 l 1,82,-1
 283 -68 l 1,79,-1
EndSplineSet
Validated: 1
EndChar

StartChar: z
Encoding: 122 122 87
Width: 970
GlyphClass: 1
Flags: W
LayerCount: 2
Fore
SplineSet
98 1311 m 1,0,-1
 201 1294 l 1,1,-1
 542 1311 l 1,2,-1
 968 1186 l 1,3,-1
 968 1150 l 1,4,-1
 985 1132 l 1,5,-1
 968 1114 l 1,6,-1
 951 1114 l 1,7,-1
 951 1096 l 1,8,-1
 985 1096 l 1,9,-1
 1019 1132 l 1,10,-1
 1036 1132 l 1,11,-1
 1036 1061 l 1,12,-1
 371 254 l 1,13,-1
 473 254 l 1,14,-1
 576 273 l 1,15,16
 787 218 787 218 848 111 c 1,17,-1
 866 111 l 1,18,-1
 866 40 l 1,19,-1
 831 3 l 1,20,-1
 814 3 l 1,21,-1
 729 40 l 1,22,-1
 746 21 l 1,23,-1
 746 -13 l 1,24,-1
 610 21 l 1,25,-1
 559 21 l 2,26,27
 394 21 394 21 115 -86 c 1,28,-1
 13 3 l 1,29,-1
 64 147 l 1,30,-1
 30 183 l 1,31,-1
 30 254 l 1,32,33
 156 469 156 469 184 469 c 1,34,-1
 201 451 l 1,35,-1
 218 469 l 1,36,-1
 218 487 l 1,37,-1
 201 487 l 1,38,39
 201 541 201 541 269 541 c 1,40,-1
 337 631 l 1,41,-1
 320 648 l 1,42,-1
 371 684 l 1,43,-1
 388 666 l 1,44,45
 540 905 540 905 593 917 c 1,46,-1
 593 899 l 1,47,-1
 405 648 l 1,48,-1
 422 648 l 1,49,-1
 712 1007 l 1,50,-1
 695 1007 l 1,51,-1
 627 953 l 1,52,-1
 610 971 l 1,53,-1
 610 989 l 1,54,-1
 627 1007 l 1,55,-1
 456 989 l 1,56,-1
 252 989 l 1,57,58
 171 1029 171 1029 132 1114 c 1,59,-1
 132 1132 l 1,60,-1
 166 1186 l 1,61,62
 138 1276 138 1276 81 1276 c 1,63,-1
 98 1294 l 1,64,-1
 98 1311 l 1,0,-1
542 631 m 1,65,-1
 439 506 l 1,66,-1
 456 506 l 1,67,-1
 559 631 l 1,68,-1
 542 631 l 1,65,-1
337 577 m 1,69,-1
 252 469 l 1,70,-1
 269 469 l 1,71,-1
 354 577 l 1,72,-1
 337 577 l 1,69,-1
422 487 m 1,73,-1
 337 380 l 1,74,-1
 354 380 l 1,75,-1
 439 487 l 1,76,-1
 422 487 l 1,73,-1
EndSplineSet
Validated: 1
EndChar

StartChar: asciitilde
Encoding: 126 126 88
Width: 936
GlyphClass: 1
Flags: W
LayerCount: 2
Fore
SplineSet
843 1321 m 1,0,-1
 864 1288 l 1,1,-1
 860 1285 l 1,2,-1
 864 1281 l 1,3,-1
 867 1281 l 1,4,-1
 872 1285 l 1,5,-1
 876 1281 l 1,6,-1
 876 1278 l 2,7,8
 876 1248 876 1248 850 1206 c 1,9,10
 850 1190 850 1190 822 1148 c 1,11,-1
 825 1148 l 1,12,-1
 879 1210 l 1,13,-1
 883 1210 l 1,14,-1
 883 1206 l 1,15,-1
 879 1189 l 1,16,17
 886 1189 886 1189 890 1167 c 1,18,19
 856 1102 856 1102 808 1037 c 2,20,-1
 792 1013 l 1,21,-1
 796 1009 l 1,22,-1
 803 1009 l 1,23,24
 803 1025 803 1025 829 1045 c 1,25,-1
 832 1045 l 1,26,-1
 832 1042 l 1,27,28
 782 981 782 981 782 970 c 1,29,-1
 799 984 l 1,30,-1
 803 984 l 1,31,-1
 803 981 l 1,32,33
 740 888 740 888 656 799 c 1,34,-1
 660 794 l 1,35,-1
 660 791 l 2,36,37
 660 758 660 758 574 727 c 1,38,-1
 557 724 l 1,39,40
 490 724 490 724 395 866 c 1,41,-1
 348 919 l 1,42,43
 297 855 297 855 270 784 c 1,44,-1
 256 777 l 1,45,-1
 249 777 l 1,46,-1
 237 784 l 1,47,-1
 233 784 l 2,48,49
 227 784 227 784 190 709 c 2,50,-1
 188 705 l 1,51,-1
 183 705 l 2,52,53
 138 705 138 705 108 777 c 1,54,55
 70 777 70 777 40 859 c 1,56,57
 40 872 40 872 87 941 c 2,58,-1
 165 1052 l 2,59,60
 215 1130 215 1130 277 1184 c 1,61,-1
 284 1184 l 2,62,63
 308 1184 308 1184 362 1085 c 1,64,65
 415 1030 415 1030 444 934 c 1,66,-1
 449 931 l 1,67,-1
 456 931 l 2,68,69
 528 931 528 931 681 1131 c 1,70,71
 718 1168 718 1168 782 1253 c 1,72,-1
 843 1321 l 1,0,-1
EndSplineSet
Validated: 1
EndChar

StartChar: Adieresis
Encoding: 196 196 89
Width: 1200
GlyphClass: 1
Flags: W
LayerCount: 2
Fore
SplineSet
677 1410 m 1,0,1
 688 1359 688 1359 813 1359 c 1,2,-1
 949 764 l 1,3,-1
 1068 764 l 1,4,-1
 1068 747 l 1,5,-1
 966 730 l 1,6,-1
 966 713 l 1,7,8
 1017 713 1017 713 1017 679 c 1,9,-1
 1153 679 l 1,10,-1
 1153 662 l 2,11,12
 1153 624 1153 624 983 594 c 1,13,-1
 1017 492 l 1,14,-1
 1000 441 l 1,15,-1
 1017 339 l 1,16,-1
 1000 322 l 1,17,-1
 1017 322 l 1,18,-1
 1000 305 l 1,19,-1
 1017 101 l 1,20,-1
 1017 -1 l 1,21,-1
 1000 16 l 1,22,-1
 983 16 l 1,23,-1
 1034 -239 l 1,24,-1
 1000 -239 l 1,25,26
 1000 -188 1000 -188 966 -188 c 1,27,-1
 966 -205 l 1,28,-1
 983 -256 l 1,29,-1
 966 -256 l 1,30,-1
 949 -239 l 1,31,-1
 932 -239 l 1,32,33
 932 -290 932 -290 898 -290 c 1,34,-1
 813 -1 l 1,35,-1
 796 -1 l 1,36,-1
 796 -69 l 1,37,-1
 779 -69 l 1,38,-1
 745 135 l 1,39,-1
 796 101 l 1,40,-1
 796 118 l 1,41,42
 782 271 782 271 745 271 c 1,43,-1
 762 288 l 1,44,-1
 762 339 l 1,45,-1
 728 339 l 1,46,-1
 728 288 l 1,47,-1
 711 288 l 1,48,-1
 711 356 l 1,49,-1
 728 373 l 1,50,-1
 711 373 l 1,51,-1
 694 356 l 1,52,-1
 694 424 l 1,53,-1
 711 424 l 1,54,-1
 728 407 l 1,55,-1
 745 407 l 1,56,-1
 728 424 l 1,57,-1
 728 526 l 1,58,-1
 354 441 l 1,59,-1
 354 407 l 1,60,-1
 473 441 l 1,61,-1
 541 424 l 1,62,-1
 626 441 l 1,63,-1
 626 407 l 1,64,65
 269 343 269 343 269 237 c 1,66,67
 224 50 224 50 167 -1 c 1,68,-1
 167 -35 l 1,69,-1
 116 -35 l 1,70,-1
 99 -18 l 1,71,-1
 82 -18 l 1,72,-1
 82 -35 l 1,73,-1
 31 -1 l 1,74,-1
 65 101 l 1,75,-1
 48 101 l 2,76,77
 -3 101 -3 101 -3 -35 c 1,78,-1
 -37 -1 l 1,79,-1
 -20 101 l 1,80,-1
 -71 152 l 1,81,-1
 218 849 l 1,82,-1
 235 849 l 1,83,84
 235 798 235 798 269 798 c 1,85,-1
 286 883 l 1,86,-1
 269 866 l 1,87,-1
 252 866 l 1,88,-1
 252 934 l 1,89,-1
 269 1019 l 1,90,-1
 286 1002 l 1,91,-1
 303 1002 l 1,92,-1
 286 1019 l 1,93,-1
 286 1036 l 1,94,-1
 320 1104 l 1,95,-1
 337 1104 l 1,96,-1
 354 1087 l 1,97,-1
 371 1087 l 1,98,-1
 371 1104 l 2,99,100
 371 1138 371 1138 320 1138 c 1,101,-1
 405 1376 l 1,102,-1
 473 1376 l 1,103,-1
 456 1359 l 1,104,-1
 456 1342 l 1,105,106
 574 1410 574 1410 677 1410 c 1,0,1
575 1019 m 1,107,-1
 439 662 l 1,108,-1
 473 662 l 2,109,110
 643 662 643 662 660 764 c 1,111,-1
 592 1019 l 1,112,-1
 575 1019 l 1,107,-1
422 917 m 1,113,-1
 388 798 l 1,114,-1
 371 815 l 1,115,-1
 354 815 l 1,116,-1
 371 747 l 1,117,-1
 388 747 l 1,118,-1
 439 900 l 1,119,-1
 439 917 l 1,120,-1
 422 917 l 1,113,-1
235 764 m 1,121,-1
 218 747 l 1,122,-1
 218 713 l 1,123,-1
 235 713 l 1,124,-1
 252 764 l 1,125,-1
 235 764 l 1,121,-1
337 696 m 1,126,-1
 320 628 l 1,127,-1
 337 628 l 1,128,-1
 354 645 l 1,129,-1
 354 696 l 1,130,-1
 337 696 l 1,126,-1
184 679 m 1,131,-1
 167 611 l 1,132,-1
 184 611 l 1,133,-1
 218 679 l 1,134,-1
 184 679 l 1,131,-1
473 628 m 1,135,-1
 473 611 l 1,136,-1
 507 611 l 1,137,138
 660 628 660 628 660 662 c 1,139,-1
 643 662 l 1,140,-1
 473 628 l 1,135,-1
711 254 m 1,141,-1
 745 254 l 1,142,-1
 745 152 l 1,143,-1
 728 152 l 1,144,-1
 711 254 l 1,141,-1
949 135 m 1,145,-1
 949 101 l 1,146,-1
 966 33 l 1,147,-1
 983 33 l 1,148,-1
 983 67 l 1,149,-1
 966 135 l 1,150,-1
 949 135 l 1,145,-1
779 84 m 1,151,-1
 779 50 l 1,152,-1
 830 67 l 1,153,-1
 830 101 l 1,154,-1
 779 84 l 1,151,-1
860 1807 m 1,155,-1
 863 1804 l 1,156,-1
 879 1807 l 1,157,-1
 883 1807 l 1,158,-1
 915 1769 l 1,159,-1
 915 1759 l 1,160,161
 844 1697 844 1697 844 1689 c 1,162,-1
 847 1689 l 1,163,164
 895 1730 895 1730 924 1737 c 1,165,-1
 940 1705 l 1,166,-1
 931 1673 l 1,167,-1
 934 1676 l 1,168,-1
 940 1676 l 1,169,-1
 950 1667 l 1,170,-1
 950 1663 l 2,171,172
 947 1642 947 1642 860 1555 c 1,173,174
 835 1523 835 1523 828 1494 c 1,175,-1
 815 1484 l 1,176,-1
 812 1484 l 2,177,178
 798 1484 798 1484 761 1516 c 1,179,180
 751 1516 751 1516 745 1548 c 1,181,182
 729 1571 729 1571 719 1571 c 1,183,184
 675 1619 675 1619 675 1651 c 2,185,-1
 675 1654 l 1,186,187
 801 1785 801 1785 844 1801 c 2,188,-1
 860 1807 l 1,155,-1
492 1804 m 1,189,190
 531 1801 531 1801 531 1794 c 1,191,-1
 528 1791 l 1,192,-1
 528 1788 l 1,193,194
 539 1788 539 1788 556 1768 c 1,195,-1
 556 1759 l 1,196,197
 547 1748 547 1748 515 1736 c 1,198,199
 454 1701 454 1701 444 1685 c 1,200,-1
 448 1685 l 1,201,202
 521 1740 521 1740 572 1740 c 1,203,-1
 585 1714 l 2,204,205
 589 1714 589 1714 592 1692 c 1,206,207
 604 1692 604 1692 604 1663 c 1,208,209
 498 1596 498 1596 486 1567 c 1,210,211
 473 1565 473 1565 454 1506 c 1,212,-1
 419 1496 l 1,213,214
 364 1530 364 1530 364 1564 c 1,215,216
 359 1564 359 1564 355 1580 c 1,217,218
 333 1580 333 1580 300 1637 c 1,219,-1
 297 1666 l 1,220,221
 374 1771 374 1771 473 1800 c 1,222,-1
 492 1804 l 1,189,190
EndSplineSet
Validated: 1
EndChar

StartChar: Odieresis
Encoding: 214 214 90
Width: 1250
GlyphClass: 1
Flags: W
LayerCount: 2
Fore
SplineSet
762 1337 m 1,0,1
 962 1337 962 1337 1136 1218 c 1,2,-1
 1119 1201 l 1,3,-1
 1119 1184 l 1,4,-1
 1187 1082 l 1,5,-1
 1153 1082 l 1,6,-1
 1136 1099 l 1,7,-1
 1119 1099 l 1,8,-1
 1170 725 l 1,9,-1
 1187 725 l 1,10,11
 1187 810 1187 810 1221 810 c 1,12,-1
 1221 742 l 2,13,14
 1221 646 1221 646 1051 300 c 1,15,-1
 1068 300 l 1,16,17
 948 135 948 135 711 -6 c 1,18,-1
 626 -23 l 1,19,-1
 609 -23 l 2,20,21
 205 -23 205 -23 99 300 c 1,22,-1
 31 402 l 1,23,-1
 48 419 l 1,24,-1
 31 538 l 1,25,-1
 31 572 l 2,26,27
 31 713 31 713 303 1065 c 1,28,-1
 303 1048 l 1,29,30
 178 880 178 880 99 674 c 1,31,-1
 99 657 l 1,32,-1
 116 657 l 1,33,34
 178 906 178 906 575 1286 c 1,35,-1
 456 1218 l 1,36,-1
 439 1218 l 1,37,38
 439 1296 439 1296 762 1337 c 1,0,1
677 1048 m 1,39,-1
 660 1065 l 1,40,-1
 660 1048 l 1,41,-1
 677 1031 l 1,42,-1
 558 929 l 1,43,44
 417 929 417 929 286 453 c 1,45,46
 286 317 286 317 439 215 c 1,47,-1
 456 215 l 2,48,49
 642 215 642 215 881 606 c 1,50,51
 966 792 966 792 966 878 c 2,52,-1
 966 1014 l 2,53,54
 966 1061 966 1061 796 1082 c 1,55,-1
 779 1082 l 1,56,-1
 762 1065 l 1,57,-1
 745 1065 l 1,58,-1
 745 1082 l 1,59,-1
 677 1048 l 1,39,-1
1170 997 m 1,60,-1
 1204 997 l 1,61,-1
 1204 912 l 1,62,-1
 1170 912 l 1,63,-1
 1170 997 l 1,60,-1
303 810 m 1,64,-1
 252 708 l 1,65,-1
 269 708 l 1,66,-1
 320 810 l 1,67,-1
 303 810 l 1,64,-1
966 708 m 1,68,-1
 898 538 l 1,69,-1
 949 538 l 1,70,-1
 1000 657 l 1,71,-1
 983 708 l 1,72,-1
 966 708 l 1,68,-1
1085 640 m 1,73,-1
 1068 589 l 1,74,-1
 1068 555 l 1,75,-1
 1085 555 l 1,76,-1
 1102 623 l 1,77,-1
 1102 640 l 1,78,-1
 1085 640 l 1,73,-1
82 572 m 1,79,-1
 82 436 l 1,80,-1
 99 436 l 1,81,-1
 99 572 l 1,82,-1
 82 572 l 1,79,-1
881 521 m 1,83,-1
 813 436 l 1,84,-1
 830 436 l 1,85,-1
 898 521 l 1,86,-1
 881 521 l 1,83,-1
337 147 m 1,87,-1
 337 130 l 1,88,-1
 422 79 l 1,89,-1
 422 96 l 1,90,-1
 337 147 l 1,87,-1
1110 1807 m 1,91,-1
 1113 1804 l 1,92,-1
 1129 1807 l 1,93,-1
 1132 1807 l 1,94,-1
 1164 1769 l 1,95,-1
 1164 1759 l 1,96,97
 1094 1697 1094 1697 1094 1689 c 1,98,-1
 1097 1689 l 1,99,100
 1145 1730 1145 1730 1174 1737 c 1,101,-1
 1190 1705 l 1,102,-1
 1180 1673 l 1,103,-1
 1184 1676 l 1,104,-1
 1190 1676 l 1,105,-1
 1200 1667 l 1,106,-1
 1200 1663 l 1,107,108
 1196 1642 1196 1642 1110 1555 c 1,109,110
 1085 1523 1085 1523 1078 1494 c 1,111,-1
 1065 1484 l 1,112,-1
 1062 1484 l 2,113,114
 1048 1484 1048 1484 1011 1516 c 1,115,116
 1000 1516 1000 1516 995 1548 c 1,117,118
 979 1571 979 1571 969 1571 c 1,119,120
 924 1619 924 1619 924 1651 c 2,121,-1
 924 1654 l 1,122,123
 1050 1785 1050 1785 1094 1801 c 2,124,-1
 1110 1807 l 1,91,-1
742 1804 m 1,125,126
 781 1801 781 1801 781 1794 c 1,127,-1
 777 1791 l 1,128,-1
 777 1788 l 1,129,130
 789 1788 789 1788 806 1768 c 1,131,-1
 806 1759 l 1,132,133
 797 1748 797 1748 765 1736 c 1,134,135
 703 1701 703 1701 694 1685 c 1,136,-1
 697 1685 l 1,137,138
 771 1740 771 1740 822 1740 c 1,139,-1
 835 1714 l 2,140,141
 839 1714 839 1714 841 1692 c 1,142,143
 854 1692 854 1692 854 1663 c 1,144,145
 748 1596 748 1596 736 1567 c 1,146,147
 723 1565 723 1565 704 1506 c 1,148,-1
 669 1496 l 1,149,150
 614 1530 614 1530 614 1564 c 1,151,152
 609 1564 609 1564 605 1580 c 1,153,154
 583 1580 583 1580 550 1637 c 1,155,-1
 547 1666 l 1,156,157
 624 1772 624 1772 723 1800 c 1,158,-1
 742 1804 l 1,125,126
EndSplineSet
Validated: 1
EndChar

StartChar: Udieresis
Encoding: 220 220 91
Width: 1045
GlyphClass: 1
Flags: W
LayerCount: 2
Fore
SplineSet
288 1330 m 1,0,-1
 322 1279 l 1,1,-1
 305 1194 l 1,2,-1
 322 1177 l 1,3,-1
 339 1177 l 1,4,-1
 356 1262 l 1,5,-1
 390 1262 l 1,6,-1
 407 1211 l 1,7,8
 271 721 271 721 271 446 c 1,9,10
 288 259 288 259 339 259 c 1,11,-1
 730 701 l 1,12,-1
 747 786 l 1,13,-1
 747 1262 l 1,14,-1
 781 1296 l 1,15,16
 815 1296 815 1296 815 1228 c 1,17,-1
 832 1228 l 1,18,19
 832 1296 832 1296 917 1296 c 1,20,-1
 951 1228 l 1,21,-1
 934 1143 l 1,22,23
 968 1143 968 1143 968 1228 c 1,24,-1
 1002 1228 l 1,25,-1
 1019 1211 l 1,26,-1
 1036 1211 l 1,27,-1
 951 -13 l 1,28,-1
 934 -81 l 1,29,30
 866 -81 866 -81 866 -149 c 1,31,-1
 798 -149 l 1,32,-1
 815 21 l 1,33,-1
 781 21 l 1,34,-1
 781 -81 l 1,35,-1
 730 -132 l 1,36,-1
 730 -115 l 1,37,-1
 747 55 l 1,38,39
 696 55 696 55 696 123 c 1,40,-1
 679 123 l 1,41,-1
 390 -13 l 1,42,-1
 254 21 l 1,43,-1
 254 4 l 1,44,45
 78 4 78 4 16 514 c 1,46,47
 84 1279 84 1279 152 1279 c 1,48,-1
 152 1296 l 1,49,-1
 169 1296 l 1,50,-1
 169 1228 l 1,51,-1
 135 1228 l 1,52,-1
 135 1194 l 1,53,-1
 152 1177 l 1,54,-1
 152 1160 l 1,55,-1
 135 1160 l 1,56,-1
 152 1109 l 1,57,-1
 101 1024 l 1,58,-1
 118 1024 l 1,59,-1
 135 1041 l 1,60,-1
 84 735 l 1,61,-1
 84 667 l 1,62,-1
 101 667 l 1,63,64
 155 1330 155 1330 288 1330 c 1,0,-1
84 650 m 1,65,-1
 67 633 l 1,66,-1
 67 497 l 1,67,-1
 84 497 l 1,68,-1
 101 650 l 1,69,-1
 84 650 l 1,65,-1
611 514 m 1,70,-1
 492 378 l 1,71,-1
 509 378 l 1,72,-1
 628 514 l 1,73,-1
 611 514 l 1,70,-1
118 242 m 1,74,-1
 118 208 l 1,75,-1
 135 157 l 1,76,-1
 152 157 l 1,77,-1
 152 191 l 1,78,-1
 135 242 l 1,79,-1
 118 242 l 1,74,-1
237 157 m 1,80,-1
 237 140 l 2,81,82
 237 81 237 81 390 38 c 1,83,-1
 424 38 l 1,84,-1
 424 55 l 1,85,86
 326 56 326 56 237 157 c 1,80,-1
851 1807 m 1,87,-1
 854 1804 l 1,88,-1
 870 1807 l 1,89,-1
 874 1807 l 1,90,-1
 906 1769 l 1,91,-1
 906 1759 l 1,92,93
 835 1697 835 1697 835 1689 c 1,94,-1
 838 1689 l 1,95,96
 886 1730 886 1730 915 1737 c 1,97,-1
 931 1705 l 1,98,-1
 922 1673 l 1,99,-1
 925 1676 l 1,100,-1
 931 1676 l 1,101,-1
 941 1666 l 1,102,-1
 941 1663 l 1,103,104
 937 1641 937 1641 851 1554 c 1,105,106
 826 1523 826 1523 819 1494 c 1,107,-1
 806 1484 l 1,108,-1
 803 1484 l 2,109,110
 789 1484 789 1484 752 1516 c 1,111,112
 742 1516 742 1516 736 1548 c 1,113,114
 720 1570 720 1570 710 1570 c 1,115,116
 666 1619 666 1619 666 1650 c 2,117,-1
 666 1654 l 1,118,119
 791 1785 791 1785 835 1801 c 2,120,-1
 851 1807 l 1,87,-1
483 1803 m 1,121,122
 522 1801 522 1801 522 1794 c 1,123,-1
 519 1791 l 1,124,-1
 519 1787 l 1,125,126
 530 1787 530 1787 547 1768 c 1,127,-1
 547 1759 l 1,128,129
 538 1748 538 1748 506 1736 c 1,130,131
 445 1701 445 1701 435 1685 c 1,132,-1
 439 1685 l 1,133,134
 512 1739 512 1739 563 1739 c 1,135,-1
 576 1714 l 2,136,137
 580 1714 580 1714 583 1691 c 1,138,139
 595 1691 595 1691 595 1663 c 1,140,141
 489 1596 489 1596 477 1567 c 1,142,143
 464 1565 464 1565 445 1506 c 1,144,-1
 410 1496 l 1,145,146
 355 1530 355 1530 355 1563 c 1,147,148
 350 1563 350 1563 346 1579 c 1,149,150
 324 1579 324 1579 291 1637 c 1,151,-1
 288 1666 l 1,152,153
 365 1771 365 1771 464 1800 c 1,154,-1
 483 1803 l 1,121,122
EndSplineSet
Validated: 1
EndChar

StartChar: germandbls
Encoding: 223 223 97
Width: 1185
GlyphClass: 1
Flags: W
LayerCount: 2
Fore
SplineSet
647 192 m 1,0,1
 736 192 736 192 920 363 c 1,2,3
 920 363 920 363 937 435 c 1,4,-1
 635 335 l 1,5,-1
 621 335 l 1,6,-1
 593 358 l 1,7,-1
 593 362 l 1,8,-1
 598 395 l 1,9,10
 605 392 605 392 608 372 c 1,11,12
 608 404 608 404 650 427 c 1,13,14
 650 427 650 427 650 432 c 1,15,-1
 613 422 l 1,16,17
 587 422 587 422 553 473 c 1,18,19
 553 482 553 482 553 482 c 2,20,21
 553 499 553 499 572 524 c 1,22,23
 572 524 572 524 572 528 c 1,24,-1
 562 528 l 2,25,26
 500 528 500 528 499 623 c 1,27,28
 499 627 499 627 499 627 c 2,29,30
 499 661 499 661 798 1040 c 1,31,32
 756 1086 756 1086 756 1086 c 1,33,34
 462 878 462 878 355 629 c 1,35,36
 306 457 306 457 236 22 c 1,37,38
 240 -14 240 -14 240 -14 c 1,39,40
 234 -14 234 -14 227 -32 c 1,41,42
 231 -60 231 -60 231 -60 c 2,43,44
 234 -84 234 -84 213 -92 c 1,45,46
 181 -92 181 -92 181 -92 c 1,47,48
 161 -83 161 -83 148 -46 c 1,49,50
 107 -26 107 -26 107 18 c 2,51,52
 107 18 107 18 107 45 c 1,53,-1
 84 45 l 2,54,55
 62 45 62 45 15 160 c 1,56,57
 15 169 15 169 15 169 c 2,58,59
 15 194 15 194 98 519 c 1,60,61
 125 732 125 732 167 873 c 1,62,63
 193 907 193 907 213 956 c 1,64,65
 279 1059 279 1059 378 1168 c 1,66,67
 653 1393 653 1393 723 1393 c 1,68,69
 732 1405 732 1405 756 1411 c 1,70,71
 756 1411 756 1411 806 1407 c 1,72,-1
 834 1416 l 1,73,74
 912 1374 912 1374 912 1342 c 1,75,76
 912 1342 912 1342 768 1308 c 1,77,-1
 859 1286 l 1,78,-1
 935 1278 l 1,79,80
 974 1278 974 1278 995 1158 c 1,81,82
 995 1158 995 1158 999 1145 c 1,83,-1
 986 1099 l 1,84,-1
 990 1099 l 2,85,86
 999 1099 999 1099 1032 1030 c 1,87,88
 1032 1016 1032 1016 1032 1016 c 2,89,90
 1032 988 1032 988 907 818 c 1,91,92
 907 818 907 818 802 652 c 1,93,-1
 806 652 l 1,94,-1
 861 666 l 1,95,-1
 981 666 l 2,96,97
 1089 666 1089 666 1128 524 c 1,98,99
 1128 471 1128 471 1147 441 c 1,100,101
 1147 441 1147 441 1142 409 c 1,102,-1
 1156 353 l 1,103,104
 1156 185 1156 185 843 -37 c 1,105,106
 694 -111 694 -111 659 -111 c 2,107,108
 627 -111 627 -111 627 -111 c 2,109,110
 515 -111 515 -111 480 50 c 1,111,112
 480 50 480 50 475 54 c 1,113,-1
 475 59 l 1,114,-1
 480 73 l 1,115,116
 415 147 415 147 415 220 c 2,117,118
 415 238 415 238 415 238 c 2,119,120
 415 275 415 275 466 284 c 1,121,122
 498 284 498 284 498 284 c 1,123,124
 517 272 517 272 558 215 c 1,125,126
 585 211 585 211 585 211 c 1,127,128
 610 193 610 193 647 192 c 1,0,1
342 869 m 1,129,130
 436 992 436 992 489 1039 c 1,131,-1
 498 1053 l 1,132,-1
 493 1053 l 1,133,134
 371 947 371 947 342 869 c 1,129,130
319 832 m 1,135,136
 328 832 328 832 337 864 c 1,137,138
 325 864 325 864 319 832 c 1,135,136
682 455 m 1,139,-1
 687 441 l 1,140,-1
 696 441 l 1,141,142
 897 505 897 505 935 505 c 1,143,-1
 935 510 l 1,144,-1
 875 510 l 2,145,146
 823 510 823 510 682 459 c 1,147,-1
 682 455 l 1,139,-1
EndSplineSet
Validated: 1
EndChar

StartChar: acute
Encoding: 180 180 99
Width: 480
GlyphClass: 1
Flags: W
LayerCount: 2
Fore
SplineSet
351 1857 m 1,0,1
 355 1852 355 1852 355 1842 c 1,2,3
 366 1842 366 1842 369 1827 c 0,4,5
 369 1810 369 1810 261 1713 c 1,6,7
 261 1707 261 1707 225 1673 c 0,8,9
 207 1652 207 1652 207 1643 c 1,10,11
 332 1773 332 1773 369 1792 c 1,12,-1
 371 1792 l 1,13,-1
 369 1782 l 1,14,-1
 373 1777 l 1,15,16
 373 1762 373 1762 344 1737 c 1,17,-1
 355 1733 l 1,18,-1
 373 1745 l 1,19,-1
 375 1743 l 1,20,-1
 375 1739 l 1,21,22
 369 1733 369 1733 366 1718 c 1,23,24
 277 1635 277 1635 240 1589 c 1,25,26
 166 1509 166 1509 159 1463 c 1,27,-1
 155 1457 l 1,28,29
 119 1462 119 1462 119 1485 c 1,30,-1
 112 1491 l 1,31,-1
 112 1495 l 1,32,-1
 114 1502 l 1,33,-1
 112 1502 l 2,34,35
 87 1502 87 1502 76 1557 c 1,36,37
 101 1616 101 1616 159 1677 c 1,38,39
 202 1729 202 1729 315 1827 c 2,40,-1
 351 1857 l 1,0,1
297 1686 m 1,41,-1
 297 1683 l 1,42,-1
 299 1683 l 1,43,-1
 315 1701 l 1,44,-1
 312 1701 l 1,45,-1
 297 1686 l 1,41,-1
285 1675 m 1,46,-1
 285 1673 l 1,47,-1
 290 1677 l 1,48,-1
 290 1679 l 1,49,-1
 285 1675 l 1,46,-1
267 1656 m 1,50,-1
 267 1653 l 1,51,-1
 274 1660 l 1,52,-1
 274 1662 l 1,53,-1
 267 1656 l 1,50,-1
261 1651 m 1,54,-1
 258 1645 l 1,55,-1
 263 1645 l 1,56,-1
 263 1651 l 1,57,-1
 261 1651 l 1,54,-1
184 1617 m 1,58,-1
 200 1634 l 1,59,-1
 198 1634 l 1,60,61
 184 1628 184 1628 184 1617 c 1,58,-1
EndSplineSet
Validated: 1
EndChar

StartChar: dieresis
Encoding: 168 168 100
Width: 866
GlyphClass: 1
Flags: W
LayerCount: 2
Fore
SplineSet
705 1807 m 1,0,-1
 708 1804 l 1,1,-1
 724 1807 l 1,2,-1
 727 1807 l 1,3,-1
 759 1769 l 1,4,-1
 759 1759 l 1,5,6
 689 1697 689 1697 689 1689 c 1,7,-1
 692 1689 l 1,8,9
 740 1730 740 1730 769 1737 c 1,10,-1
 785 1705 l 1,11,-1
 775 1673 l 1,12,-1
 779 1676 l 1,13,-1
 785 1676 l 1,14,-1
 795 1666 l 1,15,-1
 795 1663 l 1,16,17
 791 1641 791 1641 705 1554 c 1,18,19
 680 1522 680 1522 673 1493 c 1,20,-1
 660 1484 l 1,21,-1
 657 1484 l 2,22,23
 643 1484 643 1484 606 1516 c 1,24,25
 595 1516 595 1516 590 1548 c 1,26,27
 574 1570 574 1570 564 1570 c 1,28,29
 519 1619 519 1619 519 1650 c 2,30,-1
 519 1653 l 1,31,32
 645 1785 645 1785 689 1801 c 2,33,-1
 705 1807 l 1,0,-1
337 1803 m 1,34,35
 376 1801 376 1801 376 1794 c 1,36,-1
 372 1790 l 1,37,-1
 372 1787 l 1,38,39
 384 1787 384 1787 401 1768 c 1,40,-1
 401 1758 l 1,41,42
 392 1748 392 1748 360 1736 c 1,43,44
 298 1701 298 1701 289 1685 c 1,45,-1
 292 1685 l 1,46,47
 366 1739 366 1739 417 1739 c 1,48,-1
 430 1714 l 2,49,50
 434 1714 434 1714 436 1691 c 1,51,52
 449 1691 449 1691 449 1662 c 1,53,54
 343 1596 343 1596 331 1566 c 1,55,56
 318 1564 318 1564 299 1506 c 1,57,-1
 264 1496 l 1,58,59
 209 1530 209 1530 209 1563 c 1,60,61
 204 1563 204 1563 200 1579 c 1,62,63
 178 1579 178 1579 145 1637 c 1,64,-1
 142 1666 l 1,65,66
 219 1771 219 1771 318 1800 c 1,67,-1
 337 1803 l 1,34,35
EndSplineSet
Validated: 1
EndChar

StartChar: Oslash
Encoding: 216 216 102
Width: 1250
GlyphClass: 1
Flags: W
LayerCount: 2
Fore
SplineSet
1178 997 m 1,0,-1
 1212 997 l 1,1,-1
 1212 912 l 1,2,-1
 1178 912 l 1,3,-1
 1178 997 l 1,0,-1
311 810 m 1,4,-1
 260 708 l 1,5,-1
 277 708 l 1,6,-1
 328 810 l 1,7,-1
 311 810 l 1,4,-1
974 708 m 1,8,-1
 906 538 l 1,9,-1
 957 538 l 1,10,-1
 1008 657 l 1,11,-1
 991 708 l 1,12,-1
 974 708 l 1,8,-1
1093 640 m 1,13,-1
 1076 589 l 1,14,-1
 1076 555 l 1,15,-1
 1093 555 l 1,16,-1
 1110 623 l 1,17,-1
 1110 640 l 1,18,-1
 1093 640 l 1,13,-1
90 572 m 1,19,-1
 90 436 l 1,20,-1
 107 436 l 1,21,-1
 107 572 l 1,22,-1
 90 572 l 1,19,-1
889 521 m 1,23,-1
 816 390 l 1,24,-1
 833 390 l 1,25,-1
 906 521 l 1,26,-1
 889 521 l 1,23,-1
779 1122 m 1,27,-1
 730 1006 l 1,28,-1
 728 989 l 1,29,-1
 745 988 l 1,30,-1
 793 1105 l 1,31,-1
 796 1122 l 1,32,-1
 779 1122 l 1,27,-1
536 605 m 1,33,-1
 488 488 l 1,34,-1
 471 489 l 1,35,-1
 475 523 l 1,36,-1
 458 524 l 1,37,-1
 454 490 l 1,38,-1
 468 472 l 1,39,-1
 450 457 l 1,40,-1
 467 455 l 1,41,-1
 328 174 l 1,42,-1
 326 157 l 1,43,-1
 343 156 l 1,44,-1
 724 955 l 1,45,-1
 725 972 l 1,46,-1
 536 605 l 1,33,-1
663 1012 m 1,47,-1
 595 1012 l 1,48,49
 485 1011 485 1011 265 474 c 1,50,51
 294 389 294 389 328 332 c 1,52,-1
 663 1012 l 1,47,-1
959 1040 m 1,53,-1
 867 879 l 1,54,-1
 884 878 l 1,55,-1
 581 279 l 1,56,-1
 564 280 l 1,57,-1
 510 230 l 1,58,-1
 566 330 l 1,59,-1
 568 347 l 1,60,-1
 551 348 l 1,61,-1
 481 216 l 1,62,63
 682 222 682 222 889 606 c 0,64,65
 974 764 974 764 974 878 c 2,66,-1
 974 1014 l 2,67,68
 974 1028 974 1028 959 1040 c 1,53,-1
219 112 m 1,69,70
 144 186 144 186 107 300 c 1,71,-1
 39 402 l 1,72,-1
 56 419 l 1,73,-1
 39 538 l 1,74,-1
 39 572 l 2,75,76
 39 713 39 713 311 1065 c 1,77,-1
 311 1048 l 1,78,79
 186 880 186 880 107 674 c 1,80,-1
 107 657 l 1,81,-1
 124 657 l 1,82,83
 186 906 186 906 583 1286 c 1,84,-1
 464 1218 l 1,85,-1
 447 1218 l 1,86,87
 447 1296 447 1296 770 1337 c 1,88,89
 808 1337 808 1337 846 1333 c 1,90,91
 854 1351 854 1351 859 1371 c 1,92,93
 865 1365 865 1365 871 1359 c 0,94,95
 881 1352 881 1352 887 1414 c 1,96,97
 946 1456 946 1456 985 1456 c 2,98,-1
 992 1456 l 1,99,-1
 1015 1422 l 1,100,-1
 1043 1415 l 1,101,-1
 1036 1413 l 1,102,-1
 1011 1330 l 1,103,-1
 1024 1320 l 1,104,-1
 1070 1332 l 1,105,-1
 1095 1401 l 1,106,-1
 1144 1389 l 1,107,-1
 1093 1309 l 1,108,109
 1082 1284 1082 1284 1072 1261 c 1,110,111
 1109 1242 1109 1242 1144 1218 c 1,112,-1
 1127 1201 l 1,113,-1
 1127 1184 l 1,114,-1
 1195 1082 l 1,115,-1
 1161 1082 l 1,116,-1
 1144 1099 l 1,117,-1
 1127 1099 l 1,118,-1
 1178 725 l 1,119,-1
 1195 725 l 1,120,121
 1195 810 1195 810 1229 810 c 1,122,-1
 1229 742 l 2,123,124
 1229 646 1229 646 1059 300 c 1,125,-1
 1076 300 l 1,126,127
 956 135 956 135 719 -6 c 1,128,-1
 634 -23 l 1,129,-1
 617 -23 l 2,130,131
 491 -23 491 -23 394 8 c 1,132,133
 365 -65 365 -65 341 -133 c 1,134,-1
 271 -146 l 1,135,136
 196 -26 196 -26 195 63 c 1,137,-1
 219 112 l 1,69,70
682 1051 m 1,138,-1
 668 1065 l 1,139,-1
 668 1048 l 1,140,-1
 677 1039 l 1,141,-1
 682 1051 l 1,138,-1
EndSplineSet
Validated: 1
EndChar

StartChar: ordmasculine
Encoding: 186 186 111
Width: 698
GlyphClass: 1
Flags: W
LayerCount: 2
Fore
SplineSet
425 1337 m 1,0,1
 535 1337 535 1337 631 1272 c 1,2,-1
 621 1262 l 1,3,-1
 621 1253 l 1,4,-1
 659 1197 l 1,5,-1
 640 1197 l 1,6,-1
 631 1206 l 1,7,-1
 621 1206 l 1,8,-1
 649 1000 l 1,9,-1
 659 1000 l 1,10,11
 659 1047 659 1047 678 1047 c 1,12,-1
 678 1010 l 2,13,14
 678 957 678 957 584 767 c 1,15,-1
 593 767 l 1,16,17
 527 676 527 676 397 598 c 1,18,-1
 350 589 l 1,19,-1
 341 589 l 2,20,21
 119 589 119 589 60 767 c 1,22,-1
 23 823 l 1,23,-1
 32 832 l 1,24,-1
 23 898 l 1,25,-1
 23 916 l 2,26,27
 23 994 23 994 173 1187 c 1,28,-1
 173 1178 l 1,29,30
 104 1086 104 1086 60 972 c 1,31,-1
 60 963 l 1,32,-1
 70 963 l 1,33,34
 104 1100 104 1100 322 1309 c 1,35,-1
 257 1272 l 1,36,-1
 247 1272 l 1,37,38
 247 1315 247 1315 425 1337 c 1,0,1
378 1178 m 1,39,-1
 369 1187 l 1,40,-1
 369 1178 l 1,41,-1
 378 1169 l 1,42,-1
 313 1113 l 1,43,44
 235 1113 235 1113 163 851 c 1,45,46
 163 776 163 776 247 720 c 1,47,-1
 257 720 l 2,48,49
 359 720 359 720 491 935 c 1,50,51
 537 1037 537 1037 537 1085 c 2,52,-1
 537 1159 l 2,53,54
 537 1185 537 1185 444 1197 c 1,55,-1
 434 1197 l 1,56,-1
 425 1187 l 1,57,-1
 416 1187 l 1,58,-1
 416 1197 l 1,59,-1
 378 1178 l 1,39,-1
649 1150 m 1,60,-1
 668 1150 l 1,61,-1
 668 1103 l 1,62,-1
 649 1103 l 1,63,-1
 649 1150 l 1,60,-1
173 1047 m 1,64,-1
 145 991 l 1,65,-1
 154 991 l 1,66,-1
 182 1047 l 1,67,-1
 173 1047 l 1,64,-1
537 991 m 1,68,-1
 500 898 l 1,69,-1
 528 898 l 1,70,-1
 556 963 l 1,71,-1
 547 991 l 1,72,-1
 537 991 l 1,68,-1
603 954 m 1,73,-1
 593 926 l 1,74,-1
 593 907 l 1,75,-1
 603 907 l 1,76,-1
 612 944 l 1,77,-1
 612 954 l 1,78,-1
 603 954 l 1,73,-1
51 916 m 1,79,-1
 51 842 l 1,80,-1
 60 842 l 1,81,-1
 60 916 l 1,82,-1
 51 916 l 1,79,-1
491 888 m 1,83,-1
 453 842 l 1,84,-1
 462 842 l 1,85,-1
 500 888 l 1,86,-1
 491 888 l 1,83,-1
191 683 m 1,87,-1
 191 673 l 1,88,-1
 238 645 l 1,89,-1
 238 655 l 1,90,-1
 191 683 l 1,87,-1
EndSplineSet
Validated: 1
EndChar

StartChar: oslash
Encoding: 248 248 113
Width: 1250
GlyphClass: 1
Flags: W
LayerCount: 2
Fore
SplineSet
1178 997 m 1,0,-1
 1212 997 l 1,1,-1
 1212 912 l 1,2,-1
 1178 912 l 1,3,-1
 1178 997 l 1,0,-1
311 810 m 1,4,-1
 260 708 l 1,5,-1
 277 708 l 1,6,-1
 328 810 l 1,7,-1
 311 810 l 1,4,-1
974 708 m 1,8,-1
 906 538 l 1,9,-1
 957 538 l 1,10,-1
 1008 657 l 1,11,-1
 991 708 l 1,12,-1
 974 708 l 1,8,-1
1093 640 m 1,13,-1
 1076 589 l 1,14,-1
 1076 555 l 1,15,-1
 1093 555 l 1,16,-1
 1110 623 l 1,17,-1
 1110 640 l 1,18,-1
 1093 640 l 1,13,-1
90 572 m 1,19,-1
 90 436 l 1,20,-1
 107 436 l 1,21,-1
 107 572 l 1,22,-1
 90 572 l 1,19,-1
889 521 m 1,23,-1
 816 390 l 1,24,-1
 833 390 l 1,25,-1
 906 521 l 1,26,-1
 889 521 l 1,23,-1
779 1122 m 1,27,-1
 730 1006 l 1,28,-1
 728 989 l 1,29,-1
 745 988 l 1,30,-1
 793 1105 l 1,31,-1
 796 1122 l 1,32,-1
 779 1122 l 1,27,-1
536 605 m 1,33,-1
 488 488 l 1,34,-1
 471 489 l 1,35,-1
 475 523 l 1,36,-1
 458 524 l 1,37,-1
 454 490 l 1,38,-1
 468 472 l 1,39,-1
 450 457 l 1,40,-1
 467 455 l 1,41,-1
 328 174 l 1,42,-1
 326 157 l 1,43,-1
 343 156 l 1,44,-1
 724 955 l 1,45,-1
 725 972 l 1,46,-1
 536 605 l 1,33,-1
663 1012 m 1,47,-1
 595 1012 l 1,48,49
 476 995 476 995 265 474 c 1,50,51
 294 389 294 389 328 332 c 1,52,-1
 663 1012 l 1,47,-1
959 1040 m 1,53,-1
 867 879 l 1,54,-1
 884 878 l 1,55,-1
 581 279 l 1,56,-1
 564 280 l 1,57,-1
 530 246 l 1,58,-1
 566 330 l 1,59,-1
 568 347 l 1,60,-1
 551 348 l 1,61,-1
 481 216 l 1,62,63
 724 222 724 222 889 606 c 0,64,65
 974 803 974 803 974 878 c 2,66,-1
 974 1014 l 2,67,68
 974 1028 974 1028 959 1040 c 1,53,-1
219 112 m 1,69,70
 144 186 144 186 107 300 c 1,71,-1
 39 402 l 1,72,-1
 56 419 l 1,73,-1
 39 538 l 1,74,-1
 39 572 l 2,75,76
 39 713 39 713 311 1065 c 1,77,-1
 311 1048 l 1,78,79
 186 880 186 880 107 674 c 1,80,-1
 107 657 l 1,81,-1
 124 657 l 1,82,83
 186 906 186 906 583 1286 c 1,84,-1
 464 1218 l 1,85,-1
 447 1218 l 1,86,87
 447 1296 447 1296 770 1337 c 1,88,89
 808 1337 808 1337 846 1333 c 1,90,91
 854 1351 854 1351 859 1371 c 1,92,93
 865 1365 865 1365 871 1359 c 0,94,95
 881 1352 881 1352 887 1414 c 1,96,97
 946 1456 946 1456 985 1456 c 2,98,-1
 992 1456 l 1,99,-1
 1015 1422 l 1,100,-1
 1043 1415 l 1,101,-1
 1036 1413 l 1,102,-1
 1011 1330 l 1,103,-1
 1024 1320 l 1,104,-1
 1070 1332 l 1,105,-1
 1095 1401 l 1,106,-1
 1144 1389 l 1,107,-1
 1093 1309 l 1,108,109
 1082 1284 1082 1284 1072 1261 c 1,110,111
 1109 1242 1109 1242 1144 1218 c 1,112,-1
 1127 1201 l 1,113,-1
 1127 1184 l 1,114,-1
 1195 1082 l 1,115,-1
 1161 1082 l 1,116,-1
 1144 1099 l 1,117,-1
 1127 1099 l 1,118,-1
 1178 725 l 1,119,-1
 1195 725 l 1,120,121
 1195 810 1195 810 1229 810 c 1,122,-1
 1229 742 l 2,123,124
 1229 646 1229 646 1059 300 c 1,125,-1
 1076 300 l 1,126,127
 956 135 956 135 719 -6 c 1,128,-1
 634 -23 l 1,129,-1
 617 -23 l 2,130,131
 491 -23 491 -23 394 8 c 1,132,133
 365 -65 365 -65 341 -133 c 1,134,-1
 271 -146 l 1,135,136
 195 -28 195 -28 195 63 c 1,137,-1
 219 112 l 1,69,70
682 1051 m 1,138,-1
 668 1065 l 1,139,-1
 668 1048 l 1,140,-1
 677 1039 l 1,141,-1
 682 1051 l 1,138,-1
EndSplineSet
Validated: 1
EndChar

StartChar: exclamdown
Encoding: 161 161 114
Width: 552
GlyphClass: 1
Flags: W
LayerCount: 2
Fore
SplineSet
305 -182 m 1,0,-1
 256 -231 l 1,1,-1
 249 -162 l 1,2,-1
 200 -211 l 1,3,-1
 194 -142 l 1,4,-1
 95 -217 l 1,5,-1
 185 49 l 1,6,-1
 175 131 l 1,7,-1
 89 -170 l 1,8,-1
 82 -101 l 1,9,-1
 82 -81 l 1,10,11
 175 306 175 306 175 548 c 2,12,-1
 175 568 l 2,13,14
 175 690 175 690 101 912 c 1,15,-1
 120 974 l 1,16,17
 165 974 165 974 175 893 c 1,18,-1
 194 893 l 1,19,-1
 194 933 l 1,20,-1
 268 933 l 1,21,-1
 305 832 l 1,22,-1
 324 852 l 1,23,-1
 342 852 l 1,24,25
 472 749 472 749 472 507 c 2,26,-1
 472 467 l 1,27,-1
 435 61 l 1,28,-1
 416 61 l 1,29,-1
 380 -20 l 1,30,-1
 342 -60 l 1,31,-1
 342 0 l 1,32,-1
 324 0 l 1,33,-1
 324 -81 l 1,34,-1
 361 -121 l 1,35,-1
 305 -182 l 1,0,-1
383 127 m 1,36,-1
 347 127 l 1,37,-1
 365 46 l 1,38,-1
 383 46 l 1,39,-1
 383 127 l 1,36,-1
117 1225 m 1,40,-1
 101 1233 l 1,41,-1
 136 1306 l 1,42,-1
 152 1298 l 1,43,-1
 117 1225 l 1,40,-1
437 457 m 1,44,-1
 437 559 l 1,45,-1
 418 660 l 1,46,-1
 399 660 l 1,47,-1
 399 598 l 1,48,-1
 418 457 l 1,49,-1
 437 457 l 1,44,-1
462 745 m 1,50,51
 462 745 462 745 370 928 c 1,52,53
 407 928 407 928 462 745 c 1,50,51
92 1039 m 1,54,-1
 77 1056 l 1,55,-1
 78 1073 l 1,56,-1
 180 1090 l 1,57,-1
 181 1107 l 1,58,-1
 111 1128 l 1,59,-1
 112 1145 l 1,60,-1
 146 1145 l 1,61,-1
 147 1162 l 1,62,-1
 113 1162 l 1,63,-1
 115 1179 l 1,64,65
 209 1295 209 1295 211 1328 c 1,66,-1
 177 1328 l 1,67,68
 185 1464 185 1464 406 1464 c 1,69,-1
 457 1447 l 1,70,-1
 453 1396 l 1,71,72
 402 1396 402 1396 401 1362 c 1,73,-1
 466 1328 l 1,74,-1
 425 1209 l 1,75,-1
 457 1175 l 1,76,77
 452 1091 452 1091 92 1039 c 1,54,-1
EndSplineSet
Validated: 1
EndChar

StartChar: guillemotleft
Encoding: 171 171 119
Width: 1003
GlyphClass: 1
Flags: W
LayerCount: 2
Fore
SplineSet
575 978 m 1,0,1
 573 963 573 963 552 925 c 1,2,3
 552 925 552 925 563 909 c 1,4,-1
 621 947 l 1,5,-1
 621 931 l 1,6,-1
 274 480 l 1,7,-1
 491 261 l 1,8,-1
 496 252 l 1,9,-1
 491 244 l 1,10,-1
 450 259 l 1,11,-1
 446 251 l 1,12,-1
 455 252 l 1,13,-1
 461 244 l 1,14,-1
 461 228 l 1,15,-1
 491 196 l 1,16,-1
 512 165 l 1,17,-1
 543 102 l 1,18,-1
 538 94 l 1,19,20
 411 260 411 260 378 262 c 1,21,22
 436 196 436 196 436 196 c 1,23,24
 483 128 483 128 498 93 c 1,25,26
 498 93 498 93 473 68 c 1,27,-1
 263 264 l 1,28,-1
 113 365 l 1,29,-1
 98 389 l 1,30,-1
 103 460 l 1,31,-1
 98 468 l 1,32,-1
 103 477 l 2,33,34
 110 490 110 490 110 502 c 129,-1,35
 110 514 110 514 105 527 c 1,36,37
 105 527 105 527 120 552 c 1,38,-1
 158 549 l 1,39,-1
 405 882 l 1,40,-1
 410 875 l 1,41,-1
 390 842 l 1,42,-1
 349 794 l 1,43,-1
 359 777 l 1,44,-1
 349 741 l 1,45,-1
 349 737 l 1,46,-1
 526 997 l 1,47,48
 530 991 530 991 535 990 c 1,49,50
 543 991 543 991 551 1005 c 1,51,52
 551 1005 551 1005 561 1005 c 1,53,-1
 572 989 l 2,54,55
 574 986 574 986 574 979 c 0,56,57
 575 978 575 978 575 978 c 1,0,1
611 605 m 1,58,-1
 635 640 l 1,59,-1
 628 633 l 1,60,-1
 611 605 l 1,58,-1
653 665 m 1,61,-1
 697 728 l 1,62,-1
 652 674 l 1,63,-1
 653 665 l 1,61,-1
807 232 m 1,64,-1
 803 226 l 1,65,-1
 802 224 l 1,66,-1
 804 224 l 1,67,-1
 810 218 l 1,68,-1
 831 187 l 1,69,-1
 861 121 l 1,70,-1
 857 113 l 2,71,72
 855 109 855 109 841 109 c 1,73,74
 824 109 824 109 773 158 c 1,75,-1
 796 111 l 1,76,-1
 805 111 l 1,77,-1
 774 89 l 1,78,-1
 769 94 l 1,79,-1
 761 89 l 1,80,-1
 619 237 l 1,81,-1
 529 343 l 1,82,-1
 513 367 l 1,83,-1
 460 440 l 1,84,-1
 454 447 l 1,85,-1
 460 457 l 2,86,87
 464 463 464 463 479 464 c 1,88,89
 493 464 493 464 499 456 c 1,90,-1
 510 474 l 1,91,-1
 515 532 l 1,92,-1
 761 875 l 1,93,-1
 767 866 l 1,94,-1
 761 857 l 1,95,-1
 774 875 l 1,96,-1
 778 866 l 1,97,-1
 759 832 l 1,98,-1
 718 783 l 1,99,-1
 726 770 l 1,100,-1
 836 927 l 1,101,102
 840 921 840 921 845 921 c 1,103,-1
 848 926 l 1,104,105
 850 922 850 922 851 923 c 0,106,107
 855 925 855 925 861 936 c 1,108,-1
 872 936 l 1,109,-1
 929 985 l 1,110,111
 931 982 931 982 931 977 c 1,112,-1
 941 985 l 1,113,114
 940 970 940 970 921 918 c 1,115,-1
 931 902 l 1,116,-1
 957 895 l 1,117,-1
 957 878 l 1,118,-1
 650 451 l 1,119,120
 697 425 697 425 860 232 c 1,121,-1
 865 224 l 1,122,-1
 860 216 l 1,123,124
 856 220 856 220 853 224 c 1,125,-1
 848 216 l 1,126,127
 679 408 679 408 636 427 c 1,128,-1
 635 426 l 1,129,-1
 706 362 l 1,130,-1
 701 353 l 1,131,-1
 819 231 l 1,132,-1
 816 226 l 1,133,-1
 807 232 l 1,64,-1
722 803 m 1,134,-1
 706 783 l 1,135,-1
 707 782 l 1,136,-1
 722 803 l 1,134,-1
EndSplineSet
Validated: 1
EndChar

StartChar: guillemotright
Encoding: 187 187 120
Width: 1003
GlyphClass: 1
Flags: W
LayerCount: 2
Fore
SplineSet
184 83 m 1,0,1
 177 82 177 82 168 68 c 1,2,3
 168 68 168 68 158 68 c 1,4,-1
 147 84 l 2,5,6
 145 87 145 87 144 94 c 1,7,8
 145 112 145 112 167 148 c 1,9,10
 167 148 167 148 156 164 c 1,11,-1
 98 126 l 1,12,-1
 98 142 l 1,13,-1
 474 527 l 1,14,-1
 228 812 l 1,15,-1
 223 821 l 1,16,-1
 228 829 l 1,17,-1
 268 814 l 1,18,-1
 273 822 l 1,19,-1
 264 821 l 1,20,-1
 258 829 l 1,21,-1
 258 845 l 1,22,-1
 228 877 l 1,23,-1
 207 908 l 1,24,-1
 176 971 l 1,25,-1
 181 979 l 1,26,27
 306 811 306 811 340 811 c 0,28,29
 340 811 340 811 341 811 c 1,30,31
 282 877 282 877 282 877 c 1,32,33
 236 945 236 945 221 980 c 1,34,35
 221 980 221 980 246 1005 c 1,36,-1
 456 809 l 1,37,-1
 635 642 l 1,38,-1
 650 618 l 1,39,-1
 645 547 l 1,40,-1
 650 539 l 1,41,-1
 645 530 l 2,42,43
 633 508 633 508 643 480 c 1,44,45
 643 480 643 480 628 455 c 1,46,-1
 590 458 l 1,47,-1
 314 191 l 1,48,-1
 309 198 l 1,49,-1
 329 231 l 1,50,-1
 370 279 l 1,51,-1
 359 296 l 1,52,-1
 370 332 l 1,53,-1
 370 336 l 1,54,-1
 193 76 l 1,55,56
 190 82 190 82 184 83 c 1,0,1
604 841 m 1,57,-1
 608 847 l 1,58,-1
 609 849 l 1,59,-1
 607 849 l 1,60,-1
 601 855 l 1,61,-1
 580 886 l 1,62,-1
 550 952 l 1,63,-1
 554 960 l 2,64,65
 558 968 558 968 570 964 c 1,66,67
 572 965 572 965 574 965 c 0,68,69
 593 965 593 965 638 915 c 1,70,-1
 615 962 l 1,71,-1
 606 962 l 1,72,-1
 637 984 l 1,73,-1
 642 979 l 1,74,-1
 650 984 l 1,75,-1
 792 836 l 1,76,-1
 911 664 l 1,77,-1
 926 640 l 1,78,-1
 953 606 l 1,79,-1
 959 599 l 1,80,-1
 953 589 l 2,81,82
 945 576 945 576 934 583 c 1,83,84
 925 578 925 578 913 590 c 1,85,-1
 950 524 l 1,86,-1
 925 475 l 1,87,-1
 650 198 l 1,88,-1
 644 207 l 1,89,-1
 650 216 l 1,90,-1
 637 198 l 1,91,-1
 633 207 l 1,92,-1
 652 241 l 1,93,-1
 693 290 l 1,94,-1
 685 303 l 1,95,-1
 575 145 l 1,96,97
 571 152 571 152 566 152 c 1,98,-1
 563 147 l 1,99,100
 561 151 561 151 560 150 c 0,101,102
 556 148 556 148 550 137 c 1,103,-1
 539 137 l 1,104,-1
 482 88 l 1,105,106
 480 91 480 91 480 96 c 1,107,-1
 470 88 l 1,108,109
 468 92 468 92 468 98 c 0,110,111
 466 115 466 115 490 155 c 1,112,-1
 480 171 l 1,113,-1
 454 178 l 1,114,-1
 454 195 l 1,115,-1
 790 556 l 1,116,117
 743 582 743 582 551 841 c 1,118,-1
 546 849 l 1,119,-1
 551 857 l 1,120,121
 555 853 555 853 558 849 c 1,122,-1
 563 857 l 1,123,124
 761 599 761 599 804 580 c 1,125,-1
 805 581 l 1,126,-1
 737 645 l 1,127,-1
 739 654 l 1,128,-1
 592 842 l 1,129,-1
 595 847 l 1,130,-1
 604 841 l 1,57,-1
688 270 m 1,131,-1
 705 290 l 1,132,-1
 704 291 l 1,133,-1
 688 270 l 1,131,-1
EndSplineSet
Validated: 1
EndChar

StartChar: endash
Encoding: 8211 8211 122
Width: 1475
GlyphClass: 1
Flags: W
LayerCount: 2
Fore
SplineSet
1331 892 m 1,0,-1
 1330 881 l 1,1,-1
 1317 869 l 1,2,-1
 1316 857 l 1,3,4
 1423 851 1423 851 1423 827 c 1,5,-1
 1411 827 l 1,6,-1
 1422 815 l 1,7,-1
 1420 791 l 2,8,9
 1418 763 1418 763 1226 755 c 1,10,-1
 1191 769 l 1,11,-1
 1154 759 l 1,12,-1
 1153 747 l 1,13,-1
 1309 738 l 1,14,-1
 1320 725 l 1,15,-1
 1332 724 l 1,16,-1
 1319 713 l 1,17,-1
 1318 689 l 1,18,-1
 1342 687 l 1,19,-1
 1342 674 l 1,20,21
 1224 644 1224 644 620 636 c 1,22,-1
 145 594 l 1,23,24
 96 606 96 606 93 718 c 1,25,-1
 119 740 l 1,26,-1
 119 752 l 1,27,28
 74 755 74 755 74 787 c 2,29,-1
 74 791 l 1,30,-1
 78 863 l 1,31,-1
 104 885 l 1,32,-1
 152 882 l 1,33,34
 662 907 662 907 959 907 c 0,35,36
 1111 907 1111 907 1199 901 c 2,37,-1
 1331 892 l 1,0,-1
985 729 m 1,38,-1
 693 721 l 1,39,-1
 673 704 l 1,40,-1
 777 700 l 1,41,-1
 1050 704 l 1,42,-1
 985 729 l 1,38,-1
EndSplineSet
Validated: 1
EndChar

StartChar: emdash
Encoding: 8212 8212 123
Width: 2097
GlyphClass: 1
Flags: W
LayerCount: 2
Fore
SplineSet
1984 929 m 1,0,-1
 2056 926 l 1,1,-1
 2054 878 l 2,2,3
 2051 812 2051 812 1461 784 c 1,4,-1
 1448 748 l 1,5,-1
 1508 745 l 1,6,-1
 1917 764 l 1,7,-1
 1916 740 l 1,8,9
 1832 736 1832 736 1830 707 c 1,10,-1
 1854 706 l 1,11,-1
 1975 713 l 1,12,-1
 1986 701 l 1,13,-1
 1986 689 l 1,14,-1
 1575 634 l 1,15,-1
 1564 647 l 1,16,-1
 1503 638 l 1,17,-1
 1491 638 l 1,18,-1
 1372 655 l 1,19,-1
 1263 648 l 1,20,-1
 1251 649 l 1,21,-1
 1252 661 l 1,22,-1
 1264 672 l 1,23,-1
 1265 684 l 1,24,-1
 748 682 l 1,25,-1
 748 670 l 1,26,-1
 904 664 l 1,27,-1
 903 640 l 1,28,-1
 891 640 l 1,29,-1
 109 626 l 1,30,-1
 66 736 l 1,31,-1
 91 759 l 1,32,-1
 69 796 l 1,33,-1
 72 880 l 1,34,-1
 97 903 l 1,35,-1
 133 901 l 1,36,37
 502 901 502 901 1984 929 c 1,0,-1
811 752 m 1,38,-1
 811 740 l 1,39,-1
 919 735 l 1,40,-1
 907 748 l 1,41,-1
 908 760 l 1,42,-1
 811 752 l 1,38,-1
366 735 m 1,43,-1
 366 723 l 1,44,-1
 378 723 l 1,45,-1
 654 735 l 1,46,-1
 655 746 l 1,47,-1
 560 763 l 1,48,-1
 366 735 l 1,43,-1
616 676 m 1,49,-1
 615 664 l 1,50,-1
 675 662 l 1,51,-1
 676 674 l 1,52,-1
 616 676 l 1,49,-1
964 673 m 1,53,-1
 1156 665 l 1,54,-1
 1155 641 l 1,55,-1
 963 649 l 1,56,-1
 964 673 l 1,53,-1
EndSplineSet
Validated: 1
EndChar

